<?xml version="1.0" encoding="UTF-8" standalone="no"?>
<!-- Created with Inkscape (http://www.inkscape.org/) -->

<svg
   xmlns:dc="http://purl.org/dc/elements/1.1/"
   xmlns:cc="http://creativecommons.org/ns#"
   xmlns:rdf="http://www.w3.org/1999/02/22-rdf-syntax-ns#"
   xmlns:svg="http://www.w3.org/2000/svg"
   xmlns="http://www.w3.org/2000/svg"
   xmlns:sodipodi="http://sodipodi.sourceforge.net/DTD/sodipodi-0.dtd"
   xmlns:inkscape="http://www.inkscape.org/namespaces/inkscape"
   sodipodi:docname="back-to-my-homepage--perspective--3.svg"
   inkscape:version="0.48+devel 12335"
   version="1.1"
   id="svg2"
   height="744.09448"
   width="1052.3622">
  <sodipodi:namedview
     id="base"
     pagecolor="#ffffff"
     bordercolor="#666666"
     borderopacity="1.0"
     inkscape:pageopacity="0.0"
     inkscape:pageshadow="2"
     inkscape:zoom="0.85338625"
     inkscape:cx="526.18109"
     inkscape:cy="372.04724"
     inkscape:document-units="px"
     inkscape:current-layer="layer1"
     showgrid="true"
     inkscape:window-width="1439"
     inkscape:window-height="827"
     inkscape:window-x="273"
     inkscape:window-y="115"
     inkscape:window-maximized="0"
     showguides="true"
     inkscape:guide-bbox="true"
     inkscape:snap-global="true">
    <inkscape:grid
       spacingy="10px"
       spacingx="10px"
       id="grid3073"
       type="xygrid"
       snapvisiblegridlinesonly="false"
       enabled="true"
       visible="true"
       empspacing="5" />
    <sodipodi:guide
       id="guide3899"
       position="601.86424,356.07132"
       orientation="0,1" />
    <sodipodi:guide
       id="guide3000"
       position="558.65171,405.85217"
       orientation="0,1" />
  </sodipodi:namedview>
  <defs
     id="defs4" />
  <metadata
     id="metadata7">
    <rdf:RDF>
      <cc:Work
         rdf:about="">
        <dc:format>image/svg+xml</dc:format>
        <dc:type
           rdf:resource="http://purl.org/dc/dcmitype/StillImage" />
        <dc:title></dc:title>
      </cc:Work>
    </rdf:RDF>
  </metadata>
  <g
     transform="translate(0,-308.26769)"
     id="layer1"
     inkscape:groupmode="layer"
     inkscape:label="Layer 1">
    <path
       id="path3027"
       d="m 510.34555,412.40131 c -2.31612,-0.23157 -4.47485,-0.0817 -6.46165,0.45632 -2.00676,0.52773 -3.69138,1.3681 -5.03987,2.52511 -1.33963,1.16638 -2.28259,2.43337 -2.82341,3.79121 -0.52418,1.34694 -1.09602,3.39336 -1.7322,6.1497 0,0 -2.61995,11.26635 -2.61995,11.26635 -0.88696,3.81036 -1.19132,6.67983 -0.91332,8.60718 0.29611,1.90886 1.42479,3.41975 3.36525,4.50783 1.94031,1.07794 4.56242,1.60974 7.83199,1.61361 3.09645,0.004 5.79669,-0.60659 8.11607,-1.81639 2.30901,-1.19558 3.9095,-2.58528 4.83126,-4.17033 0.9337,-1.57723 1.81079,-4.24967 2.62253,-8.01809 0,0 0.30934,-1.41051 0.30934,-1.41051 0,0 -10.48807,-0.43129 -10.48807,-0.43129 0,0 -1.04855,4.68847 -1.04855,4.68847 -0.46373,2.05587 -0.89071,3.35478 -1.27014,3.90818 -0.3629,0.55476 -0.95428,0.82603 -1.77123,0.81194 -0.85529,-0.0147 -1.34025,-0.3065 -1.46301,-0.87453 -0.12287,-0.56837 0.0298,-1.76975 0.4504,-3.61234 0,0 3.89565,-17.43001 3.89565,-17.43001 0.42872,-1.87922 0.82565,-3.08778 1.18439,-3.63254 0.37507,-0.54231 0.99939,-0.77415 1.88042,-0.70023 0.77607,0.0652 1.22577,0.33561 1.34336,0.82202 0.13425,0.47216 -0.0118,1.64406 -0.43199,3.50452 0,0 -1.4133,6.43195 -1.4133,6.43195 0,0 10.41748,0.59004 10.41748,0.59004 0,0 0.71863,-3.43178 0.71863,-3.43178 0.73488,-3.35306 0.96584,-5.83408 0.69493,-7.45952 -0.25539,-1.64124 -1.24034,-3.08515 -2.96561,-4.33288 -1.72453,-1.25728 -4.11793,-2.0438 -7.2194,-2.35399 0,0 0,0 0,0 m -80.75699,-7.1351 c 0,0 -12.15596,44.98768 -12.15596,44.98768 0,0 18.06401,0.0572 18.06401,0.0572 5.96834,0.0189 9.89447,-0.22839 11.89273,-0.73834 1.98086,-0.50553 3.55624,-1.45399 4.73287,-2.83934 1.17047,-1.37817 2.1192,-3.49844 2.84194,-6.36222 0,0 0.97765,-3.9209 0.97765,-3.9209 0.69551,-2.73811 0.64671,-4.77817 -0.15786,-6.14541 -0.80754,-1.38967 -2.74538,-2.46464 -5.83163,-3.21397 3.04214,-0.36325 5.14919,-0.99172 6.34785,-1.90281 1.21383,-0.90488 2.12387,-2.57602 2.74739,-5.0041 0.89985,-3.57985 0.87945,-6.21928 -0.0849,-7.93605 -0.94706,-1.7396 -2.46669,-2.98406 -4.56114,-3.72763 -2.1142,-0.75049 -5.40912,-1.35211 -9.92088,-1.7944 0,0 -14.89207,-1.45969 -14.89207,-1.45969 0,0 0,0 0,0 m 41.74443,4.09172 c 0,0 -17.03261,41.01266 -17.03261,41.01266 0,0 13.90653,0.044 13.90653,0.044 0,0 2.55006,-7.38839 2.55006,-7.38839 0,0 4.55252,0.0921 4.55252,0.0921 0,0 -1.10604,7.31528 -1.10604,7.31528 0,0 12.5717,0.0398 12.5717,0.0398 0,0 2.3381,-39.37265 2.3381,-39.37265 0,0 -17.78026,-1.7428 -17.78026,-1.7428 0,0 0,0 0,0 m 54.73936,5.36547 c 0,0 -7.67667,35.85006 -7.67667,35.85006 0,0 9.91945,0.0314 9.91945,0.0314 0,0 3.16106,-15.14779 3.16106,-15.14779 0,0 0.70294,15.16002 0.70294,15.16002 0,0 9.53243,0.0302 9.53243,0.0302 0,0 -1.84825,-18.96758 -1.84825,-18.96758 0,0 8.16303,-14.80438 8.16303,-14.80438 0,0 -8.33372,-0.81686 -8.33372,-0.81686 0,0 -6.88212,13.01421 -6.88212,13.01421 0,0 2.80513,-13.41383 2.80513,-13.41383 0,0 -9.54328,-0.93542 -9.54328,-0.93542 0,0 0,0 0,0 m 29.14299,2.91045 c 0,0 -7.83329,14.50677 -7.83329,14.50677 0,0 1.77297,18.5759 1.77297,18.5759 0,0 2.28934,-9.2725 2.28934,-9.2725 0,0 23.36371,0.6854 23.36371,0.6854 0,0 0,-13.56554 0,-13.56554 0,0 -19.42758,-1.36983 -19.42758,-1.36983 0,0 -0.16515,-9.5602 -0.16515,-9.5602 0,0 0,0 0,0 m -112.62858,-3.59669 c 1.4957,0.14033 2.48355,0.29602 2.96268,0.47838 0.47807,0.18205 0.80746,0.56009 0.9891,1.12874 0.18144,0.5504 0.10107,1.49978 -0.23939,2.83317 -0.65975,2.53107 -1.24736,4.05674 -1.77326,4.57976 -0.52716,0.5063 -1.51229,0.71266 -2.9454,0.62556 -0.34808,-0.0211 -0.84976,-0.0459 -1.50227,-0.0674 0,0 2.50854,-9.57823 2.50854,-9.57823 0,0 0,0 0,0 m 36.20088,5.07377 c -0.94328,6.65513 -1.64863,12.27975 -2.10358,16.84987 0,0 -4.32342,-0.1601 -4.32342,-0.1601 1.18876,-3.57229 3.34603,-9.16097 6.427,-16.68977 0,0 0,0 0,0 m 99.65221,9.70903 c 0,0 0,13.41601 0,13.41601 0,0 6.20671,0.18208 6.20671,0.18208 0,0 0,-13.16046 0,-13.16046 0,0 -6.20671,-0.43763 -6.20671,-0.43763 0,0 0,0 0,0 m 9.63309,0.67922 c 0,0 0,13.01938 0,13.01938 0,0 5.84845,0.17157 5.84845,0.17157 0,0 0,-12.77858 0,-12.77858 0,0 -5.84845,-0.41237 -5.84845,-0.41237 0,0 0,0 0,0 m 9.07987,0.64022 c 0,0 0,12.64553 0,12.64553 0,0 5.52033,0.16195 5.52033,0.16195 0,0 0,-12.41824 0,-12.41824 0,0 -5.52033,-0.38924 -5.52033,-0.38924 0,0 0,0 0,0 m -158.81896,0.25259 c 2.1765,0.15433 3.45563,0.43981 3.87227,0.85564 0.41583,0.41513 0.37859,1.55167 -0.1067,3.4087 0,0 -1.03902,4.05011 -1.03902,4.05011 -0.46527,1.76135 -1.05104,2.86231 -1.75241,3.30078 -0.68006,0.44029 -2.08354,0.67065 -4.21953,0.68391 0,0 3.24539,-12.29914 3.24539,-12.29914 0,0 0,0 0,0 m -4.23731,29.7031 c -1.09712,0.0194 -2.09653,0.17331 -3.00107,0.46699 -0.90803,0.29483 -1.69199,0.70916 -2.32851,1.24233 -0.63006,0.53444 -1.06419,1.1182 -1.32699,1.7581 -0.2631,0.63442 -0.59622,1.71569 -0.99196,3.24611 0,0 -0.70174,2.60806 -0.70174,2.60806 -0.41414,1.5755 -0.65379,2.67975 -0.72019,3.30706 -0.0664,0.62749 0.0935,1.20379 0.47492,1.71647 0.38077,0.51187 0.96159,0.87949 1.74416,1.10825 0.78,0.22181 1.70201,0.30667 2.76116,0.25306 1.11107,-0.0562 2.11422,-0.24326 3.01487,-0.56492 0.8972,-0.32044 1.65856,-0.75277 2.27143,-1.29572 0.61919,-0.5419 1.05412,-1.13179 1.29931,-1.75832 0.25281,-0.6323 0.56424,-1.70083 0.95034,-3.20027 0,0 0.66759,-2.54324 0.66759,-2.54324 0.39217,-1.52933 0.6185,-2.59897 0.68114,-3.20703 0.0626,-0.60788 -0.0883,-1.15922 -0.44871,-1.66724 -0.36105,-0.50878 -0.91395,-0.89045 -1.6631,-1.13207 -0.75159,-0.24847 -1.64631,-0.3559 -2.68265,-0.33762 0,0 0,0 0,0 m 60.71907,-1.07188 c -2.01549,0.0356 -3.86502,0.36708 -5.5425,1.00561 -1.69118,0.64379 -3.12809,1.55533 -4.32222,2.7295 -1.18556,1.1805 -2.02838,2.47119 -2.52502,3.88724 -0.49784,1.40571 -1.1242,3.81054 -1.87537,7.20816 0,0 -1.324,5.81143 -1.324,5.81143 -0.79024,3.51626 -1.24425,5.9785 -1.37122,7.37624 -0.12707,1.39858 0.16504,2.65747 0.89359,3.76973 0.72605,1.10846 1.83719,1.88813 3.32106,2.33567 1.4735,0.43073 3.20643,0.54855 5.18984,0.35021 2.06996,-0.207 3.93399,-0.70268 5.59604,-1.47011 1.64869,-0.76129 3.03148,-1.75489 4.14977,-2.97354 1.12654,-1.21327 1.90967,-2.49338 2.35399,-3.86235 0.45758,-1.38025 1.02774,-3.70634 1.72451,-6.95902 0,0 1.19152,-5.50924 1.19152,-5.50924 0.70428,-3.3014 1.1181,-5.60357 1.23036,-6.91208 0.11214,-1.30773 -0.1574,-2.50687 -0.80406,-3.59912 -0.64879,-1.09572 -1.65006,-1.90678 -3.00326,-2.43122 -1.36236,-0.54111 -2.98873,-0.79052 -4.88303,-0.75711 0,0 0,0 0,0 m 92.53494,-1.63353 c -1.65746,0.0293 -3.10273,0.50543 -4.3236,1.44864 -1.23023,0.93999 -2.05873,1.97722 -2.47912,3.09508 -0.42149,1.12082 -0.85119,2.91352 -1.28412,5.38469 0,0 -1.33235,7.72269 -1.33235,7.72269 -0.30717,1.7971 -0.47869,3.14407 -0.52532,4.04135 -0.0467,0.8869 0.081,1.72469 0.38844,2.50485 0.30685,0.7787 0.83984,1.40866 1.59735,1.88585 0.75398,0.46443 1.61399,0.64957 2.57837,0.55313 0.80526,-0.0805 1.53253,-0.35311 2.18708,-0.8036 0.65186,-0.45905 1.23885,-1.09942 1.753,-1.92535 0,0 0.20965,1.7818 0.20965,1.7818 0,0 3.4728,-0.34147 3.4728,-0.34147 0,0 2.24552,-13.47108 2.24552,-13.47108 0,0 -6.43516,0.35985 -6.43516,0.35985 0,0 -0.65448,3.86836 -0.65448,3.86836 0,0 1.13273,-0.0769 1.13273,-0.0769 0,0 -0.5218,3.02276 -0.5218,3.02276 -0.19551,1.18858 -0.40277,2.00067 -0.6255,2.4248 -0.21413,0.42396 -0.52356,0.65385 -0.93555,0.68954 -0.37711,0.0327 -0.59808,-0.13001 -0.66109,-0.47991 -0.0631,-0.36048 6.2e-4,-1.11703 0.19861,-2.27158 0,0 2.0816,-12.25702 2.0816,-12.25702 0.22177,-1.29463 0.41692,-2.09863 0.59392,-2.41528 0.17678,-0.31626 0.44244,-0.48054 0.78606,-0.49121 0.39554,-0.0122 0.60945,0.16655 0.65329,0.526 0.0438,0.35939 -0.0555,1.25946 -0.30118,2.70294 0,0 -0.38089,2.29532 -0.38089,2.29532 0,0 5.46606,-0.26458 5.46606,-0.26458 0,0 0.17364,-1.0758 0.17364,-1.0758 0.33085,-2.03235 0.42684,-3.57351 0.29129,-4.62348 -0.13571,-1.06098 -0.65335,-1.964 -1.56682,-2.71673 -0.91026,-0.75725 -2.16819,-1.1221 -3.78243,-1.09363 0,0 0,0 0,0 m -171.92228,3.34946 c 0,0 -0.83716,3.11526 -0.83716,3.11526 0,0 3.21336,-0.0791 3.21336,-0.0791 0,0 -3.35032,12.48574 -3.35032,12.48574 0,0 5.41901,-0.27067 5.41901,-0.27067 0,0 3.27684,-12.34672 3.27684,-12.34672 0,0 3.10238,-0.0764 3.10238,-0.0764 0,0 0.81406,-3.04102 0.81406,-3.04102 0,0 -11.63817,0.21294 -11.63817,0.21294 0,0 0,0 0,0 m 40.48484,-0.29074 c 0,0 -8.70263,36.289 -8.70263,36.289 0,0 11.24207,-1.1054 11.24207,-1.1054 0,0 3.51844,-15.02892 3.51844,-15.02892 0,0 3.20203,-0.20856 3.20203,-0.20856 0,0 -3.46748,14.91762 -3.46748,14.91762 0,0 10.54856,-1.03721 10.54856,-1.03721 0,0 7.77036,-34.29188 7.77036,-34.29188 0,0 -10.15459,0.19598 -10.15459,0.19598 0,0 -2.88785,12.41174 -2.88785,12.41174 0,0 -3.17561,0.15102 -3.17561,0.15102 0,0 2.92981,-12.50228 2.92981,-12.50228 0,0 -10.82311,0.20889 -10.82311,0.20889 0,0 0,0 0,0 m 52.45107,-1.01231 c 0,0 -6.75867,31.9528 -6.75867,31.9528 0,0 7.66277,-0.75346 7.66277,-0.75346 0,0 4.32858,-20.79429 4.32858,-20.79429 0,0 -1.19101,20.48578 -1.19101,20.48578 0,0 5.18044,-0.50938 5.18044,-0.50938 0,0 7.0411,-20.94509 7.0411,-20.94509 0,0 -4.18093,20.66386 -4.18093,20.66386 0,0 6.96868,-0.68522 6.96868,-0.68522 0,0 5.93623,-29.89726 5.93623,-29.89726 0,0 -10.16965,0.19628 -10.16965,0.19628 0,0 -4.75416,14.33041 -4.75416,14.33041 0,0 0.46697,-7.77167 0.46697,-7.77167 0.16849,-2.48811 0.28473,-4.65181 0.34948,-6.48274 0,0 -10.87983,0.20998 -10.87983,0.20998 0,0 0,0 0,0 m 28.00652,-0.54053 c 0,0 -5.83923,29.64911 -5.83923,29.64911 0,0 12.89821,-1.26824 12.89821,-1.26824 0,0 1.10253,-5.80181 1.10253,-5.80181 0,0 -5.31454,0.43845 -5.31454,0.43845 0,0 1.24177,-6.42204 1.24177,-6.42204 0,0 4.49716,-0.29291 4.49716,-0.29291 0,0 1.04743,-5.45252 1.04743,-5.45252 0,0 -4.4802,0.22447 -4.4802,0.22447 0,0 1.04883,-5.46979 1.04883,-5.46979 0,0 4.75484,-0.16702 4.75484,-0.16702 0,0 1.07887,-5.66999 1.07887,-5.66999 0,0 -12.03567,0.23229 -12.03567,0.23229 0,0 0,0 0,0 m 14.51301,-0.2801 c 0,0 -5.38426,28.45745 -5.38426,28.45745 0,0 6.96375,-0.68472 6.96375,-0.68472 0,0 2.08997,-11.33812 2.08997,-11.33812 0,0 1.80631,-0.12011 1.80631,-0.12011 1.45247,-0.0966 2.65109,-0.38904 3.61643,-0.87841 0.97022,-0.48727 1.68989,-1.14267 2.16074,-1.96221 0.46951,-0.81727 0.86729,-2.08883 1.18227,-3.82545 0,0 0.42263,-2.36896 0.42263,-2.36896 0.31359,-1.69584 0.45828,-2.94151 0.4381,-3.73773 -0.0202,-0.80733 -0.21259,-1.4867 -0.58714,-2.04237 -0.36525,-0.55708 -0.99334,-0.97682 -1.88249,-1.25873 -0.89382,-0.28333 -2.2304,-0.40652 -4.02516,-0.3719 0,0 -6.80115,0.13126 -6.80115,0.13126 0,0 0,0 0,0 m 17.02721,-0.32863 c 0,0 -8.1636,27.38513 -8.1636,27.38513 0,0 6.64674,-0.65356 6.64674,-0.65356 0,0 1.234,-4.90344 1.234,-4.90344 0,0 2.22576,-0.18723 2.22576,-0.18723 0,0 -0.53566,4.80315 -0.53566,4.80315 0,0 6.20884,-0.6105 6.20884,-0.6105 0,0 1.17596,-26.00323 1.17596,-26.00323 0,0 -8.79204,0.16968 -8.79204,0.16968 0,0 0,0 0,0 m 27.86236,-0.53774 c 0,0 -4.08838,24.78253 -4.08838,24.78253 0,0 9.06733,-0.89157 9.06733,-0.89157 0,0 0.78699,-4.86858 0.78699,-4.86858 0,0 -3.76159,0.31033 -3.76159,0.31033 0,0 0.87582,-5.38102 0.87582,-5.38102 0,0 3.17984,-0.20711 3.17984,-0.20711 0,0 0.74243,-4.58247 0.74243,-4.58247 0,0 -3.16417,0.15853 -3.16417,0.15853 0,0 0.73455,-4.59178 0.73455,-4.59178 0,0 3.36868,-0.11833 3.36868,-0.11833 0,0 0.76633,-4.77473 0.76633,-4.77473 0,0 -8.50783,0.1642 -8.50783,0.1642 0,0 0,0 0,0 m -162.3087,4.87723 c 0.31221,-0.007 0.48929,0.0831 0.53728,0.27808 0.0479,0.18883 -0.0136,0.62699 -0.18949,1.32411 0,0 -1.80779,6.91438 -1.80779,6.91438 -0.23389,0.89005 -0.42817,1.46216 -0.58973,1.70341 -0.15359,0.24106 -0.40292,0.37113 -0.75124,0.38689 -0.34072,0.0154 -0.53641,-0.0769 -0.57703,-0.27894 -0.0406,-0.20211 0.0613,-0.74214 0.28869,-1.62265 0,0 1.83616,-7.06078 1.83616,-7.06078 0.20125,-0.77389 0.39506,-1.24048 0.57188,-1.3983 0.18471,-0.164 0.41675,-0.2401 0.68127,-0.2462 0,0 0,0 0,0 m 60.18702,1.90166 c 0.57337,-0.0178 0.90847,0.18835 0.99641,0.61212 0.0879,0.41031 -0.037,1.3728 -0.35959,2.892 0,0 -3.30151,15.13739 -3.30151,15.13739 -0.43299,1.95815 -0.80045,3.2144 -1.1001,3.75186 -0.28509,0.53695 -0.75381,0.83308 -1.40189,0.88922 -0.635,0.055 -0.98803,-0.14253 -1.06386,-0.58367 -0.0759,-0.44128 0.096,-1.63505 0.52024,-3.57978 0,0 3.42318,-15.49922 3.42318,-15.49922 0.37183,-1.69282 0.71771,-2.70553 1.04385,-3.05143 0.34038,-0.35915 0.75683,-0.55338 1.24327,-0.56849 0,0 0,0 0,0 m 63.09621,-1.33051 c 0.8626,-0.0283 1.40203,0.1 1.62158,0.37407 0.21925,0.27379 0.25236,0.88128 0.0854,1.82144 0,0 -0.42731,2.2622 -0.42731,2.2622 -0.18854,1.0233 -0.42618,1.70857 -0.72025,2.0509 -0.2946,0.33165 -0.74952,0.51296 -1.36292,0.54544 -0.13779,0.007 -0.30318,0.009 -0.49431,0.008 0,0 1.29783,-7.06229 1.29783,-7.06229 0,0 0,0 0,0 m 14.81341,0.90102 c -0.46463,4.39752 -0.80675,8.09973 -1.03029,11.10012 0,0 -2.11204,0.1481 -2.11204,0.1481 0.58011,-2.38646 1.62756,-6.14546 3.14233,-11.24822 0,0 0,0 0,0 m -162.92906,19.62148 c 0,0 -4.35105,16.1063 -4.35105,16.1063 0,0 4.92898,-0.4735 4.92898,-0.4735 0,0 2.83494,-10.54519 2.83494,-10.54519 0,0 -0.7794,10.34773 -0.7794,10.34773 0,0 3.41103,-0.32767 3.41103,-0.32767 0,0 4.71035,-10.80921 4.71035,-10.80921 0,0 -2.80169,10.62586 -2.80169,10.62586 0,0 4.69051,-0.45059 4.69051,-0.45059 0,0 4.06151,-15.54972 4.06151,-15.54972 0,0 -6.92557,0.44608 -6.92557,0.44608 0,0 -3.17118,7.44044 -3.17118,7.44044 0,0 0.30704,-3.96085 0.30704,-3.96085 0.11218,-1.26863 0.19544,-2.37826 0.23855,-3.31048 0,0 -7.15402,0.4608 -7.15402,0.4608 0,0 0,0 0,0 m 17.62022,-1.13493 c 0,0 1.0902,9.56428 1.0902,9.56428 0,0 -1.43293,5.59925 -1.43293,5.59925 0,0 4.78598,-0.45976 4.78598,-0.45976 0,0 1.42036,-5.54338 1.42036,-5.54338 0,0 6.12487,-9.93258 6.12487,-9.93258 0,0 -4.60232,0.29644 -4.60232,0.29644 -1.26822,2.40613 -2.25475,4.43917 -2.95892,6.08928 0.17826,-1.02541 0.28756,-2.99995 0.31995,-5.9193 0,0 -4.74719,0.30577 -4.74719,0.30577 0,0 0,0 0,0"
       style="font-size:145.6787262px;font-style:italic;font-variant:normal;font-weight:bold;font-stretch:normal;text-align:start;line-height:125%;letter-spacing:0px;word-spacing:0px;writing-mode:lr-tb;text-anchor:start;fill:#000000;fill-opacity:1;stroke:none;font-family:Homa;-inkscape-font-specification:Homa Bold Italic"
       inkscape:connector-curvature="0" />
    <path
       transform="translate(0,308.26769)"
       sodipodi:nodetypes="ccccc"
       inkscape:connector-curvature="0"
       id="rect45"
       d="m 150,394.09448 200,20 0,60 L 150,494.09448 Z"
       style="color:#000000;fill:none;stroke:#ff00ff;stroke-width:1.79999995;stroke-linecap:round;stroke-linejoin:round;stroke-miterlimit:4;stroke-opacity:1;stroke-dashoffset:0;marker:none;visibility:visible;display:inline;overflow:visible;enable-background:accumulate" />
    <path
       inkscape:connector-curvature="0"
       id="path85"
       d="m 321.08314,682.25243 0,-100 200,20 L 521.08314,662.25243 Z"
       style="fill:none;stroke:#000000;stroke-width:1px;stroke-linecap:butt;stroke-linejoin:miter;stroke-opacity:1" />
  </g>
</svg>
