<?xml version="1.0" encoding="UTF-8" standalone="no"?>
<!-- Created with Inkscape (http://www.inkscape.org/) -->

<svg
   xmlns:dc="http://purl.org/dc/elements/1.1/"
   xmlns:cc="http://creativecommons.org/ns#"
   xmlns:rdf="http://www.w3.org/1999/02/22-rdf-syntax-ns#"
   xmlns:svg="http://www.w3.org/2000/svg"
   xmlns="http://www.w3.org/2000/svg"
   xmlns:sodipodi="http://sodipodi.sourceforge.net/DTD/sodipodi-0.dtd"
   xmlns:inkscape="http://www.inkscape.org/namespaces/inkscape"
   width="1052.3622"
   height="744.09448"
   id="svg2"
   version="1.1"
   inkscape:version="0.48+devel 12335"
   sodipodi:docname="back-to-my-homepage--perspective.svg">
  <sodipodi:namedview
     id="base"
     pagecolor="#ffffff"
     bordercolor="#666666"
     borderopacity="1.0"
     inkscape:pageopacity="0.0"
     inkscape:pageshadow="2"
     inkscape:zoom="0.85338625"
     inkscape:cx="526.18109"
     inkscape:cy="371.46134"
     inkscape:document-units="px"
     inkscape:current-layer="svg2"
     showgrid="true"
     inkscape:window-width="1439"
     inkscape:window-height="827"
     inkscape:window-x="273"
     inkscape:window-y="115"
     inkscape:window-maximized="0"
     showguides="true"
     inkscape:guide-bbox="true"
     inkscape:snap-global="true">
    <inkscape:grid
       spacingy="10px"
       spacingx="10px"
       id="grid3073"
       type="xygrid"
       snapvisiblegridlinesonly="false"
       enabled="true"
       visible="true"
       empspacing="5" />
    <sodipodi:guide
       id="guide3899"
       position="601.86424,356.07132"
       orientation="0,1" />
    <sodipodi:guide
       id="guide3000"
       position="558.65171,405.85217"
       orientation="0,1" />
  </sodipodi:namedview>
  <defs
     id="defs4">
    <inkscape:path-effect
       bendpath4-nodetypes="cc"
       bendpath4="m 134.875,139.0625 c 80.66673,85.13075 99.85692,167.08168 0,242.875"
       bendpath3="m 134.875,381.9375 583.8125,0"
       bendpath2="m 718.6875,139.0625 0,242.875"
       bendpath1="m 134.875,139.0625 583.8125,0"
       xx="true"
       yy="true"
       is_visible="true"
       id="path-effect3219"
       effect="envelope" />
  </defs>
  <metadata
     id="metadata7">
    <rdf:RDF>
      <cc:Work
         rdf:about="">
        <dc:format>image/svg+xml</dc:format>
        <dc:type
           rdf:resource="http://purl.org/dc/dcmitype/StillImage" />
        <dc:title></dc:title>
      </cc:Work>
    </rdf:RDF>
  </metadata>
  <g
     transform="translate(0,-308.26769)"
     id="layer1"
     inkscape:groupmode="layer"
     inkscape:label="Layer 1">
    <path
       id="path3027"
       transform="translate(0,308.26769)"
       d="M850.0 488.326360955C849.999911065 487.65866586 849.172084116 487.030364254 847.508150908 486.440726424C845.867511216 485.847356476 843.585126776 485.333059374 840.637806031 484.898384264C837.652008661 484.46305519 834.487773698 484.132466927 831.154485495 483.90880576C827.811660441 483.687875639 822.697132204 483.412050275 815.67606492 483.071327383C815.67606492 483.071327383 784.949340245 481.574317654 784.949340245 481.574317654C773.753492926 481.028587219 765.052028599 480.717390859 759.075723831 480.655823144C753.016264813 480.600064933 748.139272689 480.845513371 744.575022234 481.39757957C740.96442088 481.962873535 739.159717768 482.811885747 739.159717768 483.935591685C739.159717768 485.016768946 741.314130889 486.004580701 745.561192137 486.888734226C749.744158189 487.765492013 754.542517264 488.391412783 759.911050713 488.775115549C765.174905734 489.157111227 773.85712778 489.543787067 785.646214483 489.924291938C785.646214483 489.924291938 789.93699685 490.064649186 789.93699685 490.064649186C789.93699685 490.064649186 789.93699685 486.577225591 789.93699685 486.577225591C789.93699685 486.577225591 775.809352518 486.021087306 775.809352518 486.021087306C769.38900529 485.767037156 765.249934065 485.558412721 763.457290133 485.401963486C761.652554983 485.250279256 760.743780367 485.035947838 760.743801653 484.761458689C760.743780367 484.475278703 761.652554983 484.330037743 763.457290133 484.322100201C765.249934065 484.314205355 769.026893047 484.433315578 774.738675958 484.673777668C774.738675958 484.673777668 823.722627737 486.711441406 823.722627737 486.711441406C828.516259786 486.913401755 831.577718803 487.077693352 832.98258733 487.204960734C834.378903474 487.336494718 835.068516017 487.531348893 835.068595129 487.793193643C835.068516017 488.024811306 834.500248795 488.152187419 833.331554227 488.172655095C832.194807584 488.198754347 829.252411804 488.117314535 824.47381302 487.927894825C824.47381302 487.927894825 807.269653423 487.258182717 807.269653423 487.258182717C807.269653423 487.258182717 807.269653423 490.627098765 807.269653423 490.627098765C807.269653423 490.627098765 816.826923077 490.928845453 816.826923077 490.928845453C825.852560642 491.22418703 832.273725952 491.336473065 836.301442512 491.274859182C840.296907955 491.219484821 843.580948773 490.935942245 846.169417627 490.427947371C848.728528345 489.930549128 849.999911065 489.232848293 850.0 488.326360955C850.0 488.326360955 850.0 488.326360955 850.0 488.326360955M848.20957991 468.792410797C848.20957991 468.792410797 741.916129444 459.904051103 741.916129444 459.904051103C741.916129444 459.904051103 741.916129444 464.321244212 741.916129444 464.321244212C741.916129444 465.856466483 742.698456026 466.926290056 744.257293587 467.531949901C745.80743497 468.13421454 748.676794039 468.689782419 752.813067151 469.19447726C756.887716499 469.691636025 763.033263027 470.218766787 771.116622308 470.767218293C771.116622308 470.767218293 781.83596065 471.491485256 781.83596065 471.491485256C789.09537223 471.985204112 794.322644341 472.199097368 797.673216132 472.142890965C801.02280196 472.089306867 803.405515311 471.719740838 804.813954805 471.037749751C806.087340357 471.829874871 807.880300063 472.422231849 810.222944208 472.817151102C812.543277527 473.213584769 816.600242356 473.608218313 822.291427635 473.999455731C830.466364553 474.556906185 836.211746611 474.79118305 839.694656489 474.711819138C843.161715388 474.640103536 845.436922235 474.391316335 846.546001452 473.96793811C847.649509559 473.546597519 848.209490266 472.848662002 848.20957991 471.874961855C848.20957991 471.874961855 848.20957991 468.792410797 848.20957991 468.792410797C848.20957991 468.792410797 848.20957991 468.792410797 848.20957991 468.792410797M848.20957991 477.969126606C848.20957991 477.969126606 741.916129444 469.296063142 741.916129444 469.296063142C741.916129444 469.296063142 741.916129444 473.251223428 741.916129444 473.251223428C741.916129444 473.251223428 764.574402939 474.819693492 764.574402939 474.819693492C764.574402939 474.819693492 764.574402939 476.130409545 764.574402939 476.130409545C764.574402939 476.130409545 741.916129444 475.035626054 741.916129444 475.035626054C741.916129444 475.035626054 741.916129444 478.942989841 741.916129444 478.942989841C741.916129444 478.942989841 848.20957991 482.438180756 848.20957991 482.438180756C848.20957991 482.438180756 848.20957991 477.969126606 848.20957991 477.969126606C848.20957991 477.969126606 848.20957991 477.969126606 848.20957991 477.969126606M848.20957991 493.072337023C848.20957991 493.072337023 741.916129444 489.896354178 741.916129444 489.896354178C741.916129444 489.896354178 741.916129444 493.712108009 741.916129444 493.712108009C741.916129444 493.712108009 793.042268221 494.890474012 793.042268221 494.890474012C793.042268221 494.890474012 741.916129444 495.253545099 741.916129444 495.253545099C741.916129444 495.253545099 741.916129444 499.19675626 741.916129444 499.19675626C741.916129444 499.19675626 805.70976313 497.922085231 805.70976313 497.922085231C805.70976313 497.922085231 848.20957991 500.43370111 848.20957991 500.43370111C848.20957991 500.43370111 848.20957991 497.534942322 848.20957991 497.534942322C848.20957991 497.534942322 812.108699291 495.330617542 812.108699291 495.330617542C812.108699291 495.330617542 848.20957991 496.16456136 848.20957991 496.16456136C848.20957991 496.16456136 848.20957991 493.072337023 848.20957991 493.072337023C848.20957991 493.072337023 848.20957991 493.072337023 848.20957991 493.072337023M848.069468135 503.04826194C848.069468135 503.04826194 805.570006786 500.781450254 805.570006786 500.781450254C805.570006786 500.781450254 741.7379645 502.425678774 741.7379645 502.425678774C741.7379645 502.425678774 775.935027571 502.872844132 775.935027571 502.872844132C775.935027571 502.872844132 775.935027571 513.40538499 775.935027571 513.40538499C775.935027571 513.40538499 821.795012032 511.715522379 821.795012032 511.715522379C821.795012032 511.715522379 821.795012032 503.63366525 821.795012032 503.63366525C821.795012032 503.63366525 848.069468135 503.04826194 848.069468135 503.04826194C848.069468135 503.04826194 848.069468135 503.04826194 848.069468135 503.04826194M832.98258733 470.709445084C832.944652118 471.036331179 832.786362594 471.246914111 832.483156882 471.338423403C832.179405187 471.430030283 831.43185653 471.467363111 830.247676355 471.450885853C829.095845755 471.436157473 827.028790785 471.318545159 824.059659246 471.098254707C818.330260754 470.67013629 814.790191627 470.362607894 813.520280421 470.17932239C812.284859137 469.997094998 811.672656026 469.740262654 811.672717118 469.41237018C811.672717118 469.333033891 811.659538335 469.218229026 811.618164553 469.068026169C811.618164553 469.068026169 832.98258733 470.709445084 832.98258733 470.709445084C832.98258733 470.709445084 832.98258733 470.709445084 832.98258733 470.709445084M828.118085164 479.161571957C811.970716711 478.396871867 797.508862326 477.737116934 785.16163222 477.206943774C785.16163222 477.206943774 785.16163222 476.001741015 785.16163222 476.001741015C794.865693237 476.665535699 809.477878144 477.742938809 828.118085164 479.161571957C828.118085164 479.161571957 828.118085164 479.161571957 828.118085164 479.161571957M821.795012032 513.333258983C821.795012032 513.333258983 775.935027571 515.178262961 775.935027571 515.178262961C775.935027571 515.178262961 775.935027571 518.301370779 775.935027571 518.301370779C775.935027571 518.301370779 821.795012032 516.183069245 821.795012032 516.183069245C821.795012032 516.183069245 821.795012032 513.333258983 821.795012032 513.333258983C821.795012032 513.333258983 821.795012032 513.333258983 821.795012032 513.333258983M821.795012032 517.804218796C821.795012032 517.804218796 775.935027571 520.077988999 775.935027571 520.077988999C775.935027571 520.077988999 775.935027571 523.201096818 775.935027571 523.201096818C775.935027571 523.201096818 821.795012032 520.654029059 821.795012032 520.654029059C821.795012032 520.654029059 821.795012032 517.804218796 821.795012032 517.804218796C821.795012032 517.804218796 821.795012032 517.804218796 821.795012032 517.804218796M821.795012032 522.275178609C821.795012032 522.275178609 775.935027571 524.977715038 775.935027571 524.977715038C775.935027571 524.977715038 775.935027571 528.100822856 775.935027571 528.100822856C775.935027571 528.100822856 821.795012032 525.124988872 821.795012032 525.124988872C821.795012032 525.124988872 821.795012032 522.275178609 821.795012032 522.275178609C821.795012032 522.275178609 821.795012032 522.275178609 821.795012032 522.275178609M795.441167984 467.832141479C795.308529859 468.333566401 794.75258769 468.606497907 793.776053729 468.655927342C792.795643447 468.705530764 789.961304469 468.554743353 785.222254931 468.200367683C785.222254931 468.200367683 774.612426391 467.411698186 774.612426391 467.411698186C769.87517849 467.056273961 766.857685945 466.757302778 765.621562156 466.520300893C764.379640487 466.287984458 763.672916263 465.905193091 763.523131673 465.374407279C763.523131673 465.374407279 795.441167984 467.832141479 795.441167984 467.832141479C795.441167984 467.832141479 795.441167984 467.832141479 795.441167984 467.832141479M711.529142549 462.326335506C711.529091853 462.034971652 711.084645824 461.746324582 710.179438748 461.457868564C709.271355246 461.168514044 707.964247359 460.88950451 706.254244194 460.626229068C704.534243418 460.363570571 702.629631536 460.141398334 700.514226945 459.951836679C698.404649633 459.762115562 694.769117297 459.466131657 689.548278992 459.061526436C689.548278992 459.061526436 680.46481967 458.350110034 680.46481967 458.350110034C674.857332913 457.913621899 670.864246407 457.61682342 668.563587781 457.465174369C666.246011644 457.312408976 664.064750266 457.230100714 662.067707573 457.220386317C660.058067658 457.21060839 658.54706793 457.28650722 657.520758322 457.44819588C656.51514976 457.611761446 656.00648155 457.845210313 656.00648155 458.147769742C656.00648155 458.466615086 656.537926151 458.784944274 657.615164205 459.104071644C658.688801418 459.422129351 660.222264822 459.725559611 662.207309067 460.009680587C664.180073383 460.294335357 666.360545072 460.535994556 668.700361011 460.730644388C671.045864945 460.927335143 674.993094794 461.224631068 680.46481967 461.622108274C680.46481967 461.622108274 689.548278992 462.285551512 689.548278992 462.285551512C694.896382731 462.673562645 698.591117203 462.928216038 700.678593461 463.053724569C702.751537295 463.178351924 704.635343952 463.234403954 706.37517822 463.225904533C708.104770905 463.217442534 709.41178243 463.135560278 710.259004452 462.977503373C711.123801679 462.820953501 711.529091853 462.602802672 711.529142549 462.326335506C711.529142549 462.326335506 711.529142549 462.326335506 711.529142549 462.326335506M711.529142549 480.88575255C711.529015809 480.181806447 710.414203985 479.514297071 708.143234279 478.879349071C705.854456787 478.239474716 702.530552989 477.658046944 698.162169604 477.127992257C693.729208382 476.595406642 688.779449485 476.161803776 683.218115124 475.826308696C677.610455576 475.486315202 667.767026285 474.970345237 653.339250055 474.262904205C653.339250055 474.262904205 627.216066482 472.967196644 627.216066482 472.967196644C610.44171327 472.139389043 598.187530187 471.573704676 590.990917937 471.293245844C583.645108635 471.006968259 576.708589437 470.899611659 570.219514231 470.984634406C563.612970144 471.071192119 558.546389402 471.370513249 555.11160334 471.883127031C551.72579836 472.402850463 550.000020587 473.090067345 550.0 473.941391466C550.000020587 474.838548187 551.8671056 475.70005016 555.492166213 476.517261899C559.082286024 477.326577492 564.187088943 478.050095728 570.706480941 478.682581845C577.111343178 479.310251657 583.981564268 479.791342946 591.393143691 480.131210327C598.723925379 480.47159703 610.854092419 480.947763605 627.216066482 481.547754679C627.216066482 481.547754679 653.339250055 482.510292137 653.339250055 482.510292137C668.113693127 483.050814394 678.064870144 483.384713653 683.609446599 483.523259932C689.0558178 483.65933169 694.012221138 483.642309372 698.493395707 483.478016149C702.908559936 483.316111835 706.168948021 483.008371061 708.303444542 482.55742123C710.472668943 482.110700865 711.529015809 481.553713474 711.529142549 480.88575255C711.529142549 480.88575255 711.529142549 480.88575255 711.529142549 480.88575255M711.529142549 522.847086717C711.529015809 521.881099194 709.35384739 521.1465616 704.880206915 520.644769595C700.390050747 520.133059192 695.322636671 519.872625658 689.71871292 519.866412881C684.0097252 519.860086132 674.632482593 519.996919334 661.228813559 520.289956839C661.228813559 520.289956839 615.630870382 521.300247063 615.630870382 521.300247063C604.128254217 521.557000862 595.232725398 521.794838263 589.146341463 522.003026377C583.028181949 522.211927586 577.044608965 522.532981214 571.253542257 522.970762578C565.368930639 523.415613178 560.326607014 523.988020965 556.188855806 524.687804226C552.08546646 525.392069581 550.000020587 526.094893638 550.0 526.789052316C550.000020587 527.371873798 551.554342768 527.830699916 554.540028988 528.171282015C557.581719658 528.505448551 562.037132742 528.724147366 567.897513188 528.819906452C567.897513188 528.819906452 554.158491854 529.625951055 554.158491854 529.625951055C554.158491854 529.625951055 554.158491854 532.212961532 554.158491854 532.212961532C554.158491854 532.212961532 646.084810411 529.008226089 646.084810411 529.008226089C646.084810411 529.008226089 646.084810411 524.784600877 646.084810411 524.784600877C646.084810411 524.784600877 622.471910112 525.457625923 622.471910112 525.457625923C622.471910112 525.457625923 622.471910112 526.211966158 622.471910112 526.211966158C622.471910112 526.211966158 602.806793717 526.785907508 602.806793717 526.785907508C594.771127691 527.027223905 589.222490583 527.141761093 586.361410382 527.11901424C583.477147409 527.102329069 582.024944182 526.952161934 582.024963048 526.663793313C582.024944182 526.400491453 583.319916507 526.188502905 585.836804705 526.032149641C588.409267683 525.873609063 593.634954797 525.68383585 601.414189837 525.470139304C601.414189837 525.470139304 675.017869907 523.435610156 675.017869907 523.435610156C681.945229231 523.245298037 686.165201118 523.1643124 687.795826915 523.194003911C689.417607624 523.223536699 690.229335308 523.345042004 690.229444173 523.55268856C690.229335308 523.792275571 689.260766345 523.969469833 687.366872197 524.088865017C685.460960662 524.20900047 680.674294204 524.382292841 672.866159805 524.610831015C672.866159805 524.610831015 660.060016102 524.991914187 660.060016102 524.991914187C660.060016102 524.991914187 660.060016102 528.522397058 660.060016102 528.522397058C660.060016102 528.522397058 666.229341838 528.303576012 666.229341838 528.303576012C677.582610388 527.902698251 685.967828807 527.507981726 691.587224271 527.117205329C697.157041838 526.730664971 701.863043212 526.157775772 705.770014952 525.393179566C709.626035639 524.643656707 711.529015809 523.79765782 711.529142549 522.847086717C711.529142549 522.847086717 711.529142549 522.847086717 711.529142549 522.847086717M710.537315445 457.485235587C710.537315445 457.485235587 700.596421471 456.658226096 700.596421471 456.658226096C700.596421471 456.658226096 700.596421471 457.466756777 700.596421471 457.466756777C700.596421471 457.466756777 657.237374109 453.913501231 657.237374109 453.913501231C657.237374109 453.913501231 657.237374109 455.381467118 657.237374109 455.381467118C657.237374109 455.381467118 700.596421471 458.835697612 700.596421471 458.835697612C700.596421471 458.835697612 700.596421471 459.644228293 700.596421471 459.644228293C700.596421471 459.644228293 710.537315445 460.425922997 710.537315445 460.425922997C710.537315445 460.425922997 710.537315445 457.485235587 710.537315445 457.485235587C710.537315445 457.485235587 710.537315445 457.485235587 710.537315445 457.485235587M708.983371637 468.305123644C708.983371637 468.305123644 554.158491854 458.382024673 554.158491854 458.382024673C554.158491854 458.382024673 554.158491854 462.496755328 554.158491854 462.496755328C554.158491854 462.496755328 628.094981941 466.827935143 628.094981941 466.827935143C628.094981941 466.827935143 628.094981941 467.935668499 628.094981941 467.935668499C628.094981941 467.935668499 554.158491854 463.726383765 554.158491854 463.726383765C554.158491854 463.726383765 554.158491854 467.84111442 554.158491854 467.84111442C554.158491854 467.84111442 708.983371637 475.79643815 708.983371637 475.79643815C708.983371637 475.79643815 708.983371637 472.540078466 708.983371637 472.540078466C708.983371637 472.540078466 661.60192757 469.841595301 661.60192757 469.841595301C661.60192757 469.841595301 661.60192757 468.789103029 661.60192757 468.789103029C661.60192757 468.789103029 708.983371637 471.56570141 708.983371637 471.56570141C708.983371637 471.56570141 708.983371637 468.305123644 708.983371637 468.305123644C708.983371637 468.305123644 708.983371637 468.305123644 708.983371637 468.305123644M708.983371637 485.767985161C708.983371637 485.767985161 554.158491854 480.424844394 554.158491854 480.424844394C554.158491854 480.424844394 554.158491854 484.017914501 554.158491854 484.017914501C554.158491854 484.017914501 664.062840934 487.286459884 664.062840934 487.286459884C664.062840934 487.286459884 554.158491854 485.529665479 554.158491854 485.529665479C554.158491854 485.529665479 554.158491854 488.079414488 554.158491854 488.079414488C554.158491854 488.079414488 666.229341838 492.02284626 666.229341838 492.02284626C666.229341838 492.02284626 554.158491854 489.516642531 554.158491854 489.516642531C554.158491854 489.516642531 554.158491854 493.109712637 554.158491854 493.109712637C554.158491854 493.109712637 708.983371637 495.823893822 708.983371637 495.823893822C708.983371637 495.823893822 708.983371637 491.57206667 708.983371637 491.57206667C708.983371637 491.57206667 645.546407186 489.185435815 645.546407186 489.185435815C645.546407186 489.185435815 681.691535252 489.65072577 681.691535252 489.65072577C692.448914428 489.796994161 701.514217287 489.90801089 708.983371637 489.986067653C708.983371637 489.986067653 708.983371637 485.767985161 708.983371637 485.767985161C708.983371637 485.767985161 708.983371637 485.767985161 708.983371637 485.767985161M708.983371637 497.131499394C708.983371637 497.131499394 554.158491854 494.759863353 554.158491854 494.759863353C554.158491854 494.759863353 554.158491854 501.892772898 554.158491854 501.892772898C554.158491854 501.892772898 591.335710812 502.10592941 591.335710812 502.10592941C591.335710812 502.10592941 591.335710812 499.238194678 591.335710812 499.238194678C591.335710812 499.238194678 628.094981941 499.599579102 628.094981941 499.599579102C628.094981941 499.599579102 628.094981941 501.910953464 628.094981941 501.910953464C628.094981941 501.910953464 656.953739796 502.098424458 656.953739796 502.098424458C656.953739796 502.098424458 656.953739796 499.881735712 656.953739796 499.881735712C656.953739796 499.881735712 683.348614148 500.13710465 683.348614148 500.13710465C683.348614148 500.13710465 683.348614148 502.40804006 683.348614148 502.40804006C683.348614148 502.40804006 708.983371637 502.564389644 708.983371637 502.564389644C708.983371637 502.564389644 708.983371637 497.131499394 708.983371637 497.131499394C708.983371637 497.131499394 708.983371637 497.131499394 708.983371637 497.131499394M708.983371637 503.728580412C708.983371637 503.728580412 554.158491854 503.085139867 554.158491854 503.085139867C554.158491854 503.085139867 554.158491854 507.199870522 554.158491854 507.199870522C554.158491854 507.199870522 625.347222222 507.094961747 625.347222222 507.094961747C625.347222222 507.094961747 625.347222222 508.096480341 625.347222222 508.096480341C625.34715559 508.909392876 626.591431846 509.556807748 629.074585635 510.044610644C631.539379267 510.53465017 635.055316097 510.854991561 639.564921822 511.00659548C644.01363022 511.156141128 650.938545461 511.197442728 660.247311041 511.125329872C660.247311041 511.125329872 672.551130248 511.026173084 672.551130248 511.026173084C681.088094174 510.963317983 687.235842337 510.87238291 691.121169916 510.755375939C695.010239581 510.638384262 698.265895839 510.44934935 700.924974306 510.183544852C703.560446783 509.925275974 705.56209662 509.551752891 706.938886251 509.065447843C708.30906955 508.581378665 708.983256582 507.897842467 708.983371637 507.01024859C708.983371637 507.01024859 708.983371637 503.728580412 708.983371637 503.728580412C708.983371637 503.728580412 708.983371637 503.728580412 708.983371637 503.728580412M708.983371637 512.194271973C708.983371637 512.194271973 554.158491854 511.681892789 554.158491854 511.681892789C554.158491854 511.681892789 554.158491854 515.940346249 554.158491854 515.940346249C554.158491854 515.940346249 587.698574338 515.730670755 587.698574338 515.730670755C587.698574338 515.730670755 587.698574338 517.138853283 587.698574338 517.138853283C587.698574338 517.138853283 554.158491854 517.867296439 554.158491854 517.867296439C554.158491854 517.867296439 554.158491854 522.072519231 554.158491854 522.072519231C554.158491854 522.072519231 708.983371637 516.910088199 708.983371637 516.910088199C708.983371637 516.910088199 708.983371637 512.194271973 708.983371637 512.194271973C708.983371637 512.194271973 708.983371637 512.194271973 708.983371637 512.194271973M708.983371637 528.062698308C708.983371637 528.062698308 554.158491854 533.799235446 554.158491854 533.799235446C554.158491854 533.799235446 554.158491854 540.926821924 554.158491854 540.926821924C554.158491854 540.926821924 591.335710812 539.199344797 591.335710812 539.199344797C591.335710812 539.199344797 591.335710812 536.326552331 591.335710812 536.326552331C591.335710812 536.326552331 628.094981941 534.764118926 628.094981941 534.764118926C628.094981941 534.764118926 628.094981941 537.075493288 628.094981941 537.075493288C628.094981941 537.075493288 656.953739796 535.752624409 656.953739796 535.752624409C656.953739796 535.752624409 656.953739796 533.540525081 656.953739796 533.540525081C656.953739796 533.540525081 683.348614148 532.409913503 683.348614148 532.409913503C683.348614148 532.409913503 683.348614148 534.680848914 683.348614148 534.680848914C683.348614148 534.680848914 708.983371637 533.495588558 708.983371637 533.495588558C708.983371637 533.495588558 708.983371637 528.062698308 708.983371637 528.062698308C708.983371637 528.062698308 708.983371637 528.062698308 708.983371637 528.062698308M703.174061433 461.704911168C703.174009288 461.789025129 702.856245631 461.81960909 702.194721728 461.796824813C701.552401612 461.775095415 700.070763861 461.678389327 697.706137632 461.502737043C697.706137632 461.502737043 673.31565367 459.673020989 673.31565367 459.673020989C670.046193414 459.4274162 667.935567611 459.256286258 667.05516143 459.162014264C666.172269777 459.069763351 665.723597899 458.974328488 665.723612622 458.875764703C665.723597899 458.779488048 666.10480505 458.745514306 666.871832006 458.77684976C667.636975697 458.808103507 669.638011952 458.948345683 672.866159805 459.191795164C672.866159805 459.191795164 697.706137632 461.06858167 697.706137632 461.06858167C700.320777048 461.266129042 701.881465632 461.403649183 702.399015788 461.479451443C702.936233614 461.558397716 703.174009288 461.633728293 703.174061433 461.704911168C703.174061433 461.704911168 703.174061433 461.704911168 703.174061433 461.704911168M690.229444173 479.985525627C690.229335308 480.193160997 689.354878051 480.295019945 687.624317131 480.288001163C685.938214773 480.282151147 681.992842695 480.147422032 675.687254552 479.885199443C675.687254552 479.885199443 605.740828966 476.940533241 605.740828966 476.940533241C595.626867485 476.512271322 589.033807654 476.195207522 586.244897959 476.000356441C583.433965588 475.810215815 582.024944182 475.578782672 582.024963048 475.309221566C582.024944182 475.045918357 583.276696932 474.933344732 585.720120905 474.967490696C588.14684871 475.001390765 594.463375597 475.240610215 604.470606953 475.678078842C604.470606953 475.678078842 675.687254552 478.806916002 675.687254552 478.806916002C682.654993355 479.112287957 686.738801979 479.336133382 688.09573798 479.486338427C689.500390385 479.642468502 690.229335308 479.80981794 690.229444173 479.985525627C690.229444173 479.985525627 690.229444173 479.985525627 690.229444173 479.985525627M687.23806854 507.008771715C687.237972347 507.447494123 686.533493078 507.738630109 685.169819281 507.881700696C683.799860912 508.025402217 680.813926018 508.110065129 676.177226027 508.127876735C676.177226027 508.127876735 664.755884917 508.158122329 664.755884917 508.158122329C659.459303976 508.174704 655.895978595 508.125591068 654.151277884 508.005706088C652.457569385 507.883867383 651.612810908 507.657586259 651.612903226 507.329230717C651.612749363 507.255628636 651.648289719 507.166646808 651.709053162 507.063537731C651.709053162 507.063537731 687.23806854 507.008771715 687.23806854 507.008771715C687.23806854 507.008771715 687.23806854 507.008771715 687.23806854 507.008771715M680.201318494 515.097257289C656.911695243 515.616926757 635.941206304 516.114308837 617.926515329 516.574695196C617.926515329 516.574695196 617.926515329 515.289555133 617.926515329 515.289555133C632.092347394 515.193433106 653.302731581 515.127872701 680.201318494 515.097257289C680.201318494 515.097257289 680.201318494 515.097257289 680.201318494 515.097257289M629.537612146 450.574118743C629.537612146 450.574118743 559.715519431 444.742181295 559.715519431 444.742181295C559.715519431 444.742181295 559.715519431 446.216251667 559.715519431 446.216251667C559.715519431 446.216251667 607.280938045 450.098427241 607.280938045 450.098427241C607.280938045 450.098427241 559.715519431 446.839693616 559.715519431 446.839693616C559.715519431 446.839693616 559.715519431 447.885808073 559.715519431 447.885808073C559.715519431 447.885808073 608.322126414 452.292187358 608.322126414 452.292187358C608.322126414 452.292187358 559.715519431 448.477549584 559.715519431 448.477549584C559.715519431 448.477549584 559.715519431 449.951619955 559.715519431 449.951619955C559.715519431 449.951619955 629.537612146 455.292213982 629.537612146 455.292213982C629.537612146 455.292213982 629.537612146 453.296832933 629.537612146 453.296832933C629.537612146 453.296832933 598.612225253 450.4789379 598.612225253 450.4789379C598.612225253 450.4789379 615.791532984 451.635124323 615.791532984 451.635124323C621.117819764 451.997544623 625.714998906 452.306128684 629.537612146 452.555144533C629.537612146 452.555144533 629.537612146 450.574118743 629.537612146 450.574118743C629.537612146 450.574118743 629.537612146 450.574118743 629.537612146 450.574118743M629.537612146 455.560178823C629.537612146 455.560178823 586.594321149 453.433182128 586.594321149 453.433182128C586.594321149 453.433182128 559.715519431 451.436257139 559.715519431 451.436257139C559.715519431 451.436257139 559.715519431 453.000145419 559.715519431 453.000145419C559.715519431 453.000145419 586.594321149 454.945379157 586.594321149 454.945379157C586.594321149 454.945379157 629.537612146 459.168134006 629.537612146 459.168134006C629.537612146 459.168134006 629.537612146 457.76131859 629.537612146 457.76131859C619.550345607 456.8315532 610.892381716 456.052797232 603.695150115 455.436553102C608.269804229 455.745527859 616.993376644 456.262471373 629.537612146 456.966994239C629.537612146 456.966994239 629.537612146 455.560178823 629.537612146 455.560178823C629.537612146 455.560178823 629.537612146 455.560178823 629.537612146 455.560178823"
       style="font-size:145.6787262px;font-style:italic;font-variant:normal;font-weight:bold;font-stretch:normal;text-align:start;line-height:125%;letter-spacing:0px;word-spacing:0px;writing-mode:lr-tb;text-anchor:start;fill:#000000;fill-opacity:1;stroke:none;font-family:Impact;-inkscape-font-specification:Impact Bold Italic" />
    <path
       sodipodi:nodetypes="ccccc"
       inkscape:connector-curvature="0"
       id="rect2988"
       d="m 150.13854,702.50071 349.72292,0 0,199.89308 -349.72292,0 c 66.67671,-67.75164 67.11009,-134.38995 0,-199.89308 z"
       style="color:#000000;fill:none;stroke:#ff00ff;stroke-width:2.07708263;stroke-linecap:round;stroke-linejoin:round;stroke-miterlimit:4;stroke-opacity:1;stroke-dashoffset:0;marker:none;visibility:visible;display:inline;overflow:visible;enable-background:accumulate" />
    <path
       sodipodi:nodetypes="ccccc"
       inkscape:connector-curvature="0"
       id="rect15"
       d="m 550,444.09448 300,20 0,60 L 550,544.09448 Z"
       style="color:#000000;fill:none;stroke:#ff00ff;stroke-width:1.79999995;stroke-linecap:round;stroke-linejoin:round;stroke-miterlimit:4;stroke-opacity:1;stroke-dashoffset:0;marker:none;visibility:visible;display:inline;overflow:visible;enable-background:accumulate"
       transform="translate(0,308.26769)" />
  </g>
</svg>
