<?xml version="1.0" encoding="UTF-8" standalone="no"?>
<!-- Created with Inkscape (http://www.inkscape.org/) -->

<svg
   xmlns:dc="http://purl.org/dc/elements/1.1/"
   xmlns:cc="http://creativecommons.org/ns#"
   xmlns:rdf="http://www.w3.org/1999/02/22-rdf-syntax-ns#"
   xmlns:svg="http://www.w3.org/2000/svg"
   xmlns="http://www.w3.org/2000/svg"
   xmlns:sodipodi="http://sodipodi.sourceforge.net/DTD/sodipodi-0.dtd"
   xmlns:inkscape="http://www.inkscape.org/namespaces/inkscape"
   width="1052.3622"
   height="744.09448"
   id="svg2"
   version="1.1"
   inkscape:version="0.48.4 r9939"
   sodipodi:docname="back-to-my-homepage-slanted-path-union.svg">
  <defs
     id="defs4" />
  <sodipodi:namedview
     id="base"
     pagecolor="#ffffff"
     bordercolor="#666666"
     borderopacity="1.0"
     inkscape:pageopacity="0.0"
     inkscape:pageshadow="2"
     inkscape:zoom="0.83860318"
     inkscape:cx="526.18109"
     inkscape:cy="372.04724"
     inkscape:document-units="px"
     inkscape:current-layer="layer1"
     showgrid="true"
     inkscape:window-width="1439"
     inkscape:window-height="827"
     inkscape:window-x="273"
     inkscape:window-y="115"
     inkscape:window-maximized="0"
     showguides="true"
     inkscape:guide-bbox="true"
     inkscape:snap-global="false">
    <inkscape:grid
       empspacing="5"
       visible="true"
       enabled="true"
       snapvisiblegridlinesonly="false"
       type="xygrid"
       id="grid3073"
       spacingx="10px"
       spacingy="10px" />
    <sodipodi:guide
       orientation="0,1"
       position="342.23576,326.7338"
       id="guide3899" />
    <sodipodi:guide
       orientation="0,1"
       position="558.65171,405.85217"
       id="guide3000" />
  </sodipodi:namedview>
  <metadata
     id="metadata7">
    <rdf:RDF>
      <cc:Work
         rdf:about="">
        <dc:format>image/svg+xml</dc:format>
        <dc:type
           rdf:resource="http://purl.org/dc/dcmitype/StillImage" />
        <dc:title></dc:title>
      </cc:Work>
    </rdf:RDF>
  </metadata>
  <g
     inkscape:label="Layer 1"
     inkscape:groupmode="layer"
     id="layer1"
     transform="translate(0,-308.26769)">
    <g
       id="logo"
       inkscape:label="#g3032"
       transform="matrix(1.3165792,0,-0.09329278,1,-116.07637,-3.5773773)">
      <g
         style="font-size:145.6787262px;font-style:italic;font-variant:normal;font-weight:bold;font-stretch:normal;text-align:start;line-height:125%;letter-spacing:0px;word-spacing:0px;writing-mode:lr-tb;text-anchor:start;fill:#000000;fill-opacity:1;stroke:none;font-family:Impact;-inkscape-font-specification:Impact Bold Italic"
         id="text3004">
        <path
           d="m 384.21616,491.44291 c -6.4968,1.2e-4 -12.4675,1.11506 -17.92092,3.34375 -5.45351,2.1815 -9.97377,5.19022 -13.57776,9.03125 -3.55664,3.84124 -6.0561,7.85826 -7.47871,12.03125 -1.37525,4.12576 -2.88324,10.32633 -4.54297,18.625 l -6.77712,33.65625 c -2.27626,11.28634 -3.04107,19.76312 -2.32973,25.40625 0.75873,5.59575 3.64342,9.97902 8.67011,13.15625 5.07407,3.17724 12.00006,4.75 20.77306,4.75 8.44098,0 15.9169,-1.84745 22.41369,-5.59375 6.5441,-3.74629 11.13267,-8.11449 13.78835,-13.09375 2.70293,-4.97923 5.23235,-13.44093 7.6035,-25.34375 l 0.94134,-4.46875 -29.95453,0 -2.91709,14.4375 c -1.28043,6.30708 -2.44789,10.32409 -3.49111,12.03125 -0.9959,1.70719 -2.59789,2.56252 -4.82666,2.5625 -2.32369,2e-5 -3.64739,-0.85531 -3.9793,-2.5625 -0.332,-1.70716 0.0547,-5.37299 1.19282,-10.96875 l 10.6878,-53.5 c 1.18548,-5.83275 2.28061,-9.62031 3.27652,-11.375 1.04321,-1.7545 2.78351,-2.6249 5.24948,-2.625 2.18132,1e-4 3.43303,0.74878 3.76505,2.21875 0.3793,1.42274 -0.014,5.04225 -1.19946,10.875 l -3.99013,20.0625 29.95453,0 2.14225,-10.96875 c 2.1813,-10.76458 2.84966,-18.67581 2.04359,-23.75 -0.75884,-5.12141 -3.6667,-9.39805 -8.7407,-12.8125 -5.02675,-3.41423 -11.95558,-5.12488 -20.7759,-5.125 z m -189.07245,2.4375 -23.02881,115.15625 34.63047,0 c 12.04499,0 20.15226,-0.68728 24.32541,-2.0625 4.17302,-1.37522 7.528,-3.9412 10.04141,-7.6875 2.51326,-3.74628 4.54481,-9.50411 6.1098,-17.28125 l 2.14066,-10.65625 c 1.5174,-7.49255 1.38127,-13.05217 -0.37325,-16.65625 -1.75468,-3.6514 -5.9249,-6.24754 -12.51641,-7.8125 6.49666,-1.42258 11.05676,-3.46934 13.66502,-6.125 2.65552,-2.65553 4.67553,-7.35982 6.05084,-14.09375 1.99161,-9.95841 1.90699,-17.16729 -0.22688,-21.625 -2.08664,-4.50493 -5.38757,-7.49857 -9.93995,-8.96875 -4.55252,-1.46995 -11.5582,-2.18738 -20.99499,-2.1875 l -29.88332,0 z m 88.91414,0 -38.26717,115.15625 31.02263,0 5.89217,-20.6875 10.7523,0 -2.64037,20.6875 30.66659,0 5.8916,-115.15625 -43.31775,0 z m 146.40213,0 -23.05255,115.15625 29.95452,0 9.88826,-49.375 2.19324,49.375 30.95142,0 -6.11301,-63.15625 27.52779,-52 -28.10313,0 -22.27374,44.75 8.98172,-44.75 -29.95452,0 z m 96.66306,0.15625 -27.5278,52 6.11302,63.15625 7.99297,-31.90625 87.98844,0 -0.006,-50 -73.98435,0 -0.57591,-33.25 z m -306.01777,19.53125 c 3.08233,0.0475 5.12695,0.27697 6.12286,0.65625 0.99578,0.37947 1.69277,1.31127 2.0722,2.78125 0.37931,1.42273 0.20055,3.92731 -0.51071,7.53125 -1.37528,6.82877 -2.60905,10.96751 -3.69968,12.4375 -1.09075,1.42272 -3.10437,2.12507 -6.04445,2.125 -0.71137,0 -1.72752,0.0463 -3.05527,0.0937 l 5.11505,-25.625 z m 80.68018,6.0625 c -2.27629,19.15834 -3.96181,35.24041 -5.05246,48.28125 l -10.25384,0 c 2.79781,-10.19556 7.9085,-26.27763 15.3063,-48.28125 z m 314.73269,7.65625 0.006,50 26.08559,0 0.0174,-50 -26.10933,0 z m 40.94418,0 -0.0174,50 26.10933,0 -0.006,-50 -26.08559,0 z m 40.92044,0 0.006,50 26.0856,0 -0.006,-50 -26.08559,0 z m -485.94206,29.8125 c 4.41015,0.14232 7.03417,0.73803 7.88781,1.78125 0.85353,1.04332 0.77683,4.03697 -0.21896,8.96875 l -2.13402,10.75 c -0.94848,4.64733 -2.13487,7.56449 -3.55747,8.75 -1.37527,1.18556 -4.18494,1.82651 -8.45283,1.96875 l 6.47547,-32.21875 z m -8.46117,77.21875 c -2.16791,4e-5 -4.13385,0.35045 -5.90612,1.0625 -1.77231,0.71212 -3.27215,1.73332 -4.50641,3.0625 -1.21847,1.32925 -2.10091,2.79224 -2.60727,4.40625 -0.50638,1.59826 -1.1288,4.32647 -1.88835,8.1875 l -1.33668,6.59375 c -0.79121,3.95602 -1.25667,6.69886 -1.38326,8.28125 -0.1266,1.58241 0.17771,3.06121 0.90562,4.40625 0.7279,1.34505 1.84462,2.35081 3.34791,3.03125 1.50328,0.66461 3.28306,1 5.3402,1 2.16787,0 4.13382,-0.35042 5.90612,-1.0625 1.77228,-0.71208 3.28794,-1.73328 4.50641,-3.0625 1.23425,-1.32922 2.09296,-2.80802 2.58353,-4.40625 0.50634,-1.61405 1.13669,-4.32642 1.91209,-8.1875 l 1.33668,-6.59375 c 0.79117,-3.95598 1.25443,-6.73006 1.38105,-8.3125 0.12656,-1.58237 -0.17553,-3.02992 -0.90341,-4.375 -0.72793,-1.345 -1.84466,-2.36661 -3.34791,-3.03125 -1.50331,-0.6804 -3.28309,-0.99996 -5.3402,-1 z m 138.09462,0 c -5.23779,10e-5 -9.98494,0.87804 -14.26685,2.65625 -4.28198,1.7784 -7.91608,4.33684 -10.89812,7.65625 -2.94387,3.31959 -5.02071,7.00051 -6.24411,11.03125 -1.22343,3.99138 -2.76931,10.7952 -4.60441,20.4375 l -3.20483,16.40625 c -1.9116,9.8795 -3.01844,16.79824 -3.32428,20.75 -0.30587,3.9518 0.41898,7.60973 2.17765,10.96875 1.75865,3.35902 4.45403,5.89449 8.08607,7.59375 3.63198,1.65975 7.92936,2.49999 12.89951,2.5 5.2377,-10e-6 10.00638,-0.9092 14.28837,-2.6875 4.2819,-1.7783 7.88523,-4.30549 10.82912,-7.625 2.98201,-3.31949 5.0633,-6.97743 6.24854,-10.96875 1.22335,-4.0308 2.77183,-10.88886 4.64524,-20.53125 l 3.22857,-16.40625 c 1.91151,-9.8794 3.01834,-16.79814 3.32428,-20.75 0.30578,-3.95171 -0.41907,-7.60965 -2.17765,-10.96875 -1.75873,-3.35893 -4.47343,-5.8714 -8.10537,-7.53125 -3.63208,-1.69917 -7.93166,-2.53115 -12.90173,-2.53125 z m 312.22011,0 c -7.1876,10e-5 -13.39561,1.74127 -18.59507,5.21875 -5.19954,3.43814 -8.68608,7.22571 -10.44472,11.375 -1.75866,4.14945 -3.52909,10.80067 -5.32596,19.96875 l -5.50251,28.53125 c -1.26166,6.59952 -1.98287,11.55552 -2.17403,14.875 -0.19116,3.28 0.33057,6.4029 1.59223,9.40625 1.26163,3.00336 3.47943,5.53882 6.61444,7.59375 3.13498,2.01541 6.72462,3.03124 10.77721,3.03125 3.40259,-10e-6 6.50087,-0.72534 9.29182,-2.1875 2.79087,-1.50168 5.28164,-3.75491 7.49912,-6.71875 l 0.91441,6.875 15.21462,0 9.97503,-51.5 -28.26928,0 -2.81108,14.59375 4.86583,0 -2.23215,11.375 c -0.84114,4.46554 -1.75325,7.45882 -2.709,9 -0.9176,1.54121 -2.25501,2.31251 -4.01363,2.3125 -1.60576,10e-6 -2.53253,-0.65638 -2.80012,-2 -0.26765,-1.38311 0.0237,-4.25502 0.86488,-8.5625 l 8.89093,-46.03125 c 0.95574,-4.90014 1.81458,-7.97064 2.57925,-9.15625 0.76459,-1.18546 1.8978,-1.74992 3.38889,-1.75 1.72037,8e-5 2.66081,0.67946 2.85202,2.0625 0.19111,1.38321 -0.2401,4.81958 -1.31053,10.3125 l -1.66082,8.71875 24.13926,0 0.79733,-4.15625 c 1.49096,-7.86399 1.92557,-13.85881 1.31394,-17.96875 -0.61178,-4.14929 -2.95879,-7.7153 -7.04951,-10.71875 -4.05262,-3.00326 -9.60001,-4.4999 -16.6728,-4.5 z m -485.88452,0.8125 -1.54401,7.6875 5.9102,0 -6.13078,30.71875 9.99275,0 6.13078,-30.71875 5.93394,0 1.54401,-7.6875 -21.83689,0 z m 80.88065,1.1875 -18.57318,95.96875 24.13926,0 7.80082,-40.3125 7.21566,0 -7.80081,40.3125 24.163,0 18.57318,-95.96875 -24.13926,0 -6.6572,34.34375 -7.21567,0 6.63346,-34.34375 -24.13926,0 z m 129.3836,0 -18.57318,95.96875 21.10108,0 12.27112,-63.3125 -3.39394,63.3125 14.97726,0 20.97301,-64.78125 -12.54682,64.78125 21.10108,0 18.57318,-95.96875 -31.47361,0 -14.17542,44.8125 1.37996,-24.40625 c 0.49695,-7.82446 0.85506,-14.63655 1.04626,-20.40625 l -31.25998,0 z m 84.19072,0 -18.59692,95.96875 41.86987,0 3.71983,-19.1875 -17.70687,0 4.05724,-21.125 15.09594,0 3.5489,-18.25 -15.0722,0 3.48212,-18.1875 16.11658,0 3.74134,-19.21875 -40.25583,0 z m 48.84818,0 -18.57318,95.96875 24.13926,0 7.44567,-38.625 6.5036,0 c 5.27592,4e-5 9.66971,-0.77954 13.22532,-2.28125 3.59371,-1.50164 6.28251,-3.63169 8.04123,-6.4375 1.7586,-2.80572 3.22907,-7.28092 4.41432,-13.40625 l 1.61619,-8.34375 c 1.18511,-6.00664 1.72251,-10.43588 1.64608,-13.28125 -0.0765,-2.88471 -0.81706,-5.35951 -2.23156,-7.375 -1.37641,-2.01533 -3.71885,-3.55792 -7.04495,-4.625 -3.32621,-1.06689 -8.27704,-1.59366 -14.85283,-1.59375 l -24.32915,0 z m 62.7336,0 -30.84457,95.96875 24.99375,0 4.75908,-17.25 8.66355,0 -2.12441,17.25 24.73266,0 4.75897,-95.96875 -34.93903,0 z m 117.56319,0 -18.57318,95.96875 41.86987,0 3.71982,-19.1875 -17.70687,0 4.05725,-21.125 15.09594,0 3.5489,-18.25 -15.09594,0 3.50586,-18.1875 16.11657,0 3.71761,-19.21875 -40.25583,0 z m -489.30227,4.5 c 0.61712,4e-5 0.97878,0.24366 1.07378,0.75 0.0949,0.49057 -0.0254,1.64941 -0.37355,3.4375 l -3.5435,17.65625 c -0.45892,2.26284 -0.85178,3.67995 -1.16824,4.28125 -0.30067,0.60132 -0.77446,0.90626 -1.45488,0.90625 -0.66462,10e-6 -1.04436,-0.25905 -1.12346,-0.78125 -0.0791,-0.52218 0.0954,-1.8938 0.53845,-4.125 l 3.61851,-17.9375 c 0.39558,-1.97797 0.7761,-3.16687 1.12424,-3.5625 0.36394,-0.41139 0.78644,-0.62496 1.30865,-0.625 z m 136.34072,9.75 c 1.49099,8e-5 2.3482,0.61051 2.57764,1.875 0.22935,1.22514 -0.0735,4.0658 -0.91456,8.53125 l -8.55129,44.125 c -1.10877,5.65109 -2.03624,9.21709 -2.80084,10.71875 -0.72643,1.50169 -1.92315,2.25001 -3.56708,2.25 -1.60575,10e-6 -2.51184,-0.66464 -2.70296,-1.96875 -0.19119,-1.30407 0.26375,-4.74045 1.33427,-10.3125 l 8.71619,-44.8125 c 0.95575,-4.93966 1.85298,-7.88698 2.69413,-8.875 0.87928,-1.02739 1.9528,-1.53117 3.2145,-1.53125 z m 193.6014,2.1875 c 3.13496,7e-5 5.09269,0.48088 5.8956,1.46875 0.80282,0.98802 0.89946,3.12634 0.2878,6.40625 l -1.53073,7.875 c -0.68822,3.55667 -1.58596,5.91654 -2.6564,7.0625 -1.07053,1.10656 -2.69723,1.65631 -4.91462,1.65625 -0.49706,10e-5 -1.09648,-0.023 -1.78461,-0.0625 l 4.70296,-24.40625 z m 56.08807,5.03125 c -1.83517,15.96528 -3.19944,29.38263 -4.07873,40.25 l -8.26004,0 c 2.25563,-8.4963 6.37458,-21.91364 12.33877,-40.25 z m -432.6187,33.34375 -7.67479,38.40625 8.73476,0 5.06377,-25.34375 -1.38473,25.34375 6.19503,0 8.67701,-25.9375 -5.18785,25.9375 8.73475,0 7.6748,-38.40625 -13.03093,0 -5.84968,17.9375 0.5649,-9.78125 c 0.20569,-3.13312 0.33985,-5.8459 0.41895,-8.15625 l -12.93599,0 z m 32.56546,0 2.11584,24.5 -2.76485,13.90625 9.25694,0 2.76485,-13.90625 12.19682,-24.5 -9.18573,0 c -2.50022,5.98152 -4.43715,10.99535 -5.81383,15.09375 0.34812,-2.59512 0.5524,-7.60895 0.6157,-15.09375 l -9.18574,0 z"
           id="logo_path"
           inkscape:connector-curvature="0"
           inkscape:label="#path3048" />
      </g>
      <g
         style="font-size:48.61144257px;font-style:italic;font-variant:normal;font-weight:bold;font-stretch:normal;text-align:start;line-height:125%;letter-spacing:0px;word-spacing:0px;writing-mode:lr-tb;text-anchor:start;fill:#000000;fill-opacity:1;stroke:none;font-family:Impact;-inkscape-font-specification:Impact Bold Italic"
         id="text3032" />
      <g
         transform="scale(0.98359162,1.0166821)"
         style="font-size:119.40697479px;font-style:italic;font-variant:normal;font-weight:bold;font-stretch:normal;text-align:start;line-height:125%;letter-spacing:0px;word-spacing:0px;writing-mode:lr-tb;text-anchor:start;fill:#000000;fill-opacity:1;stroke:none;font-family:Impact;-inkscape-font-specification:Impact Bold Italic"
         id="text3044" />
      <g
         transform="translate(10.000001,0)"
         id="text3060"
         style="font-size:145.6787262px;font-style:italic;font-variant:normal;font-weight:bold;font-stretch:normal;text-align:start;line-height:125%;letter-spacing:0px;word-spacing:0px;writing-mode:lr-tb;text-anchor:start;fill:#000000;fill-opacity:1;stroke:none;font-family:Impact;-inkscape-font-specification:Impact Bold Italic" />
      <g
         style="font-size:48.61144257px;font-style:italic;font-variant:normal;font-weight:bold;font-stretch:normal;text-align:start;line-height:125%;letter-spacing:0px;word-spacing:0px;writing-mode:lr-tb;text-anchor:start;fill:#000000;fill-opacity:1;stroke:none;font-family:Impact;-inkscape-font-specification:Impact Bold Italic"
         id="text2997" />
    </g>
  </g>
</svg>
