<?xml version="1.0" encoding="UTF-8" standalone="no"?>
<!-- Created with Inkscape (http://www.inkscape.org/) -->

<svg
   xmlns:dc="http://purl.org/dc/elements/1.1/"
   xmlns:cc="http://creativecommons.org/ns#"
   xmlns:rdf="http://www.w3.org/1999/02/22-rdf-syntax-ns#"
   xmlns:svg="http://www.w3.org/2000/svg"
   xmlns="http://www.w3.org/2000/svg"
   xmlns:sodipodi="http://sodipodi.sourceforge.net/DTD/sodipodi-0.dtd"
   xmlns:inkscape="http://www.inkscape.org/namespaces/inkscape"
   width="1052.3622"
   height="744.09448"
   id="svg2"
   version="1.1"
   inkscape:version="0.48.4 r9939"
   sodipodi:docname="back-to-my-homepage--bezier-enveloped.svg">
  <sodipodi:namedview
     id="base"
     pagecolor="#ffffff"
     bordercolor="#666666"
     borderopacity="1.0"
     inkscape:pageopacity="0.0"
     inkscape:pageshadow="2"
     inkscape:zoom="0.83725927"
     inkscape:cx="526.18109"
     inkscape:cy="372.04724"
     inkscape:document-units="px"
     inkscape:current-layer="layer1"
     showgrid="true"
     inkscape:window-width="1439"
     inkscape:window-height="827"
     inkscape:window-x="273"
     inkscape:window-y="115"
     inkscape:window-maximized="0"
     showguides="true"
     inkscape:guide-bbox="true"
     inkscape:snap-global="true">
    <inkscape:grid
       empspacing="5"
       visible="true"
       enabled="true"
       snapvisiblegridlinesonly="false"
       type="xygrid"
       id="grid3073"
       spacingx="10px"
       spacingy="10px" />
    <sodipodi:guide
       orientation="0,1"
       position="601.86424,356.07132"
       id="guide3899" />
    <sodipodi:guide
       orientation="0,1"
       position="558.65171,405.85217"
       id="guide3000" />
  </sodipodi:namedview>
  <defs
     id="defs4" />
  <metadata
     id="metadata7">
    <rdf:RDF>
      <cc:Work
         rdf:about="">
        <dc:format>image/svg+xml</dc:format>
        <dc:type
           rdf:resource="http://purl.org/dc/dcmitype/StillImage" />
        <dc:title />
      </cc:Work>
    </rdf:RDF>
  </metadata>
  <g
     inkscape:label="Layer 1"
     inkscape:groupmode="layer"
     id="layer1"
     transform="translate(0,-308.26769)">
    <path
       inkscape:connector-curvature="0"
       style="font-size:145.6787262px;font-style:italic;font-variant:normal;font-weight:bold;font-stretch:normal;text-align:start;line-height:125%;letter-spacing:0px;word-spacing:0px;writing-mode:lr-tb;text-anchor:start;fill:#000000;fill-opacity:1;stroke:none;font-family:Impact;-inkscape-font-specification:Impact Bold Italic"
       d="m 258.19851,586.49748 c -3.47635,-0.57638 -6.36971,-0.49264 -8.63618,0.27067 -2.29759,0.75108 -3.83262,2.07576 -4.5987,3.99059 -0.76234,1.94984 -0.90908,4.12252 -0.4611,6.5006 0.4169,2.37584 1.26719,6.02742 2.42158,11.00128 1.24491,6.82563 2.13653,13.75905 2.67273,20.78921 0.17583,7.15915 0.52732,12.58668 1.25546,16.24791 0.65129,3.62896 2.22808,6.50753 4.74529,8.58194 2.481,2.04782 5.77979,3.05684 9.86967,3.06707 3.86182,0.01 7.20974,-1.12959 10.04326,-3.38247 2.78593,-2.215 4.64283,-4.78512 5.59404,-7.71488 0.9171,-2.90609 1.48473,-7.82187 1.51476,-14.72216 -0.0138,-0.8577 -0.032,-1.71406 -0.0546,-2.56906 -4.36885,-0.36488 -8.83277,-0.73769 -13.39491,-1.11871 0.11112,2.87151 0.16852,5.75764 0.17179,8.65762 -0.0834,3.82003 -0.35242,6.23768 -0.72549,7.26633 -0.35877,1.03275 -1.05443,1.53275 -2.07918,1.49563 -1.07373,-0.0387 -1.73028,-0.59287 -1.98499,-1.6605 -0.26283,-1.06803 -0.32571,-3.31713 -0.25281,-6.75572 -0.32086,-10.83583 -1.41592,-21.45116 -3.27312,-31.80476 -0.75993,-3.32071 -1.12892,-5.43441 -1.06284,-6.37161 0.0849,-0.92886 0.74877,-1.29452 2.00056,-1.10718 1.10125,0.16495 1.91648,0.66752 2.44198,1.52749 0.53053,0.83745 1.17859,2.89266 1.89111,6.16524 0.74106,3.79383 1.38177,7.62736 1.92183,11.49842 4.65772,0.51652 9.21332,1.02172 13.67013,1.51597 -0.22156,-2.04673 -0.46868,-4.08339 -0.74126,-6.10964 -0.90588,-5.89611 -2.13453,-10.22661 -3.57759,-13.06671 -1.50137,-2.84855 -3.91883,-5.39202 -7.27197,-7.64445 -3.43796,-2.26421 -7.46796,-3.78006 -12.09945,-4.54812 0,0 0,0 0,0 m -129.01416,-19.9657 c 17.94739,27.82106 26.56886,57.39163 26.33988,88.17898 8.33536,0.056 16.414,0.10983 24.24759,0.16233 7.91874,0.0529 13.08926,-0.42762 15.68669,-1.43165 2.56204,-0.99169 4.52961,-2.85626 5.87451,-5.57932 1.27651,-2.70169 2.00502,-6.85594 2.02769,-12.45687 -0.0824,-2.55266 -0.2195,-5.09654 -0.41119,-7.63125 -0.56358,-5.29795 -1.90073,-9.24716 -3.91603,-11.91723 -2.11135,-2.71115 -5.5828,-4.86554 -10.41027,-6.45034 3.84496,-0.55651 6.18244,-1.66012 7.02191,-3.34078 0.84483,-1.65942 0.51607,-4.77596 -1.09138,-9.30918 -2.77598,-6.60927 -6.10066,-11.47166 -9.79526,-14.68579 -3.85597,-3.24043 -7.9575,-5.62543 -12.22125,-7.15947 -4.3629,-1.55293 -10.30913,-2.9561 -17.88006,-4.19873 -8.22915,-1.35041 -16.71599,-2.74347 -25.47283,-4.18066 0,0 0,0 0,0 m 69.56807,11.41765 c 7.61689,23.88396 9.67911,49.73866 5.81493,77.08956 6.17109,0.0413 12.18677,0.0816 18.05281,0.12084 0.90801,-4.79891 1.63376,-9.56745 2.18131,-14.30316 1.98262,0.084 3.94835,0.16729 5.89742,0.24984 0.047,4.6845 -0.0751,9.387 -0.36769,14.10492 5.46911,0.0367 10.80918,0.0723 16.02473,0.10729 -1.76282,-25.0463 -8.1929,-49.47038 -19.63263,-72.77863 -8.9617,-1.47083 -18.27817,-2.99988 -27.97088,-4.59068 0,0 0,0 0,0 m 83.21759,13.65789 c 3.96063,20.27317 5.30295,41.71526 3.86504,63.97566 4.13214,0.0278 8.18032,0.0548 12.14708,0.0813 0.94943,-9.27513 1.44283,-18.444 1.49939,-27.48151 1.52744,9.13672 2.59119,18.31672 3.20228,27.51297 3.92065,0.0263 7.7624,0.052 11.52763,0.0771 -1.16032,-11.36198 -2.96191,-22.71862 -5.43844,-34.0171 1.69183,-8.65696 3.10458,-17.00841 4.28968,-25.0455 -3.80727,-0.62504 -7.69257,-1.2625 -11.6583,-1.91336 -0.59545,7.10409 -1.40472,14.45748 -2.45969,22.05143 -0.78095,-7.84434 -1.88564,-15.51643 -3.30758,-22.99797 -4.45242,-0.7306 -9.00694,-1.47821 -13.66709,-2.2431 0,0 0,0 0,0 m 41.03499,6.82058 c -1.38003,7.86052 -2.93952,16.00847 -4.72696,24.43834 2.19181,10.98196 3.804,22.01403 4.86557,33.04819 0.80523,-5.54277 1.48053,-11.04417 2.03198,-16.49912 9.81309,0.59647 19.10998,1.16157 27.93034,1.6977 -0.41883,-7.79097 -0.9982,-15.54089 -1.73975,-23.23636 -7.80943,-1.033 -15.98929,-2.11499 -24.56658,-3.24956 -1.12525,-5.454 -2.38905,-10.85607 -3.7946,-16.19919 0,0 0,0 0,0 M 163.52124,584.07675 c 2.36966,0.37866 4.01947,0.74634 4.96655,1.12462 0.9421,0.37735 1.93351,1.11073 2.95866,2.19146 0.98543,1.04783 2.09039,2.83112 3.25653,5.33024 2.00548,4.77599 2.8318,7.66372 2.64389,8.6393 -0.21497,0.94581 -1.37554,1.29077 -3.45842,1.04583 -0.50651,-0.0597 -1.23098,-0.13432 -2.16295,-0.21099 -2.33987,-6.12786 -5.07193,-12.17031 -8.20426,-18.12048 0,0 0,0 0,0 m 57.29878,11.95108 c 4.48893,12.2133 7.35144,22.73807 9.14236,31.39651 -1.88947,-0.14323 -3.79459,-0.28755 -5.71553,-0.43316 -0.31552,-6.77278 -1.14523,-17.22362 -3.42683,-30.96333 0,0 0,0 0,0 m 135.06812,22.44696 c 0.64007,7.5886 1.1404,15.22543 1.50224,22.89864 2.46519,0.14982 4.89394,0.29749 7.28705,0.44293 -0.26799,-7.47318 -0.63833,-14.91822 -1.1117,-22.32601 -2.5195,-0.33325 -5.07839,-0.67175 -7.67759,-1.01556 0,0 0,0 0,0 m 11.88895,1.57262 c 0.38492,7.30894 0.68621,14.64891 0.9043,22.01232 2.3005,0.13982 4.56813,0.27769 6.8036,0.41355 -0.13602,-7.17714 -0.3238,-14.33906 -0.56352,-21.48085 -2.34583,-0.31028 -4.72702,-0.62526 -7.14438,-0.94502 0,0 0,0 0,0 m 11.06826,1.46406 c 0.16258,7.05027 0.28999,14.1145 0.3823,21.1893 2.15176,0.13077 4.27379,0.25979 6.36669,0.38699 -0.0203,-6.90091 -0.0484,-13.7994 -0.0842,-20.6947 -2.1895,-0.2896 -4.41087,-0.58345 -6.66483,-0.88159 0,0 0,0 0,0 M 175.43456,615.3357 c 3.08866,0.38799 5.04515,0.99694 5.91724,1.8274 0.86254,0.82888 1.5946,3.05672 2.1172,6.69184 0.31235,2.64659 0.56163,5.30312 0.74774,7.9692 0.12944,3.48057 -0.23742,5.65496 -1.01905,6.51403 -0.75903,0.86442 -2.55681,1.30046 -5.40717,1.29284 -0.18744,-8.18677 -0.97347,-16.2886 -2.35596,-24.29531 0,0 0,0 0,0 m 1.2794,59.12885 c -1.4744,0.0547 -2.8604,0.37748 -4.16591,0.97951 -1.31559,0.60523 -2.51065,1.44903 -3.55891,2.52975 -1.05232,1.08402 -1.87274,2.26406 -2.50007,3.55369 -0.64149,1.27865 -1.61558,3.45509 -2.97109,6.53245 -0.82347,1.74571 -1.67842,3.49238 -2.56524,5.23993 -1.67204,3.16127 -2.83625,5.37307 -3.42418,6.626 -0.60449,1.2524 -0.86809,2.39292 -0.78188,3.39652 0.0766,1.00044 0.55276,1.70467 1.43212,2.12381 0.88076,0.40456 2.08348,0.53139 3.60231,0.37849 1.59116,-0.16019 3.14778,-0.57292 4.6767,-1.24562 1.51557,-0.6693 2.93076,-1.55221 4.22156,-2.64602 1.28395,-1.09157 2.33828,-2.27009 3.14521,-3.5138 0.80515,-1.25587 1.97117,-3.37536 3.4619,-6.35086 0.81043,-1.68547 1.59229,-3.37028 2.34589,-5.05433 1.27939,-3.04263 2.05788,-5.17094 2.39331,-6.37998 0.32187,-1.20913 0.32512,-2.30242 0.0232,-3.30663 -0.31122,-1.00674 -0.9268,-1.75824 -1.85176,-2.22842 -0.92845,-0.48454 -2.09192,-0.68602 -3.48314,-0.63449 0,0 0,0 0,0 m 79.16124,-2.9339 c -2.55304,0.0947 -4.95746,0.74858 -7.21663,1.98521 -2.29518,1.25019 -4.35287,3.00861 -6.20612,5.26519 -1.88948,2.27083 -3.42448,4.74464 -4.61623,7.44676 -1.24964,2.67961 -3.23576,7.24774 -6.17348,13.67048 -1.85304,3.63806 -3.83322,7.26974 -5.94447,10.89349 -4.14402,6.51889 -7.17425,11.03854 -8.81126,13.57878 -1.70946,2.52841 -2.73386,4.76072 -3.01081,6.68318 -0.30834,1.90158 0.32107,3.17922 1.90064,3.83528 1.58842,0.62263 3.94768,0.67596 7.05771,0.16026 3.23311,-0.53612 6.49411,-1.5504 9.74429,-3.01484 3.18009,-1.45168 6.18414,-3.28486 8.98565,-5.49259 2.73878,-2.20499 4.99846,-4.50942 6.8078,-6.95673 1.77337,-2.47932 4.35135,-6.66954 7.54624,-12.57182 1.6756,-3.36178 3.25224,-6.73145 4.7326,-10.10758 2.42562,-6.10975 3.84984,-10.38647 4.44369,-12.8199 0.55155,-2.43629 0.55163,-4.66552 0.0183,-6.69212 -0.56122,-2.03829 -1.64848,-3.54186 -3.24647,-4.50572 -1.61308,-0.99831 -3.61648,-1.44604 -6.01148,-1.35734 0,0 0,0 0,0 m 112.08924,-4.15429 c -1.92326,0.0713 -3.61694,0.90405 -5.07275,2.53582 -1.47734,1.63072 -2.50085,3.42423 -3.06129,5.34932 -0.57248,1.9306 -1.22156,5.01184 -1.96958,9.25011 -0.8215,4.39414 -1.70142,8.7887 -2.64281,13.18079 -0.68817,3.04752 -1.15052,5.32262 -1.38254,6.83147 -0.23651,1.48859 -0.24745,2.88314 -0.02,4.16925 0.2261,1.28092 0.77529,2.30002 1.64986,3.05192 0.87671,0.72985 1.95252,0.99097 3.22104,0.78063 1.05758,-0.17538 2.04761,-0.66453 2.97063,-1.44484 0.9147,-0.79478 1.76856,-1.88782 2.5489,-3.28677 3e-4,0.98445 -2.9e-4,1.96732 -0.003,2.94868 1.51402,-0.24915 3.01398,-0.49544 4.50005,-0.73978 1.45737,-7.54443 2.78124,-15.09206 3.98621,-22.63013 -2.53004,0.27756 -5.10095,0.55958 -7.71374,0.8462 -0.38374,2.18657 -0.77952,4.37368 -1.18769,6.56101 0.46401,-0.0596 0.92671,-0.11912 1.38808,-0.1784 -0.32358,1.7017 -0.65481,3.40335 -0.99385,5.10476 -0.39728,2.00147 -0.76692,3.3706 -1.10573,4.09063 -0.33035,0.71895 -0.75359,1.11821 -1.27737,1.19822 -0.47974,0.073 -0.73217,-0.18753 -0.7564,-0.76931 -0.0231,-0.59991 0.17165,-1.86985 0.58606,-3.81572 1.37942,-6.94037 2.62883,-13.88096 3.75962,-20.8115 0.33994,-2.20834 0.61315,-3.58157 0.83681,-4.12476 0.22255,-0.54237 0.54096,-0.82791 0.94291,-0.85371 0.46251,-0.0296 0.70417,0.26954 0.7387,0.87937 0.034,0.60955 -0.12815,2.14068 -0.49883,4.59757 -0.19738,1.30064 -0.39839,2.60192 -0.60309,3.90377 2.19074,-0.21201 4.35185,-0.42115 6.48391,-0.62747 0.0859,-0.60634 0.17118,-1.21252 0.25584,-1.81853 0.47255,-3.43664 0.63892,-6.03955 0.51417,-7.80915 -0.12742,-1.78954 -0.7036,-3.30672 -1.74227,-4.56581 -1.03528,-1.27026 -2.48232,-1.87291 -4.35259,-1.80364 0,0 0,0 0,0 m -216.66775,8.66527 c -0.76388,2.11167 -1.57249,4.22561 -2.42633,6.34171 1.48508,-0.0765 2.962,-0.15207 4.43085,-0.22752 -3.79906,8.40386 -8.34863,16.83206 -13.69316,25.27721 2.65018,-0.26373 5.27489,-0.52482 7.87449,-0.78351 5.12944,-8.30687 9.50123,-16.59962 13.15702,-24.87047 1.42108,-0.0732 2.83454,-0.14552 4.24043,-0.21765 0.79435,-2.04467 1.54773,-4.0874 2.26059,-6.12808 -5.17641,0.19876 -10.45666,0.40142 -15.84389,0.60827 0,0 0,0 0,0 m 54.20846,-1.20375 c -9.52687,23.36867 -24.61885,46.6877 -46.50369,69.63857 6.37294,-1.048 12.59428,-2.07037 18.66938,-3.06913 9.07195,-9.20687 16.94547,-18.52208 23.73087,-27.91669 1.53761,-0.19122 3.06553,-0.38123 4.58387,-0.57012 -6.57999,9.29387 -14.20796,18.50722 -22.98851,27.61118 5.81153,-0.95568 11.49095,-1.88907 17.04272,-2.80172 17.09572,-21.07471 29.09258,-42.5679 36.83062,-64.16123 -4.28988,0.17357 -8.66204,0.35048 -13.11889,0.53081 -2.5261,7.97711 -5.60506,15.96689 -9.26594,23.95688 -1.43434,0.13667 -2.87739,0.2741 -4.32923,0.41244 3.76543,-8.07333 6.92873,-16.14563 9.52023,-24.20442 -4.63049,0.18732 -9.35337,0.37846 -14.17143,0.57338 0,0 0,0 0,0 m 67.29734,-2.72291 c -5.90174,19.57907 -14.76574,39.0451 -27.10748,58.10972 3.90444,-0.64193 7.74062,-1.27263 11.51031,-1.89219 7.79677,-12.19371 14.15951,-24.59955 19.24066,-37.13085 -3.69803,12.36258 -8.52695,24.51093 -14.57474,36.36382 2.57915,-0.42365 5.12728,-0.84291 7.64498,-1.25681 8.46221,-12.32152 15.46006,-24.76657 21.18572,-37.24577 -4.49615,12.33075 -10.11804,24.54485 -16.99599,36.55701 3.42796,-0.56359 6.79972,-1.11794 10.11664,-1.66307 8.84191,-17.44912 15.35344,-35.22648 19.85524,-53.09108 -4.07094,0.16474 -8.22894,0.33299 -12.47682,0.50483 -2.84318,8.71182 -6.20637,17.46801 -10.13532,26.24489 1.29192,-4.6903 2.43599,-9.40238 3.4352,-14.13232 0.85065,-4.56389 1.44782,-8.54289 1.83632,-11.91578 -4.41256,0.17851 -8.92304,0.36105 -13.53472,0.54763 0,0 0,0 0,0 m 34.55639,-1.39818 c -4.34498,17.66112 -10.5956,35.24019 -19.05368,52.50309 6.28692,-1.03368 12.37934,-2.03507 18.28615,-3.00607 1.54403,-3.27478 3.00952,-6.56743 4.39899,-9.87595 -2.35042,0.34785 -4.73028,0.70006 -7.14016,1.05677 1.56562,-3.71669 3.03601,-7.44899 4.41436,-11.19439 1.95105,-0.24264 3.88218,-0.48281 5.79369,-0.72056 1.05153,-3.19589 2.04366,-6.39764 2.97798,-9.60386 -1.85026,0.18458 -3.71904,0.37101 -5.60663,0.55936 0.92456,-3.25275 1.78979,-6.50776 2.59717,-9.7637 1.96097,-0.14142 3.9015,-0.28143 5.82193,-0.41993 0.7484,-3.37732 1.44092,-6.7525 2.07897,-10.12417 -4.7309,0.19143 -9.58551,0.38783 -14.56877,0.58946 0,0 0,0 0,0 m 17.54691,-0.70996 c -3.62849,16.69403 -8.69377,33.33713 -15.41945,49.73105 3.27627,-0.53883 6.49639,-1.068 9.66178,-1.58835 2.58845,-6.40677 4.9237,-12.86785 7.02102,-19.36962 0.76829,-0.0971 1.53333,-0.19383 2.29513,-0.29014 1.84164,-0.23282 3.4157,-0.79069 4.74415,-1.67622 1.3253,-0.88151 2.3719,-2.04129 3.13859,-3.47391 0.75311,-1.4297 1.49689,-3.64348 2.20025,-6.6643 0.30498,-1.37686 0.60219,-2.75383 0.8917,-4.13081 0.6107,-2.96337 0.93572,-5.14061 1.00018,-6.53096 0.059,-1.41095 -0.10501,-2.59581 -0.50041,-3.56197 -0.38681,-0.97011 -1.09898,-1.69632 -2.13305,-2.17777 -1.04038,-0.48506 -2.62021,-0.68289 -4.75964,-0.59637 -2.67261,0.10811 -5.38572,0.21792 -8.14025,0.32935 0,0 0,0 0,0 m 20.28194,-0.82063 c -4.16068,15.70111 -9.42903,31.53158 -16.06083,47.32291 3.04886,-0.50132 6.04641,-0.99396 8.99395,-1.47856 1.0704,-2.74986 2.09924,-5.50601 3.08795,-8.26735 0.96576,-0.14478 1.92616,-0.28876 2.88125,-0.43195 -0.652,2.69385 -1.33369,5.3789 -2.04573,8.0543 2.79932,-0.46033 5.55375,-0.913 8.26438,-1.35858 2.35852,-14.58094 4.08693,-29.36725 5.22527,-44.2594 -3.37875,0.13669 -6.82678,0.27624 -10.34624,0.41862 0,0 0,0 0,0 m 32.49798,-1.3149 c -1.77861,13.81312 -3.84484,27.72996 -6.28397,41.68814 3.95692,-0.65062 7.8163,-1.28495 11.58168,-1.90393 0.37534,-2.71482 0.7409,-5.42662 1.09729,-8.13495 -1.52917,0.22632 -3.07378,0.45488 -4.63407,0.68583 0.43579,-3.00937 0.85833,-6.01518 1.26851,-9.01684 1.27955,-0.15913 2.54852,-0.31694 3.80701,-0.47348 0.31376,-2.55979 0.62169,-5.11498 0.9243,-7.66534 -1.22776,0.12247 -2.46551,0.24599 -3.71337,0.37047 0.31663,-2.57147 0.62684,-5.13839 0.93113,-7.70054 1.30918,-0.0944 2.60721,-0.18807 3.89421,-0.28089 0.29748,-2.66066 0.59197,-5.3151 0.88405,-7.96322 -3.18347,0.12881 -6.43499,0.26037 -9.75677,0.39477 0,0 0,0 0,0 m -202.6903,11.66255 c 0.42198,-0.0204 0.62431,0.15663 0.61135,0.54491 -0.0119,0.37592 -0.27651,1.25147 -0.81732,2.64576 -1.94357,4.59569 -4.09876,9.1978 -6.472,13.80479 -0.97366,1.77242 -1.67707,2.91266 -2.08718,3.3964 -0.40165,0.48304 -0.84838,0.75016 -1.3402,0.79498 -0.48129,0.0438 -0.6764,-0.1313 -0.57086,-0.53014 0.10395,-0.39905 0.66306,-1.47381 1.63276,-3.22957 2.4478,-4.71124 4.66635,-9.41741 6.66254,-14.1169 0.61145,-1.5502 1.0665,-2.48642 1.36808,-2.80526 0.31355,-0.33128 0.6552,-0.48775 1.01283,-0.50497 0,0 0,0 0,0 m 78.02127,2.4028 c 0.73608,-0.0472 1.09622,0.33225 1.06808,1.12622 -0.028,0.76811 -0.53299,2.57671 -1.54152,5.43063 -3.82698,9.38588 -8.4151,18.73475 -13.82474,28.01753 -2.32205,3.54613 -4.00469,5.81505 -4.93932,6.79288 -0.92562,0.97444 -1.87495,1.53378 -2.83495,1.68042 -0.94162,0.14351 -1.23218,-0.18164 -0.8912,-0.96156 0.33515,-0.78181 1.7326,-2.93034 4.10203,-6.45926 5.72321,-9.52892 10.56158,-19.12687 14.58223,-28.76298 1.15684,-3.18981 1.9686,-5.1041 2.50488,-5.76349 0.55499,-0.68457 1.14967,-1.06029 1.77451,-1.10039 0,0 0,0 0,0 m 78.39832,-3.92756 c 1.0406,-0.0703 1.67127,0.14223 1.89761,0.61849 0.22541,0.47532 0.17774,1.54054 -0.16776,3.19342 -0.29546,1.32376 -0.59867,2.64755 -0.90972,3.9713 -0.42825,1.79275 -0.85912,2.99593 -1.29165,3.60305 -0.43319,0.58852 -1.03147,0.92129 -1.79163,1.00088 -0.17086,0.0179 -0.37442,0.0278 -0.60885,0.0329 1.03648,-4.13851 1.9929,-8.27943 2.872,-12.42006 0,0 0,0 0,0 m 17.60789,1.19974 c -1.10747,7.59927 -2.12511,13.96305 -2.9831,19.08971 -0.87979,0.1159 -1.76411,0.2324 -2.65301,0.34949 1.21556,-4.09912 3.15374,-10.58947 5.63611,-19.43918 0,0 0,0 0,0 m -226.55168,43.44811 c -10.21306,10.69593 -22.15659,21.37209 -36.043225,32.00963 2.982098,-0.48457 5.934789,-0.96338 8.858525,-1.43837 9.01239,-6.88923 17.18761,-13.80167 24.58878,-20.73123 -6.27217,6.76294 -13.23005,13.47721 -20.920124,20.13557 2.032234,-0.3297 4.050514,-0.6581 6.054964,-0.98329 9.86448,-7.0833 18.81339,-14.16418 26.92436,-21.23712 -7.08161,6.92144 -14.91281,13.82041 -23.55409,20.68991 2.76909,-0.44997 5.51185,-0.89472 8.22869,-1.33611 12.01374,-10.02617 22.39458,-20.11564 31.30985,-30.24624 -3.44801,0.42509 -6.9403,0.85554 -10.47772,1.29161 -4.85686,4.92908 -10.07012,9.86626 -15.66011,14.80997 2.3279,-2.58461 4.56169,-5.17577 6.70345,-7.77312 1.99485,-2.50422 3.65161,-4.69855 4.95777,-6.5439 -3.60948,0.44495 -7.2662,0.89572 -10.97112,1.35243 0,0 0,0 0,0 m 26.82454,-3.30671 c -3.60643,6.19953 -7.67173,12.33508 -12.2139,18.40028 -3.92704,3.57966 -8.06334,7.14935 -12.41775,10.70783 2.77478,-0.45062 5.52237,-0.89683 8.24319,-1.33841 4.17946,-3.50054 8.15163,-7.01285 11.92475,-10.53568 8.11805,-6.51019 15.54651,-12.99074 22.34113,-19.43783 -2.25628,0.27813 -4.53216,0.55867 -6.82792,0.84166 -4.72543,4.73846 -8.82835,8.72615 -12.17905,11.94747 1.72367,-1.98244 4.56156,-5.79723 8.24424,-11.46242 -2.3506,0.28975 -4.72208,0.58208 -7.11469,0.87701 0,0 0,0 0,0"
       id="path3027" />
    <path
       style="fill:none;stroke:#000000;stroke-width:1.98674405px;stroke-linecap:butt;stroke-linejoin:miter;stroke-opacity:1"
       d="m -126.9309,842.13041 600,0 0,199.99999 -600,0 c 79.999998,-49.99999 79.999998,-149.99999 0,-199.99999 z"
       id="path2986"
       inkscape:connector-curvature="0"
       sodipodi:nodetypes="ccccc" />
    <path
       inkscape:connector-curvature="0"
       id="path3187"
       d="m 650.17137,902.1908 0,-199.65726 451.50633,49.91431 0,99.82864 z"
       style="fill:none;stroke:#000000;stroke-width:1.34273243px;stroke-linecap:butt;stroke-linejoin:miter;stroke-opacity:1" />
  </g>
</svg>
