<?xml version="1.0" encoding="UTF-8" standalone="no"?>
<!-- Created with Inkscape (http://www.inkscape.org/) -->

<svg
   xmlns:dc="http://purl.org/dc/elements/1.1/"
   xmlns:cc="http://creativecommons.org/ns#"
   xmlns:rdf="http://www.w3.org/1999/02/22-rdf-syntax-ns#"
   xmlns:svg="http://www.w3.org/2000/svg"
   xmlns="http://www.w3.org/2000/svg"
   xmlns:xlink="http://www.w3.org/1999/xlink"
   xmlns:sodipodi="http://sodipodi.sourceforge.net/DTD/sodipodi-0.dtd"
   xmlns:inkscape="http://www.inkscape.org/namespaces/inkscape"
   width="1052.3622"
   height="744.09448"
   id="svg2"
   version="1.1"
   inkscape:version="0.48+devel 12345"
   sodipodi:docname="back-to-my-homepage--final.svg">
  <sodipodi:namedview
     id="base"
     pagecolor="#ffffff"
     bordercolor="#666666"
     borderopacity="1.0"
     inkscape:pageopacity="0.0"
     inkscape:pageshadow="2"
     inkscape:zoom="0.41862964"
     inkscape:cx="348.14616"
     inkscape:cy="204.03934"
     inkscape:document-units="px"
     inkscape:current-layer="layer1"
     showgrid="false"
     inkscape:window-width="1439"
     inkscape:window-height="827"
     inkscape:window-x="87"
     inkscape:window-y="123"
     inkscape:window-maximized="0"
     showguides="false"
     inkscape:guide-bbox="true"
     inkscape:snap-global="true">
    <inkscape:grid
       empspacing="5"
       visible="true"
       enabled="true"
       snapvisiblegridlinesonly="false"
       type="xygrid"
       id="grid3073"
       spacingx="10px"
       spacingy="10px" />
    <sodipodi:guide
       orientation="0,1"
       position="601.86424,356.07132"
       id="guide3899" />
    <sodipodi:guide
       orientation="0,1"
       position="558.65171,405.85217"
       id="guide3000" />
  </sodipodi:namedview>
  <defs
     id="defs4">
    <linearGradient
       inkscape:collect="always"
       id="linearGradient4023">
      <stop
         style="stop-color:#0000ff;stop-opacity:1"
         offset="0"
         id="stop4025" />
      <stop
         id="stop816"
         offset="0.39461729"
         style="stop-color:#00deff;stop-opacity:1" />
      <stop
         id="stop15"
         offset="0.62063539"
         style="stop-color:#00deff;stop-opacity:1" />
      <stop
         style="stop-color:#0000ff;stop-opacity:1"
         offset="1"
         id="stop4027" />
    </linearGradient>
    <linearGradient
       inkscape:collect="always"
       xlink:href="#linearGradient4023"
       id="linearGradient4029"
       x1="381.43741"
       y1="337.12393"
       x2="381.43741"
       y2="825.6225"
       gradientUnits="userSpaceOnUse"
       gradientTransform="matrix(1,0,0,0.6825533,0,262.75799)" />
  </defs>
  <metadata
     id="metadata7">
    <rdf:RDF>
      <cc:Work
         rdf:about="">
        <dc:format>image/svg+xml</dc:format>
        <dc:type
           rdf:resource="http://purl.org/dc/dcmitype/StillImage" />
        <dc:title />
      </cc:Work>
    </rdf:RDF>
  </metadata>
  <g
     inkscape:label="Layer 1"
     inkscape:groupmode="layer"
     id="layer1"
     transform="translate(0,-308.26769)">
    <path
       inkscape:connector-curvature="0"
       style="font-size:145.6787262px;font-style:italic;font-variant:normal;font-weight:bold;font-stretch:normal;text-align:start;line-height:125%;letter-spacing:0px;word-spacing:0px;writing-mode:lr-tb;text-anchor:start;fill:url(#linearGradient4029);fill-opacity:1;stroke:#a5a5a5;font-family:Homa;-inkscape-font-specification:Homa Bold Italic;stroke-opacity:1;stroke-width:2.7;stroke-miterlimit:4;stroke-dasharray:none"
       d="m 470.8945,529.30435 c -9.03789,-1.02279 -16.56011,-0.8742 -22.45253,0.48031 -5.97332,1.3328 -9.96412,3.68347 -11.9558,7.08137 -1.98194,3.46002 -2.36344,7.31548 -1.19877,11.53543 1.08386,4.21596 3.29446,10.69575 6.29567,19.52195 3.23655,12.1122 5.5546,24.41566 6.94862,36.8908 0.45713,12.70403 1.37094,22.33527 3.26398,28.83219 1.69323,6.43965 5.79261,11.54772 12.3369,15.22879 6.45016,3.6339 15.02643,5.42441 25.65938,5.44256 10.04005,0.0178 18.74404,-2.00446 26.11069,-6.00224 7.24292,-3.93056 12.07053,-8.49127 14.5435,-13.69018 2.3843,-5.1569 3.86004,-13.88005 3.93811,-26.12472 -0.0359,-1.522 -0.0832,-3.04163 -0.14195,-4.55884 -11.35823,-0.64748 -22.96363,-1.30904 -34.82438,-1.98518 0.28889,5.09556 0.43812,10.21703 0.44663,15.36309 -0.21683,6.77872 -0.91623,11.06887 -1.88615,12.89423 -0.93274,1.83264 -2.74133,2.7199 -5.4055,2.65402 -2.7915,-0.0687 -4.49842,-1.05205 -5.16062,-2.94658 -0.68331,-1.89523 -0.84678,-5.88631 -0.65726,-11.98814 -0.83418,-19.22836 -3.68114,-38.06545 -8.50952,-56.43808 -1.97569,-5.89265 -2.93499,-9.64345 -2.7632,-11.30653 0.22073,-1.64827 1.94667,-2.29715 5.2011,-1.96471 2.86305,0.29271 4.98251,1.18453 6.34871,2.71056 1.37929,1.48607 3.06413,5.13307 4.91655,10.94032 1.92662,6.73221 3.59236,13.53488 4.99642,20.40414 12.10924,0.91657 23.95298,1.81306 35.53989,2.69011 -0.57601,-3.63195 -1.21848,-7.24605 -1.92714,-10.84165 -2.35513,-10.46276 -5.5494,-18.14729 -9.3011,-23.1871 -3.90329,-5.0548 -10.18825,-9.56823 -18.90582,-13.5652 -8.93808,-4.01788 -19.41536,-6.70778 -31.45641,-8.07072 0,0 0,0 0,0 M 135.4807,493.87488 c 46.66001,49.36893 69.07429,101.8424 68.47898,156.47508 21.67047,0.0993 42.67349,0.1949 63.03942,0.28806 20.58731,0.0939 34.02974,-0.75882 40.7826,-2.54049 6.66084,-1.75977 11.77618,-5.06848 15.27268,-9.9006 3.31869,-4.79419 5.21269,-12.16598 5.27163,-22.10492 -0.21423,-4.52973 -0.57066,-9.04389 -1.06902,-13.54179 -1.46521,-9.40129 -4.94156,-16.40923 -10.18098,-21.14732 -5.48914,-4.81098 -14.51429,-8.63398 -27.06485,-11.44623 9.99621,-0.98754 16.07324,-2.94591 18.25572,-5.92827 2.1964,-2.94467 1.34169,-8.47503 -2.8374,-16.5193 -7.21705,-11.72826 -15.86062,-20.35665 -25.46592,-26.06018 -10.02484,-5.7502 -20.68808,-9.98243 -31.77307,-12.7046 -11.34276,-2.7557 -26.8019,-5.24565 -46.48498,-7.45072 -21.39432,-2.39632 -43.45859,-4.86834 -66.22481,-7.41865 0,0 0,0 0,0 m 180.86458,20.26081 c 19.80255,42.38249 25.16395,88.26208 15.11778,136.79672 16.04373,0.0733 31.68342,0.1448 46.93408,0.21444 2.36066,-8.51575 4.24748,-16.97761 5.67102,-25.3812 5.15446,0.14906 10.265,0.29685 15.33224,0.44334 0.12219,8.31273 -0.19525,16.65739 -0.95593,25.02942 14.21871,0.0651 28.10194,0.12829 41.66144,0.19039 -4.58302,-44.44508 -21.30008,-87.78603 -51.04134,-129.1469 -23.29882,-2.61002 -47.51998,-5.32335 -72.71929,-8.14625 0,0 0,0 0,0 m 216.35088,24.23616 c 10.29693,35.97508 13.78672,74.02443 10.04841,113.52588 10.74283,0.0494 21.26737,0.0973 31.58024,0.14427 2.46835,-16.45887 3.7511,-32.72918 3.89815,-48.7664 3.97107,16.21327 6.73663,32.50333 8.32535,48.82222 10.19299,0.0467 20.18086,0.0923 29.96979,0.13682 -3.01663,-20.16202 -7.70044,-40.31457 -14.13898,-60.36392 4.39846,-15.36192 8.07136,-30.1817 11.1524,-44.44365 -9.89822,-1.10914 -19.9993,-2.24032 -30.30949,-3.39529 -1.54807,12.60632 -3.65203,25.65504 -6.39476,39.13063 -2.03033,-13.91991 -4.90233,-27.53416 -8.59912,-40.81029 -11.57549,-1.29646 -23.41643,-2.6231 -35.53199,-3.98041 0,0 0,0 0,0 m 106.68365,12.10324 c -3.58783,13.94862 -7.64223,28.40729 -12.28925,43.36624 5.69831,19.48767 9.88972,39.06426 12.64961,58.64456 2.09345,-9.83573 3.84911,-19.59806 5.28278,-29.27796 25.51229,1.05845 49.68254,2.06122 72.6139,3.01259 -1.08888,-13.8252 -2.59514,-27.57756 -4.52304,-41.23331 -20.30312,-1.83306 -41.5693,-3.75307 -63.86872,-5.76639 -2.92545,-9.67822 -6.2111,-19.26428 -9.86528,-28.74573 0,0 0,0 0,0 M 224.7505,525.00872 c 6.16069,0.67194 10.4499,1.32439 12.91214,1.99565 2.44929,0.66962 5.02678,1.97102 7.69199,3.8888 2.56194,1.85939 5.43464,5.02386 8.46639,9.4586 5.21389,8.47507 7.36218,13.59939 6.87365,15.33058 -0.55889,1.67835 -3.57616,2.29049 -8.99128,1.85584 -1.31683,-0.10594 -3.20033,-0.23835 -5.62328,-0.37441 -6.08325,-10.87399 -13.18611,-21.59642 -21.32961,-32.15509 0,0 0,0 0,0 m 148.9666,21.20739 c 11.67041,21.67271 19.11243,40.34909 23.7685,55.71364 -4.91228,-0.25417 -9.86525,-0.51027 -14.85936,-0.76865 -0.82029,-12.01842 -2.97739,-30.5636 -8.90914,-54.94495 0,0 0,0 0,0 m 351.153,39.8325 c 1.66407,13.4661 2.96484,27.01778 3.90556,40.63403 6.40905,0.26585 12.72337,0.52789 18.94503,0.78598 -0.69673,-13.26128 -1.65955,-26.47263 -2.89022,-39.61788 -6.55025,-0.59135 -13.20291,-1.19203 -19.96037,-1.80213 0,0 0,0 0,0 m 30.90915,2.79065 c 1.00072,12.96983 1.78402,25.99473 2.35102,39.06123 5.98089,0.24811 11.87632,0.49275 17.68815,0.73385 -0.35363,-12.73596 -0.84183,-25.4449 -1.46506,-38.11814 -6.09874,-0.55059 -12.2894,-1.10952 -18.57411,-1.67694 0,0 0,0 0,0 m 28.7755,2.598 c 0.42268,12.51082 0.75392,25.0464 0.99391,37.60076 5.5942,0.23205 11.11109,0.461 16.55226,0.68672 -0.0528,-12.24578 -0.12583,-24.48726 -0.2189,-36.72308 -5.69231,-0.51391 -11.46748,-1.03535 -17.32737,-1.5644 0,0 0,0 0,0 M 255.723,580.47825 c 8.02997,0.6885 13.11649,1.76909 15.38377,3.24276 2.24245,1.47086 4.14568,5.42419 5.50434,11.87478 0.81206,4.69642 1.46014,9.41047 1.94399,14.14147 0.33652,6.17634 -0.61725,10.03483 -2.64935,11.55927 -1.97334,1.53392 -6.64725,2.30768 -14.05767,2.29416 -0.48731,-14.52756 -2.53085,-28.90439 -6.12508,-43.11244 0,0 0,0 0,0 m 3.32621,104.92514 c -3.83317,0.097 -7.43653,0.66984 -10.83062,1.73816 -3.4203,1.07399 -6.52724,2.57133 -9.25253,4.48908 -2.73584,1.92361 -4.86879,4.01761 -6.49974,6.30608 -1.66775,2.26899 -4.20022,6.13111 -7.7243,11.59195 -2.14087,3.09779 -4.3636,6.19729 -6.66918,9.29833 -4.347,5.60974 -7.37374,9.53461 -8.90226,11.75796 -1.57156,2.22241 -2.25687,4.24628 -2.03274,6.02718 0.19914,1.7753 1.43707,3.02496 3.72325,3.76873 2.28982,0.71791 5.41668,0.94296 9.36537,0.67164 4.13674,-0.28426 8.18368,-1.01665 12.15859,-2.21038 3.94022,-1.18767 7.61946,-2.75442 10.97531,-4.6954 3.33804,-1.93701 6.07911,-4.02831 8.17698,-6.2353 2.09325,-2.22856 5.12469,-5.98962 9.00032,-11.2697 2.10698,-2.9909 4.13967,-5.98062 6.0989,-8.969 3.32618,-5.39919 5.35012,-9.17592 6.22218,-11.32138 0.8368,-2.14561 0.84525,-4.08568 0.0603,-5.86767 -0.80911,-1.78647 -2.40951,-3.12002 -4.81424,-3.95436 -2.41381,-0.85984 -5.43862,-1.21736 -9.05554,-1.12592 0,0 0,0 0,0 m 205.80509,-5.20626 c -6.63745,0.16805 -12.88851,1.32837 -18.76195,3.52279 -5.96706,2.21848 -11.31668,5.33883 -16.1348,9.34317 -4.91231,4.02962 -8.90304,8.41945 -12.00138,13.2144 -3.24884,4.75501 -8.4124,12.86124 -16.04994,24.25849 -4.81758,6.45581 -9.96569,12.90029 -15.45456,19.33068 -10.77372,11.56789 -18.65177,19.58808 -22.90771,24.09578 -4.44429,4.48671 -7.10755,8.44798 -7.82757,11.85942 -0.80163,3.37438 0.83473,5.64158 4.94133,6.80577 4.12961,1.10486 10.26326,1.1995 18.34878,0.28437 8.40551,-0.95134 16.88353,-2.75121 25.33342,-5.34987 8.26767,-2.57603 16.07766,-5.82905 23.36109,-9.7467 7.12033,-3.9128 12.9951,-8.00204 17.69906,-12.34483 4.61045,-4.3996 11.31273,-11.83521 19.61888,-22.3089 4.35626,-5.96554 8.45524,-11.94508 12.30391,-17.93608 6.30618,-10.84185 10.0089,-18.43096 11.5528,-22.74913 1.43394,-4.32324 1.43414,-8.27905 0.0476,-11.87527 -1.45907,-3.61698 -4.28575,-6.28509 -8.44024,-7.99547 -4.19372,-1.77152 -9.4022,-2.56603 -15.62878,-2.40863 0,0 0,0 0,0 m 291.41201,-7.37186 c -5.00013,0.12652 -9.4034,1.60425 -13.18824,4.49985 -3.84082,2.89374 -6.50177,6.07635 -7.95881,9.49247 -1.48835,3.42588 -3.17584,8.89358 -5.12056,16.41447 -2.13575,7.79747 -4.42339,15.59569 -6.87083,23.38953 -1.78912,5.40787 -2.99115,9.44509 -3.59436,12.12256 -0.61488,2.64153 -0.64332,5.11618 -0.052,7.39841 0.58782,2.27301 2.01562,4.08142 4.28935,5.41567 2.27929,1.29514 5.0762,1.7585 8.37413,1.38525 2.74951,-0.31122 5.32342,-1.17922 7.7231,-2.5639 2.37806,-1.41034 4.59794,-3.34996 6.62669,-5.83242 7.8e-4,1.74691 -7.6e-4,3.49104 -0.008,5.23247 3.93618,-0.4421 7.83581,-0.87915 11.69933,-1.31274 3.7889,-13.38773 7.23072,-26.78112 10.36343,-40.15755 -6.57765,0.49253 -13.26156,0.99298 -20.05435,1.50161 -0.99765,3.8801 -2.02661,7.76115 -3.08778,11.64261 1.20634,-0.10572 2.40928,-0.21138 3.60876,-0.31658 -0.84125,3.01971 -1.70239,6.0393 -2.58383,9.05849 -1.03286,3.55164 -1.99386,5.98118 -2.8747,7.25889 -0.85885,1.27579 -1.9592,1.98428 -3.32094,2.12626 -1.24723,0.12954 -1.90351,-0.33277 -1.9665,-1.36516 -0.0601,-1.06454 0.44626,-3.31807 1.52365,-6.77105 3.58625,-12.31581 6.83449,-24.632 9.77434,-36.93036 0.88378,-3.91873 1.59408,-6.35555 2.17556,-7.31945 0.57859,-0.96245 1.4064,-1.46914 2.4514,-1.51492 1.20244,-0.0525 1.83071,0.4783 1.92048,1.56045 0.0884,1.08166 -0.33316,3.79868 -1.29687,8.15846 -0.51315,2.30801 -1.03574,4.61715 -1.56792,6.92731 5.69553,-0.37621 11.31403,-0.74734 16.85701,-1.11346 0.22332,-1.07595 0.44503,-2.15164 0.66514,-3.227 1.22854,-6.09838 1.66107,-10.71729 1.33675,-13.85748 -0.33127,-3.17556 -1.82924,-5.86782 -4.5296,-8.1021 -2.69154,-2.25409 -6.45358,-3.32351 -11.31595,-3.20059 0,0 0,0 0,0 m -563.29749,15.37666 c -1.98596,3.7472 -4.0882,7.49842 -6.30803,11.25347 3.86094,-0.13574 7.70067,-0.26984 11.51942,-0.40374 -9.87688,14.91281 -21.70495,29.86878 -35.59977,44.85485 6.88999,-0.468 13.71377,-0.9313 20.47227,-1.39035 13.33562,-14.74069 24.7015,-29.45631 34.2059,-44.13308 3.69455,-0.12989 7.36931,-0.25822 11.02437,-0.38622 2.06517,-3.6283 4.02383,-7.25315 5.87713,-10.87438 -13.45775,0.3527 -27.18546,0.71233 -41.19129,1.07938 0,0 0,0 0,0 m 140.93233,-2.13606 c -24.76816,41.46809 -64.00462,82.8481 -120.90131,123.5748 16.56852,-1.85969 32.7429,-3.6739 48.53707,-5.44622 23.58545,-16.33775 44.0552,-32.86775 61.69603,-49.53863 3.99751,-0.33933 7.96983,-0.67651 11.91724,-1.01169 -17.1068,16.49213 -36.93816,32.84137 -59.76602,48.9965 15.10894,-1.69588 29.87442,-3.35218 44.30803,-4.9717 44.44582,-37.39743 75.63551,-75.53745 95.75304,-113.85518 -11.15293,0.308 -22.51976,0.62194 -34.10678,0.94194 -6.5674,14.15551 -14.57215,28.33351 -24.08979,42.51188 -3.72902,0.24252 -7.4807,0.48639 -11.25522,0.73188 9.78944,-14.32626 18.01346,-28.65069 24.7509,-42.95115 -12.03845,0.3324 -24.31709,0.67158 -36.84319,1.01748 0,0 0,0 0,0 m 174.96107,-4.83185 c -15.34347,34.74339 -38.38829,69.28618 -70.47461,103.11666 10.15085,-1.13911 20.12423,-2.2583 29.92475,-3.35772 20.27021,-21.63794 36.8122,-43.65232 50.02229,-65.88931 -9.61422,21.9376 -22.16855,43.49505 -37.89173,64.5282 6.70533,-0.75177 13.33002,-1.49575 19.87559,-2.23023 22.00023,-21.86473 40.19339,-43.94869 55.07909,-66.09324 -11.68919,21.88113 -26.3051,43.55526 -44.18654,64.87103 8.91208,-1.00011 17.67806,-1.98381 26.30146,-2.95115 22.98738,-30.96375 39.9162,-62.50997 51.62008,-94.21101 -10.58372,0.29234 -21.39378,0.5909 -32.43751,0.89583 -7.39176,15.45927 -16.13545,30.99729 -26.35002,46.57199 3.35876,-8.323 6.33314,-16.68467 8.9309,-25.07803 2.21154,-8.0987 3.76408,-15.1595 4.77411,-21.14475 -11.47187,0.31677 -23.19831,0.64068 -35.18786,0.97178 0,0 0,0 0,0 m 89.84045,-2.4811 c -11.29617,31.33996 -27.54667,62.53431 -49.53617,93.16762 16.34487,-1.83428 32.18408,-3.61127 47.54073,-5.33432 4.0142,-5.81116 7.82421,-11.65402 11.43659,-17.52504 -6.11068,0.61726 -12.29789,1.24226 -18.56315,1.87525 4.07034,-6.59533 7.89309,-13.21836 11.47655,-19.86462 5.07238,-0.43057 10.09298,-0.85677 15.06256,-1.27865 2.73379,-5.67116 5.31315,-11.35272 7.74222,-17.04221 -4.81035,0.32754 -9.66884,0.65835 -14.57624,0.99258 2.40369,-5.77205 4.65314,-11.54812 6.75218,-17.32584 5.09817,-0.25096 10.1432,-0.4994 15.13598,-0.74518 1.94571,-5.99311 3.74613,-11.98242 5.40495,-17.96551 -12.2995,0.3397 -24.92062,0.68822 -37.8762,1.04601 0,0 0,0 0,0 m 45.61883,-1.25984 c -9.43342,29.62385 -22.60225,59.15731 -40.08782,88.24859 8.51772,-0.95616 16.88946,-1.89519 25.11891,-2.81855 6.72951,-11.36893 12.80074,-22.83423 18.2534,-34.37172 1.99741,-0.1723 3.98638,-0.34395 5.96693,-0.51486 4.78793,-0.41314 8.88021,-1.40309 12.33394,-2.97448 3.44554,-1.56425 6.16652,-3.62231 8.15977,-6.16452 1.95795,-2.53702 3.89165,-6.46541 5.72026,-11.82591 0.79289,-2.44325 1.56559,-4.88672 2.31826,-7.33019 1.58771,-5.25854 2.43271,-9.1221 2.60029,-11.5893 0.15339,-2.50375 -0.27301,-4.6063 -1.30098,-6.32076 -1.00563,-1.72149 -2.85715,-3.01015 -5.54555,-3.8645 -2.7048,-0.86074 -6.81207,-1.21179 -12.37421,-1.05826 -6.94831,0.19184 -14.00191,0.3867 -21.1632,0.58443 0,0 0,0 0,0 m 52.72943,-1.45622 c -10.81703,27.86188 -24.5138,55.95331 -41.75529,83.9753 7.92649,-0.88961 15.71958,-1.7638 23.38266,-2.62374 2.78285,-4.87967 5.45765,-9.7705 8.02812,-14.67054 2.5108,-0.25692 5.00767,-0.51241 7.49073,-0.7665 -1.69508,4.78028 -3.46735,9.54494 -5.31853,14.29248 7.27773,-0.81686 14.43876,-1.62014 21.48591,-2.41082 6.13174,-25.87413 10.62529,-52.11267 13.58477,-78.53904 -8.78414,0.24255 -17.74841,0.49019 -26.89837,0.74284 0,0 0,0 0,0 m 84.48894,-2.33332 c -4.62406,24.51162 -9.99589,49.20728 -16.3372,73.97631 10.28729,-1.15454 20.32099,-2.28017 30.1103,-3.37856 0.97582,-4.81749 1.92621,-9.62962 2.85276,-14.4356 -3.97557,0.40161 -7.99128,0.80719 -12.04775,1.21702 1.13297,-5.34018 2.2315,-10.67404 3.2979,-16.00054 3.3266,-0.28237 6.62569,-0.56241 9.89754,-0.8402 0.81572,-4.54238 1.61629,-9.07661 2.40302,-13.60227 -3.19196,0.21732 -6.40989,0.43652 -9.6541,0.65741 0.82318,-4.56312 1.62967,-9.11816 2.42077,-13.66474 3.40364,-0.16751 6.77828,-0.33374 10.12425,-0.49844 0.7734,-4.72139 1.53902,-9.43174 2.29838,-14.13087 -8.27646,0.22857 -16.72983,0.46203 -25.36587,0.70053 0,0 0,0 0,0 m -526.9586,20.69539 c 1.09707,-0.0361 1.6231,0.27794 1.5894,0.96695 -0.0309,0.66707 -0.71888,2.22074 -2.12488,4.69494 -5.05294,8.15513 -10.65605,16.32166 -16.82605,24.49683 -2.53134,3.14519 -4.36008,5.16857 -5.4263,6.02697 -1.04421,0.85716 -2.20563,1.33117 -3.48428,1.41071 -1.25126,0.0777 -1.75852,-0.233 -1.48413,-0.94074 0.27025,-0.70813 1.72384,-2.6153 4.24488,-5.73094 6.36385,-8.36016 12.13168,-16.71134 17.32142,-25.05067 1.58966,-2.75085 2.77271,-4.41219 3.55676,-4.97797 0.81518,-0.58787 1.70341,-0.86554 2.63318,-0.89608 0,0 0,0 0,0 m 202.84138,4.2638 c 1.91367,-0.0838 2.84997,0.58959 2.77681,1.9985 -0.0728,1.36303 -1.38567,4.57241 -4.00767,9.63675 -9.94947,16.65539 -21.87776,33.24512 -35.94186,49.71757 -6.03691,6.29267 -10.41148,10.31891 -12.84135,12.05408 -2.40645,1.72916 -4.87453,2.72172 -7.37036,2.98193 -2.44805,0.25466 -3.20345,-0.32232 -2.31696,-1.7063 0.87133,-1.38733 4.50445,-5.19994 10.66454,-11.46206 14.87933,-16.90924 27.45822,-33.94095 37.9112,-51.04039 3.00757,-5.66038 5.11801,-9.05732 6.51224,-10.22742 1.44287,-1.21478 2.98893,-1.8815 4.61341,-1.95266 0,0 0,0 0,0 m 203.82164,-6.96952 c 2.70537,-0.12475 4.345,0.25239 4.93344,1.09752 0.58603,0.84346 0.4621,2.73372 -0.43614,5.66678 -0.76815,2.34903 -1.55644,4.69812 -2.36511,7.04714 -1.11338,3.18127 -2.23356,5.31633 -3.35806,6.39368 -1.12622,1.04433 -2.68164,1.63483 -4.65792,1.77606 -0.4442,0.0317 -0.97342,0.0494 -1.5829,0.0584 2.69466,-7.34386 5.18118,-14.69199 7.46669,-22.03961 0,0 0,0 0,0 m 45.77737,2.12896 c -2.87923,13.48504 -5.52491,24.77767 -7.75553,33.87501 -2.2873,0.20567 -4.58637,0.4124 -6.89735,0.62018 3.16024,-7.27395 8.19916,-18.79119 14.65288,-34.49515 0,0 0,0 0,0 m -588.99375,77.09942 c -26.552131,18.98011 -57.603177,37.92514 -93.70595,56.80163 7.752923,-0.85988 15.429392,-1.70953 23.030584,-2.55241 23.430605,-12.22506 44.684718,-24.4913 63.926436,-36.78792 -16.306519,12.00095 -34.395765,23.91554 -54.388585,35.7309 5.283445,-0.58506 10.530613,-1.1678 15.741825,-1.74486 25.645888,-12.56943 48.91146,-25.13458 69.99853,-37.68562 -18.41092,12.28221 -38.77064,24.52455 -61.236429,36.71459 7.19914,-0.79848 14.329826,-1.5877 21.393129,-2.37095 31.23358,-17.7916 58.22191,-35.69555 81.40002,-53.67246 -8.96421,0.75433 -18.04354,1.51817 -27.2402,2.29199 -12.62697,8.74673 -26.18052,17.50784 -40.71349,26.28054 6.05212,-4.58644 11.85958,-9.18449 17.42777,-13.79354 5.18625,-4.44377 9.49353,-8.33765 12.88932,-11.61225 -9.38401,0.78956 -18.89083,1.58946 -28.52296,2.39991 0,0 0,0 0,0 m 69.73902,-5.86782 c -9.37608,11.00117 -19.94513,21.88881 -31.75396,32.65161 -10.2096,6.35216 -20.96325,12.68664 -32.28394,19.00122 7.21394,-0.79964 14.35718,-1.59144 21.43083,-2.37503 10.86585,-6.21176 21.19278,-12.44442 31.00222,-18.69574 21.10548,-11.55244 40.41815,-23.05229 58.08296,-34.49276 -5.86592,0.49356 -11.7828,0.99137 -17.75138,1.49354 -12.28528,8.40848 -22.95214,15.48471 -31.66336,21.20099 4.48123,-3.51787 11.85924,-10.28728 21.43355,-20.34025 -6.11114,0.51417 -12.27656,1.0329 -18.49692,1.55627 0,0 0,0 0,0"
       id="path3027"
       inkscape:export-xdpi="26.742731"
       inkscape:export-ydpi="26.742731" />
  </g>
</svg>
