<?xml version="1.0" encoding="UTF-8" standalone="no"?>
<!-- Created with Inkscape (http://www.inkscape.org/) -->

<svg
   xmlns:dc="http://purl.org/dc/elements/1.1/"
   xmlns:cc="http://creativecommons.org/ns#"
   xmlns:rdf="http://www.w3.org/1999/02/22-rdf-syntax-ns#"
   xmlns:svg="http://www.w3.org/2000/svg"
   xmlns="http://www.w3.org/2000/svg"
   xmlns:sodipodi="http://sodipodi.sourceforge.net/DTD/sodipodi-0.dtd"
   xmlns:inkscape="http://www.inkscape.org/namespaces/inkscape"
   sodipodi:docname="back-to-my-homepage--enveloped.svg"
   inkscape:version="0.48+devel 12335"
   version="1.1"
   id="svg2"
   height="744.09448"
   width="1052.3622">
  <defs
     id="defs4">
    <inkscape:path-effect
       effect="envelope"
       id="path-effect3219"
       is_visible="true"
       yy="true"
       xx="true"
       bendpath1="m 134.875,139.0625 583.8125,0"
       bendpath2="m 718.6875,139.0625 0,242.875"
       bendpath3="m 134.875,381.9375 583.8125,0"
       bendpath4="m 134.875,139.0625 c 80.66673,85.13075 99.85692,167.08168 0,242.875"
       bendpath4-nodetypes="cc" />
  </defs>
  <sodipodi:namedview
     id="base"
     pagecolor="#ffffff"
     bordercolor="#666666"
     borderopacity="1.0"
     inkscape:pageopacity="0.0"
     inkscape:pageshadow="2"
     inkscape:zoom="0.85473017"
     inkscape:cx="546.65539"
     inkscape:cy="372.04724"
     inkscape:document-units="px"
     inkscape:current-layer="layer1"
     showgrid="true"
     inkscape:window-width="1439"
     inkscape:window-height="827"
     inkscape:window-x="273"
     inkscape:window-y="115"
     inkscape:window-maximized="0"
     showguides="true"
     inkscape:guide-bbox="true"
     inkscape:snap-global="true">
    <inkscape:grid
       empspacing="5"
       visible="true"
       enabled="true"
       snapvisiblegridlinesonly="false"
       type="xygrid"
       id="grid3073"
       spacingx="10px"
       spacingy="10px" />
    <sodipodi:guide
       orientation="0,1"
       position="601.86424,356.07132"
       id="guide3899" />
    <sodipodi:guide
       orientation="0,1"
       position="558.65171,405.85217"
       id="guide3000" />
  </sodipodi:namedview>
  <metadata
     id="metadata7">
    <rdf:RDF>
      <cc:Work
         rdf:about="">
        <dc:format>image/svg+xml</dc:format>
        <dc:type
           rdf:resource="http://purl.org/dc/dcmitype/StillImage" />
        <dc:title />
      </cc:Work>
    </rdf:RDF>
  </metadata>
  <g
     inkscape:label="Layer 1"
     inkscape:groupmode="layer"
     id="layer1"
     transform="translate(0,-308.26769)">
    <path
       style="font-size:145.6787262px;font-style:italic;font-variant:normal;font-weight:bold;font-stretch:normal;text-align:start;line-height:125%;letter-spacing:0px;word-spacing:0px;writing-mode:lr-tb;text-anchor:start;fill:#000000;fill-opacity:1;stroke:none;font-family:Homa;-inkscape-font-specification:Homa Bold Italic"
       d="m 369.8483,137.23863 c -6.65654,-0.39966 -13.18292,-0.61364 -19.31007,-0.42695 -6.11602,0.17449 -11.35623,0.70835 -15.37665,1.8769 -3.97238,1.17167 -6.51702,2.75626 -7.65927,4.78821 -0.54912,1.00523 -1.01707,2.34148 -1.28567,4.15975 -0.2686,1.81826 -0.335,4.11827 -0.0787,7.12358 0.49302,5.9185 1.86816,13.13139 3.65923,21.63011 0.67793,3.21706 1.39432,6.66213 2.11761,10.33476 0.94418,4.79781 1.91511,9.55335 2.86756,14.06956 0.95246,4.5162 1.88851,8.79254 2.81095,12.67848 0.77982,3.26789 1.5195,6.26647 2.25055,8.93019 2.50717,8.96346 6.01871,16.62525 11.01717,22.21292 5.04031,5.58736 11.31719,8.45001 19.19429,8.41147 3.78949,-0.0185 7.33025,-0.8913 10.5945,-2.59552 3.26426,-1.70423 6.25135,-4.24095 8.8944,-7.5389 5.32936,-6.59596 8.57681,-14.04291 9.55528,-21.91835 0.28346,-2.18359 0.45469,-4.74626 0.48725,-7.6244 0,0 0,0 0,0 0.0531,-3.72631 -0.0879,-7.99325 -0.42383,-12.59945 -0.3359,-4.60621 -0.86951,-9.55074 -1.54542,-14.55836 -0.229,-1.73417 -0.45272,-3.41185 -0.66789,-5.03294 -9.51153,-0.0777 -18.96606,-0.17151 -28.34385,-0.2577 0.85597,5.28588 1.79228,11.16243 2.69514,17.60856 0.89574,6.44977 1.29703,11.60071 1.27252,14.7993 -0.005,0.99752 -0.0532,1.8112 -0.14007,2.43226 -0.3242,2.62568 -1.53232,3.9929 -3.55573,3.99669 -2.10957,0.004 -3.56587,-1.3588 -4.46146,-3.98642 -0.21854,-0.64114 -0.43902,-1.45542 -0.6662,-2.43497 -0.69528,-3.01506 -1.42875,-7.64103 -2.25536,-13.39569 -1.29209,-8.82085 -2.67222,-16.61438 -3.85572,-23.33994 -1.01682,-5.79557 -1.81624,-10.95616 -2.25059,-15.46957 -0.43435,-4.5134 -0.50322,-8.37969 -0.069,-11.62821 0.23486,-1.66917 0.64082,-2.88631 1.1058,-3.7935 0.46498,-0.90719 0.98755,-1.50388 1.49189,-1.86853 1.05604,-0.72719 2.85437,-0.98894 5.33105,-0.88292 2.19079,0.0939 3.42047,0.42434 3.71976,1.06412 0.17385,0.31074 0.14007,0.8538 -0.0261,1.70356 -0.16615,0.84977 -0.46302,2.00579 -0.76714,3.61677 -0.6615,3.69524 -0.61877,8.25197 -0.0911,13.71636 9.61136,0.17949 19.27522,0.34276 28.97292,0.46385 -0.17869,-2.9442 -0.21319,-5.61642 -0.0696,-8.02141 0.25842,-3.53962 0.64699,-6.04787 0.92753,-7.94236 0.28053,-1.89449 0.44752,-3.17473 0.2811,-4.10786 -0.28109,-1.88241 -2.35003,-3.07286 -6.63529,-4.05672 -2.11873,-0.49102 -4.7753,-0.87922 -8.0437,-1.22277 C 378.24797,137.80903 374.36686,137.50995 369.8483,137.23863 z m -192.09712,-6.91618 c 0.38023,8.29846 3.47033,17.35414 7.86417,27.44428 4.39383,10.09013 10.07543,21.21374 15.5547,33.39195 0,0 0,1e-5 0,1e-5 4.85787,10.83149 9.44015,22.69913 12.58711,35.28955 0,0 0,0 0,0 2.33257,9.31502 3.75486,19.03522 3.92633,28.83828 7.91908,-1.09348 16.14671,-1.98324 24.65187,-2.71781 4.43402,-0.38296 8.18577,-0.93483 11.19101,-1.71296 3.00524,-0.77812 5.26435,-1.78101 6.73256,-3.01973 2.93633,-2.47743 5.01587,-6.91231 5.83878,-13.05357 0.60381,-4.50677 0.5441,-10.67247 -0.58177,-18.02782 0,0 0,0 0,0 -0.40209,-2.65311 -0.92649,-5.46004 -1.58163,-8.38698 -1.13443,-5.03696 -2.37205,-9.84375 -3.65944,-14.40353 -1.78093,-6.36243 -3.76895,-11.10053 -5.8885,-14.64078 -1.07126,-1.77452 -2.17559,-3.2538 -3.31902,-4.46706 -3.42109,-3.6525 -8.34874,-5.85771 -14.71258,-6.63292 4.6811,-2.13261 7.56699,-4.44769 8.56099,-7.06408 0.5176,-1.31001 0.67224,-3.03906 0.52808,-5.10364 -0.14416,-2.06458 -0.58925,-4.46369 -1.2137,-7.07862 -0.94276,-3.86608 -1.74498,-6.82414 -2.65687,-9.17785 -0.91188,-2.35371 -1.94082,-4.10351 -3.31131,-5.42284 -1.35097,-1.33324 -2.87692,-2.41021 -4.65268,-3.27408 -1.77577,-0.86387 -3.80224,-1.51444 -6.11237,-1.95305 -2.31019,-0.43855 -5.22219,-0.78154 -8.72411,-0.98974 -3.50191,-0.20819 -7.59437,-0.28252 -12.22971,-0.13549 C 196.76007,128.33437 187.14035,129.04421 177.75118,130.32245 z m 88.28453,-0.57148 c -4.64038,4.43285 -6.32008,10.4648 -6.14006,18.50516 0.18003,8.04036 2.20574,18.08729 4.76453,30.09025 0,0 0,0 0,0 2.29131,10.75049 4.80285,23.49663 6.43173,37.87995 0,0 0,1e-5 0,1e-5 1.22758,10.67362 1.6755,22.27033 0.99228,34.39119 8.14048,-0.39214 16.47585,-0.69721 24.98444,-0.9402 0.51052,-12.17466 0.004,-23.72226 -1.2072,-34.27877 2.99561,-0.14155 6.01208,-0.26672 9.0483,-0.37776 2.06376,10.54112 3.4208,22.11034 3.77885,34.36374 8.55586,-0.18884 17.27132,-0.32671 26.12583,-0.43176 -0.75808,-12.68789 -2.50799,-24.60604 -4.94863,-35.37593 -1.63347,-7.25024 -3.42366,-14.00187 -5.26141,-20.20647 -1.83774,-6.20461 -3.72264,-11.86213 -5.53513,-16.96717 0,0 0,0 0,0 -4.06411,-11.37664 -7.50925,-20.54033 -9.25374,-27.59363 -1.74449,-7.05331 -1.77782,-11.99926 0.84421,-15.44254 C 295.74978,132.09349 280.83495,130.7878 266.03571,129.75097 z m 149.97038,9.6714 c -5.41631,2.09823 -8.43177,5.92632 -9.70392,12.09069 -1.27216,6.16438 -0.80906,14.6679 0.51293,25.56309 0,10e-6 0,10e-6 0,10e-6 0.60021,4.89174 1.32016,10.37108 2.05359,16.43167 0.73342,6.06059 1.47998,12.70239 2.14058,19.87071 0,0 0,0 0,0 1.00539,10.65045 1.46866,22.51259 1.10284,35.18038 9.25357,-0.0156 18.58613,-0.0277 27.97943,-0.039 0.42038,-12.63175 0.0548,-24.4594 -0.82335,-35.08157 -0.56105,-6.98236 -1.1915,-13.46544 -1.80447,-19.3987 -0.61296,-5.93325 -1.20818,-11.3167 -1.69286,-16.14385 1.59615,4.82906 3.29175,10.2155 4.99559,16.15098 1.70385,5.93549 3.41569,12.41999 5.05263,19.40142 2.50411,10.62076 4.48286,22.44121 5.68475,35.05857 9.75474,-0.0107 19.56654,-0.0206 29.41562,-0.0266 -1.52795,-12.58824 -3.79455,-24.38653 -6.565,-35.00065 -1.85649,-7.1437 -3.78192,-13.77308 -5.69289,-19.83265 -1.91096,-6.05957 -3.80724,-11.54928 -5.59639,-16.46053 0,0 0,0 0,-1e-5 -1.61845,-4.41339 -3.10953,-8.45161 -4.42021,-12.10435 2.72752,-7.26458 6.23982,-13.06687 10.82438,-17.57769 4.58455,-4.51082 10.24304,-7.7325 17.11476,-10.05096 -9.13574,0.58932 -18.31406,1.06943 -27.54594,1.41143 -5.84176,1.67439 -10.68844,4.07791 -14.65528,7.45756 -3.96685,3.37965 -7.05477,7.7363 -9.46062,13.19664 0.23216,-5.45596 1.11466,-9.793 2.87792,-13.1154 1.76325,-3.3224 4.40828,-5.63068 8.10869,-7.14732 C 436.00585,139.47898 426.03857,139.53561 416.00609,139.42237 z m 95.13389,-3.74286 c -6.62658,2.7465 -12.16233,6.31897 -16.7083,11.10599 -4.54598,4.78702 -8.10349,10.79135 -10.91947,18.19776 1.25688,3.67213 2.68393,7.71321 4.23327,12.11241 0,0 0,0 0,0 1.73395,4.95408 3.57234,10.47678 5.42807,16.55863 1.85574,6.08185 3.72861,12.72279 5.54007,19.86823 0,0 0,0 0,0 2.72384,10.69471 4.95375,22.56882 6.46365,35.2316 0.86925,-12.66167 1.02695,-24.52136 0.71789,-35.20736 -0.13701,-5.22182 -0.30047,-10.17641 -0.45992,-14.8436 14.23857,0.0505 28.51532,0.15617 42.80579,0.44389 14.29046,0.28772 28.59465,0.75755 42.89951,1.59403 -1.46014,-8.07993 -2.92069,-15.4434 -4.26469,-22.06949 -2.30168,-11.35288 -4.03341,-21.04323 -4.78177,-29.06307 -12.32048,-0.24183 -24.55985,-0.16876 -36.76365,0.0411 -12.20379,0.20986 -24.37201,0.55653 -36.53475,0.90758 C 507.9436,143.49272 508.54502,138.70774 511.13998,135.67951 z m -303.59212,6.04254 c 2.81352,-0.28285 4.75568,-0.31295 5.79588,-0.12301 1.04015,0.1901 1.98272,0.80821 2.86212,1.86815 0.86208,1.0248 1.64143,2.9254 2.56706,5.88179 0.86476,2.80234 1.62206,5.20496 2.11927,7.07619 0.49721,1.87122 0.73824,3.21029 0.66149,3.94665 -0.17825,1.4301 -1.49835,2.36313 -3.93623,2.81502 -0.58985,0.10936 -1.42925,0.28238 -2.49701,0.5426 C 211.79334,155.52773 209.04644,148.22348 207.54786,141.72205 z m 77.72058,2.10147 c 0.58227,4.58658 2.06103,9.80745 3.86464,15.39622 1.8036,5.58877 3.93524,11.53894 6.05942,17.54084 1.18728,3.37435 2.35552,6.81411 3.4721,10.25994 -2.98816,0.0997 -5.95884,0.21585 -8.91081,0.35113 -0.63375,-3.18482 -1.32944,-6.69348 -2.04354,-10.36707 -1.03176,-5.31359 -2.07112,-11.10183 -2.69351,-16.82893 C 284.39435,154.44854 284.17651,148.79358 285.26844,143.82352 z m 311.66584,6.24188 c 0.76276,8.32388 2.42434,18.19975 4.61221,29.61899 1.27781,6.66099 2.66038,14.01279 4.04145,22.0361 8.48359,0.65915 16.967,1.47473 25.45021,2.49883 -1.20378,-7.85134 -2.41095,-15.12819 -3.5356,-21.81456 -1.92501,-11.4788 -3.41236,-21.66064 -4.16497,-30.53689 C 614.46943,151.01262 605.67591,150.43931 596.93428,150.0654 z m 41.61498,3.5532 c 0.71797,9.19181 2.06822,19.52558 3.79865,30.99322 1.01113,6.67271 2.09151,13.86686 3.16765,21.56865 8.48342,1.28046 16.96726,2.80222 25.45373,4.62854 -0.79286,-7.32319 -1.59049,-14.28035 -2.3429,-20.86192 -1.28734,-11.33982 -2.30895,-21.87769 -2.89559,-31.60736 C 656.56184,156.36522 647.51091,154.82494 638.54926,153.6186 z m 42.94979,8.53305 c 0.46191,10.01604 1.23609,20.62166 2.20274,31.81216 0.56505,6.48236 1.16147,13.24155 1.75362,20.2707 8.49061,2.19554 16.98572,4.73478 25.48977,7.69212 -0.156,-6.34441 -0.31346,-12.61925 -0.46371,-18.82284 -0.257,-10.75865 -0.46596,-21.36955 -0.59817,-31.83147 C 700.26265,167.65712 690.81281,164.65623 681.49905,162.15165 Z M 222.77859,182.2739 c 3.52608,-0.639 5.95475,-0.40366 7.24331,0.59624 0.0424,0.0329 0.0853,0.0683 0.12858,0.10618 0.6375,0.56291 1.37178,1.66411 2.19745,3.34762 0.82567,1.68352 1.74438,3.94984 2.73441,6.88283 1.49347,4.39236 2.93327,8.99489 4.26229,13.79303 0.854,3.12244 1.38882,5.76359 1.64744,7.84389 0.25861,2.0803 0.24223,3.59998 -0.0183,4.52205 -0.068,0.25754 -0.16231,0.50499 -0.28265,0.74218 0,0 0,1e-5 0,1e-5 -0.73603,1.46133 -2.45807,2.52486 -5.10975,3.21443 -0.15134,-0.72955 -0.30732,-1.45579 -0.46779,-2.17862 0,0 0,0 0,0 -2.99178,-13.53048 -7.19529,-25.88167 -11.49371,-36.76151 0,0 0,0 0,0 C 223.33907,183.67466 223.05855,182.97188 222.77859,182.2739 z m 15.85225,110.40159 c -1.59003,-0.13441 -3.12463,0.2829 -4.63802,1.23653 -1.51345,0.95372 -2.95084,2.36672 -4.33526,4.21981 -0.53929,0.72843 -1.05066,1.4864 -1.53871,2.27585 -0.76028,1.21659 -1.46265,2.50354 -2.1235,3.86624 -1.08118,2.22152 -2.80415,6.01356 -5.50423,11.04582 -1.54221,2.84808 -3.17143,5.60631 -4.87325,8.27366 -3.06438,4.82765 -5.34735,7.96492 -6.55405,9.77741 -0.34045,0.51136 -0.65302,1.0178 -0.93692,1.51927 -0.72664,1.2557 -1.26188,2.48202 -1.59399,3.674 -0.46265,1.66045 -0.40761,3.02107 0.17673,4.11441 0.59591,1.07628 1.64414,1.85366 3.15054,2.31153 1.58749,0.48253 3.29644,0.52114 5.12601,0.0977 1.82957,-0.42346 3.69059,-1.26582 5.54985,-2.55567 1.30881,-0.90022 2.53426,-1.93886 3.66306,-3.10778 0.48245,-0.51404 0.94566,-1.0529 1.38836,-1.61594 1.49594,-1.8903 3.86029,-5.17603 6.85357,-10.23511 1.70228,-2.86499 3.33626,-5.83429 4.88737,-8.90578 2.79101,-5.5569 4.41667,-9.76453 5.224,-12.18437 0.47356,-1.41951 0.79738,-2.79673 0.97978,-4.13265 0.12342,-0.94499 0.17541,-1.86646 0.15907,-2.76588 -0.0396,-2.17571 -0.53153,-3.86796 -1.4324,-5.00999 C 241.36298,293.40762 240.13958,292.80316 238.63084,292.67549 z m 112.85516,2.61203 c -4.64366,0.0233 -9.04265,1.63485 -13.34107,4.8221 -2.06324,1.53 -4.05985,3.37167 -6.02091,5.50672 -2.14171,2.30082 -4.23468,4.92326 -6.31256,7.81231 -3.96264,5.55609 -7.49225,11.38052 -10.64716,17.31902 -2.06701,3.87769 -4.98071,9.42838 -8.84576,15.78995 -2.01802,3.18233 -4.22808,6.58047 -6.56097,10.04386 -3.91385,5.76751 -7.58372,10.75343 -10.82261,15.02713 -2.91316,3.86012 -4.974,6.58438 -6.41128,8.63851 -1.43727,2.05413 -2.25968,3.43415 -2.69648,4.39055 -0.87364,1.91283 -0.34905,3.35222 1.60818,4.39077 1.95721,1.03855 5.20018,1.50525 9.37038,1.57879 4.16142,0.0634 8.97198,-0.23684 14.20757,-0.77369 5.51746,-0.56576 10.2214,-1.24436 14.17914,-2.00751 3.95765,-0.76315 7.01348,-1.57424 9.4796,-2.63375 2.50527,-1.06257 4.27695,-2.25432 5.51467,-3.84637 0.63822,-0.80469 1.44795,-1.95069 2.67054,-3.71067 1.22259,-1.75999 2.86568,-4.13166 5.18711,-7.59407 2.64327,-3.92782 5.78286,-8.64713 9.24017,-14.2117 2.0686,-3.34271 4.01932,-6.65244 5.77064,-9.76556 1.73541,-3.22919 3.21187,-6.27026 4.42343,-8.97665 1.21157,-2.70639 2.15988,-5.07804 2.85871,-7.01286 2.09376,-5.79735 2.9711,-11.61934 2.67042,-17.239 -0.14669,-2.73958 -0.60531,-5.21225 -1.35293,-7.36785 -0.8031,-2.2783 -1.93203,-4.18337 -3.35425,-5.69431 C 359.53678,296.75458 355.89227,295.26579 351.486,295.28752 z m 295.10682,-4.61748 c -3.38441,0.24311 -6.5968,1.1258 -9.65721,2.70562 -3.06042,1.57983 -5.96868,3.85708 -8.77261,6.84648 -0.30581,0.32299 -0.6076,0.64759 -0.90535,0.97375 -5.19106,5.62157 -9.13324,11.59666 -11.78074,17.60254 -1.20685,2.73777 -2.56584,6.11798 -4.10235,10.00563 -1.53652,3.88765 -3.25322,8.28308 -5.14773,12.97512 0,0 0,0 0,0 -0.61606,1.46177 -1.23967,2.95556 -1.86739,4.47379 -4.68092,11.38776 -8.76524,20.92126 -11.73819,28.5249 -1.02663,2.64081 -1.73021,4.72573 -2.19709,6.41243 -0.46689,1.68669 -0.69816,2.97516 -0.76918,3.97204 -0.14262,1.97006 0.58458,3.66945 2.1487,5.21196 1.56412,1.54251 4.11848,2.78627 7.53835,3.86317 3.41303,1.05896 7.11686,1.70474 11.09427,1.85632 3.33947,0.12727 6.2483,-0.15038 8.82807,-0.91152 2.57421,-0.78216 4.84914,-2.05677 6.90265,-3.98425 0.46592,1.40328 0.99112,2.74998 1.57655,4.04848 5.10017,-0.0797 10.25335,-0.26875 15.47128,-0.59129 0.92294,-5.60049 2.69565,-12.1437 5.04992,-19.73703 2.35426,-7.59334 5.28806,-16.23375 8.52609,-25.81987 -9.75545,2.19779 -19.40746,3.91882 -28.98369,5.28098 -2.02823,5.314 -3.90108,10.21744 -5.55917,14.69608 1.66822,-0.19469 3.33974,-0.4005 5.01476,-0.61807 -1.30699,3.54431 -2.48966,6.83884 -3.52058,9.88566 -1.17069,3.58406 -2.09892,5.73615 -3.07785,6.85458 -0.93988,1.11596 -2.26839,1.68429 -4.05655,1.76577 -1.63273,0.0744 -2.60597,-0.32484 -2.88808,-1.19794 -0.28249,-0.89912 -0.0304,-2.76369 1.08793,-6.06213 1.72975,-5.13973 3.98099,-11.10132 6.59521,-17.8931 2.61422,-6.79178 5.5908,-14.41296 8.76979,-22.78401 0.89962,-2.46587 1.78994,-5.00221 2.66553,-7.60567 1.11703,-3.30976 2.05899,-6.10294 2.84951,-8.27856 0.79052,-2.17562 1.43052,-3.73424 1.94063,-4.6286 1.02012,-1.7885 2.26454,-2.79156 3.70489,-2.9759 1.66179,-0.21243 2.40791,0.69308 2.28156,2.61697 -0.0632,0.96207 -0.39407,2.66441 -1.01281,5.04966 -0.61873,2.38525 -1.52659,5.45447 -2.75018,9.09181 -0.62907,1.88953 -1.26556,3.74452 -1.90742,5.56362 -0.67446,1.83872 -1.34012,3.644 -1.9954,5.41464 8.0909,-1.29038 16.21936,-2.83822 24.39691,-4.71062 0.54339,-1.64752 1.09237,-3.31731 1.64587,-5.00833 0.0375,-0.11421 0.0749,-0.22816 0.11201,-0.34187 1.52301,-4.81822 2.64666,-9.21288 3.40092,-13.0651 0.75426,-3.85223 1.14071,-7.16396 1.19247,-9.86481 0.0962,-4.77084 -1.14729,-8.91321 -3.68509,-12.53167 -0.40204,-0.57076 -0.83679,-1.12713 -1.30417,-1.66956 C 658.30017,292.08185 653.25351,290.1919 646.59282,290.67004 Z M 213.25118,290.823 c -0.7369,2.16568 -1.54525,4.30338 -2.42227,6.40923 -0.48165,1.1475 -0.98235,2.28284 -1.50125,3.40588 1.32407,0.33736 2.65828,0.6623 4.00241,0.97539 -4.72184,10.47529 -10.92749,19.8785 -17.87777,28.21136 -1.79949,2.12975 -3.63326,4.19342 -5.49083,6.1968 2.21591,1.11802 4.47285,2.16305 6.76863,3.14075 1.85489,-2.07696 3.69156,-4.22047 5.4995,-6.43585 6.97511,-8.7017 13.22695,-18.58431 18.01212,-29.62204 1.37714,0.27452 2.76384,0.53811 4.15991,0.79129 0.53688,-1.259 1.05604,-2.53258 1.55666,-3.82046 0.90688,-2.36651 1.74332,-4.76446 2.50636,-7.1894 C 223.27119,292.29663 218.19717,291.61503 213.25118,290.823 z m 59.37821,7.2258 c -0.60738,2.13191 -1.25579,4.24847 -1.94372,6.34716 -5.07526,15.10849 -11.84212,28.36898 -19.2622,39.50933 0,1e-5 0,1e-5 -1e-5,1e-5 -4.4831,6.49119 -8.95949,12.31309 -13.24304,17.52708 -4.28354,5.21399 -8.37364,9.82052 -12.08094,13.93077 -7.4146,8.22049 -13.28036,14.42158 -16.19082,19.98114 7.93269,0.14424 16.00672,0.009 24.17828,-0.3179 1.12451,-2.91985 3.44243,-6.17129 6.64238,-10.11647 3.19995,-3.94519 7.2801,-8.58541 11.89383,-14.18001 2.12986,0.10075 4.27143,0.18541 6.42392,0.25564 -4.50046,5.54911 -8.445,10.11761 -11.48946,13.96311 -3.04445,3.84549 -5.18699,6.96923 -6.11964,9.7357 8.2265,-0.434 16.53847,-1.03467 24.89901,-1.7274 0.26634,-1.8328 1.35024,-3.94633 3.09828,-6.54123 1.74803,-2.59489 4.15959,-5.67153 7.06259,-9.38138 2.903,-3.70984 6.29687,-8.05327 9.99969,-13.12684 3.70281,-5.07358 7.71403,-10.87766 11.8504,-17.44856 0,0 0,0 0,0 3.41552,-5.66088 6.73609,-11.92167 9.81375,-18.75389 3.07765,-6.83221 5.91201,-14.23571 8.38621,-22.13974 0,0 0,-10e-6 0,-10e-6 0.66814,-2.19702 1.29985,-4.41292 1.89346,-6.64475 -6.87251,-0.0302 -13.65135,-0.0906 -20.32573,-0.1959 -0.6019,2.20394 -1.24336,4.39227 -1.92273,6.5622 -2.51235,7.80787 -5.40925,15.13209 -8.57421,21.90916 -3.16496,6.77708 -6.59757,13.00688 -10.15174,18.66596 0,0 0,0 0,0 -0.90027,1.37678 -1.79708,2.72178 -2.68875,4.03519 -2.05785,-0.0938 -4.10492,-0.19945 -6.14065,-0.31825 0.90258,-1.3127 1.80962,-2.65641 2.71946,-4.03135 7.18591,-11.29744 13.82457,-24.8765 18.86619,-40.40491 0,0 0,0 0,0 0.68201,-2.15765 1.32567,-4.33357 1.9294,-6.52502 C 285.53316,298.48381 279.02171,298.30017 272.62939,298.0488 z m 111.28135,0.61969 c -0.56328,2.24063 -1.15999,4.4643 -1.78831,6.6677 -2.33255,7.92541 -4.95809,15.32281 -7.76067,22.10678 -2.80258,6.78397 -5.7819,12.95436 -8.78815,18.47168 0,1e-5 0,1e-5 0,1e-5 -3.64698,6.39454 -7.06863,11.95321 -10.09037,16.6882 -3.02173,4.73499 -5.64307,8.64652 -7.69475,11.8149 -2.05168,3.16838 -3.53321,5.59385 -4.28802,7.42141 -0.7548,1.82757 -0.78236,3.0575 0.0535,3.8958 7.32697,-0.62665 14.63016,-1.20099 21.89914,-1.7022 -1.00341,-0.62393 -1.1885,-1.64076 -0.6761,-3.24029 0.5124,-1.59954 1.72184,-3.78199 3.48897,-6.68068 1.76713,-2.89869 4.09153,-6.5138 6.82178,-10.9194 2.73025,-4.4056 5.86594,-9.60186 9.24974,-15.6011 -2.68238,5.98745 -5.10443,11.16764 -7.10529,15.54985 -2.00086,4.38222 -3.58012,7.96658 -4.5848,10.82261 -1.00469,2.85603 -1.43439,4.98385 -1.15038,6.5112 0.284,1.52735 1.28215,2.45437 3.11248,2.96499 5.13694,-0.31022 10.25498,-0.58027 15.3518,-0.8056 -0.46712,-0.50473 -0.0941,-1.43179 0.99401,-2.98729 1.08808,-1.5555 2.8907,-3.73965 5.26434,-6.69314 2.37364,-2.95349 5.31785,-6.67649 8.67764,-11.24146 3.35978,-4.56497 7.13473,-9.97203 11.16474,-16.22333 -3.3555,6.24456 -6.44727,11.6434 -9.11291,16.19692 -2.66564,4.55353 -4.90474,8.26187 -6.56163,11.19362 -1.65689,2.93175 -2.73114,5.08706 -3.08022,6.6008 -0.34907,1.51375 0.0275,2.38609 1.25237,2.81598 7.14794,-0.24514 14.25171,-0.3975 21.30869,-0.4522 -1.29276,-0.36112 -1.74196,-1.18595 -1.46727,-2.67171 0.2747,-1.48576 1.27283,-3.63257 2.85494,-6.57181 1.58212,-2.93924 3.74778,-6.67103 6.34433,-11.25922 2.59655,-4.58818 5.62357,-10.03286 8.92143,-16.329 0,0 0,0 0,0 2.71519,-5.43346 5.43796,-11.53194 8.02476,-18.25012 2.5868,-6.71818 5.03744,-14.05588 7.24227,-21.92293 0,0 10e-6,0 10e-6,-10e-6 0.593,-2.18725 1.15803,-4.39495 1.69325,-6.61968 -9.97587,0.0469 -19.89616,0.10095 -29.74007,0.16326 -0.68984,2.23089 -1.41099,4.44468 -2.16166,6.63797 0,0 0,0 0,0 -2.77505,7.88885 -5.81599,15.24712 -9.01243,21.98583 -3.19644,6.73871 -6.54814,12.85766 -9.90998,18.31437 0,0 0,0 0,0 -3.48161,5.40584 -6.78302,10.19308 -9.80134,14.3615 1.85522,-4.14801 4.01097,-8.92058 6.3601,-14.31537 1.74501,-4.21241 3.49197,-8.82223 5.16937,-13.81184 3.00769,-8.82242 5.4078,-17.90569 7.1751,-26.4607 0.44972,-2.27294 0.84753,-4.48861 1.19807,-6.63899 C 403.05297,298.52283 393.42972,298.5966 383.91074,298.66849 z m 78.79045,-0.49034 c -0.5319,2.22376 -1.09325,4.43061 -1.68223,6.61716 -2.19028,7.86447 -4.62185,15.20145 -7.18645,21.92078 -2.5646,6.71933 -5.26204,12.82083 -7.95037,18.25872 0,0 0,1e-5 0,1e-5 -3.26569,6.3013 -6.25839,11.7532 -8.8209,16.34873 -2.5625,4.59554 -4.69442,8.33477 -6.24555,11.27923 -1.55113,2.94445 -2.52107,5.09421 -2.77271,6.57815 -0.25165,1.48395 0.21543,2.30218 1.5188,2.64951 13.92432,0.0688 27.66062,0.52906 41.23575,1.32246 -1.45126,-0.50814 -1.79568,-1.7113 -1.21504,-3.89778 -5.7996,-0.2276 -11.61098,-0.42057 -17.43598,-0.57192 0.62672,-2.30112 2.39505,-5.78763 5.00892,-10.67739 4.93235,0.0643 9.86469,0.1437 14.79717,0.23421 2.2447,-4.29462 5.11032,-9.63042 8.39396,-16.02964 -4.91508,-0.0257 -9.82575,-0.049 -14.7313,-0.066 1.17719,-2.26213 2.40786,-4.65954 3.68234,-7.19021 2.25993,-4.7058 4.52788,-9.89762 6.71488,-15.54761 5.19484,-0.0135 10.39817,-0.0258 15.60816,-0.0407 2.86186,-7.49503 5.58231,-15.78373 8.0089,-24.73925 0.57242,-2.18594 1.1184,-4.39109 1.63626,-6.61219 C 488.35805,298.07625 475.4894,298.1226 462.70119,298.17815 z m 46.86745,-0.20609 c -0.51505,2.22023 -1.05797,4.42482 -1.62709,6.61055 -2.11841,7.86155 -4.45965,15.21499 -6.92485,21.97228 -2.4652,6.75729 -5.05424,12.91824 -7.63622,18.43544 0,0 0,0 0,0 -3.13867,6.3945 -6.00656,11.96744 -8.46061,16.70265 -2.45405,4.73521 -4.49392,8.63266 -5.98318,11.74067 -1.48925,3.10802 -2.42752,5.42659 -2.69031,7.06878 -0.2628,1.64218 0.15026,2.60798 1.34604,3.07508 7.80157,0.51854 15.55345,1.13972 23.26959,1.83438 -1.25797,-0.77085 -1.46261,-2.25914 -0.78694,-4.73325 0.67567,-2.47411 2.2308,-5.93397 4.46179,-10.52293 2.13036,0.0525 4.26108,0.10454 6.39231,0.15554 5.18963,0.1242 9.6182,-0.3111 13.39396,-1.4281 3.8133,-1.1163 6.87877,-2.84617 9.29111,-5.37841 1.20609,-1.26607 2.46998,-2.95455 3.83741,-5.18663 1.36743,-2.23207 2.83947,-5.00797 4.46789,-8.49923 0.75954,-1.63807 1.53852,-3.32944 2.33461,-5.07325 0.73912,-1.69753 1.47752,-3.44783 2.21192,-5.24995 1.64879,-3.9958 2.97837,-7.71459 3.99326,-10.97488 1.01488,-3.26029 1.71702,-6.06256 2.12876,-8.28875 0.83576,-4.51394 0.84273,-8.52929 0.0337,-11.90481 -0.35258,-1.54143 -0.93766,-2.93386 -1.74935,-4.16597 -0.97724,-1.47442 -2.27777,-2.71144 -3.88992,-3.70463 -2.96694,-1.82739 -7.62707,-2.70592 -13.97177,-2.6491 C 525.19139,297.87777 517.37444,297.92935 509.56864,297.97206 z m 60.48388,-0.68645 c -0.63946,2.19333 -1.30487,4.37509 -1.99498,6.54237 -5.10793,15.59255 -11.07905,29.38551 -17.15179,40.79407 0,10e-6 0,10e-6 0,10e-6 -3.68281,6.61972 -7.13373,12.49292 -10.224,17.58079 -3.09027,5.08787 -5.81956,9.39016 -8.06112,12.92711 -2.24157,3.53695 -3.99504,6.30836 -5.14073,8.39696 -1.14568,2.08861 -1.6832,3.49424 -1.50547,4.36478 7.92886,0.83526 15.84217,1.70205 23.76783,2.54273 -0.17369,-1.34158 0.38971,-3.27356 1.57195,-5.94799 2.82223,0.14266 5.64776,0.27663 8.47765,0.39922 -0.37146,2.85729 -0.16282,5.02943 0.72031,6.66727 7.84452,0.79262 15.71536,1.53032 23.64786,2.14026 -0.91685,-2.05769 -1.31699,-4.54102 -1.26225,-7.56476 0.0547,-3.02373 0.56416,-6.58787 1.45352,-10.76347 0.88935,-4.17561 2.15845,-8.96266 3.7227,-14.38872 1.56424,-5.42606 3.42345,-11.4911 5.48614,-18.17939 10e-6,0 10e-6,0 10e-6,0 3.37239,-11.50263 6.61986,-25.01775 9.12646,-40.15356 0,0 0,0 0,0 0.33157,-2.10335 0.64113,-4.21918 0.92759,-6.34525 C 592.46519,296.74198 581.27003,297.05428 570.05252,297.28561 z m 111.58921,-7.19211 c -0.33249,1.72765 -0.67784,3.4575 -1.03605,5.18837 -2.64693,12.47924 -5.76709,24.51528 -9.16252,35.67127 0,0 0,0 0,10e-6 -4.11735,13.13019 -8.06022,25.1586 -11.32593,35.70658 -3.2657,10.54798 -5.84834,19.60497 -7.22803,27.24562 14.60792,-1.36638 29.76167,-3.85766 45.75022,-8.0669 1.34158,-6.17386 2.83153,-12.61904 4.38311,-19.27724 -6.84137,2.41369 -13.55556,4.50658 -20.16097,6.32377 1.73292,-6.77207 3.67569,-13.97469 5.70817,-21.52081 5.49052,-1.84349 11.03669,-3.87884 16.64615,-6.13048 1.5556,-6.63939 3.10342,-13.39933 4.58673,-20.17975 -5.30075,2.19639 -10.56736,4.20183 -15.8041,6.0369 0.6415,-2.47304 1.28296,-4.96727 1.92162,-7.47825 1.13897,-4.56282 2.23028,-9.18958 3.26631,-13.84844 5.24351,-1.62067 10.48898,-3.39067 15.73754,-5.32855 1.05993,-5.66576 2.04447,-11.25146 2.97381,-16.68347 0.2254,-1.31878 0.44767,-2.62818 0.66751,-3.92782 C 706.40851,286.39659 694.09036,288.44103 681.64173,290.0935 z m -446.27361,12.48456 c 0.45129,0.0591 0.60659,0.46189 0.45646,1.23444 -0.14334,0.74876 -0.7189,2.44288 -1.83515,5.02856 -3.70464,8.5059 -8.11626,16.32551 -12.95493,23.42319 -1.86209,2.7285 -3.1695,4.36591 -3.82577,5.01589 -0.11035,0.11179 -0.21868,0.21194 -0.32492,0.30048 0,0 0,0 0,0 -0.51648,0.41923 -0.98201,0.5717 -1.39318,0.45507 -0.43304,-0.12281 -0.55187,-0.43711 -0.34704,-0.94491 0,0 0,0 0,0 0.0242,-0.0615 0.0529,-0.12587 0.0861,-0.19307 0.31274,-0.63185 1.43676,-2.19588 3.27262,-4.85447 4.93442,-7.13527 9.42753,-15.00311 13.18401,-23.56955 1.24051,-2.82894 2.02226,-4.57691 2.44683,-5.13443 C 234.57606,302.75973 234.9862,302.52815 235.36812,302.57806 z m 107.38862,20.41058 c 1.33428,-0.007 1.83192,1.00498 1.45065,2.9394 -0.18154,0.9371 -0.67781,2.48741 -1.5072,4.58002 -0.82939,2.09262 -1.9934,4.72789 -3.51259,7.77181 -1.42756,2.84099 -2.88161,5.55022 -4.34673,8.12547 -4.48743,7.5435 -8.7209,13.98555 -12.41847,19.36928 -3.69757,5.38374 -6.85814,9.70976 -9.20911,13.13981 -1.06077,1.53702 -1.82648,2.62796 -2.43913,3.43532 -0.61265,0.80737 -1.07442,1.32973 -1.47477,1.64415 -0.76232,0.62631 -1.94431,0.96928 -3.60468,1.08536 -1.62181,0.1134 -2.53275,-0.0603 -2.68217,-0.56087 -0.0747,-0.25029 0.03,-0.7235 0.40295,-1.49372 0.3729,-0.77021 1.01597,-1.83563 2.07187,-3.35477 2.4511,-3.50511 5.7424,-7.91574 9.58379,-13.40888 3.84139,-5.49314 8.23165,-12.0695 12.87108,-19.78002 1.48679,-2.58283 2.96099,-5.29852 4.40723,-8.14492 1.71175,-3.37367 3.10967,-6.24256 4.23156,-8.43474 1.1219,-2.19218 1.9701,-3.70838 2.5771,-4.47043 C 340.4246,323.84606 341.6276,322.99503 342.75674,322.98864 z m 182.14057,2.02379 c 3.04651,-0.0288 4.78732,0.73156 5.22789,2.19267 0.44044,1.46134 -0.18098,4.65464 -1.9655,9.14459 -1.2217,3.00968 -2.45816,5.87877 -3.69469,8.6029 -0.24354,0.51165 -0.48549,1.01847 -0.72578,1.52043 -1.98622,4.18487 -3.59822,6.66137 -5.01745,7.8615 -1.40667,1.15881 -3.19364,1.70348 -5.37059,1.69282 -0.48803,-0.002 -1.06603,-0.0287 -1.72918,-0.0723 1.65366,-3.35658 3.43574,-7.01598 5.31534,-10.97082 C 519.63998,339.01978 522.34296,332.34257 524.89731,325.01243 z m 52.96876,6.1538 c -1.42087,4.65089 -2.83339,8.88555 -4.19787,12.74266 -2.71555,7.30966 -4.94212,13.3048 -6.6929,18.28045 -1.75078,4.97564 -3.02832,8.93601 -3.91363,12.17018 -2.73043,0.004 -5.4569,-0.006 -8.18008,-0.0261 1.34025,-2.53796 3.26822,-5.95874 6.01104,-10.80733 2.74281,-4.84859 6.31127,-11.13627 10.82369,-19.53527 0,0 0,0 0,0 C 573.67714,340.17993 575.74204,335.92514 577.86607,331.16623 z m -408.39402,17.49948 c -11.72829,10.29913 -23.33298,19.26968 -32.21824,29.0293 2.25159,1.21938 4.54642,2.35237 6.88154,3.40499 5.52322,-6.24464 12.29579,-12.24799 19.59048,-18.63979 -6.42122,6.87238 -12.22951,13.35287 -16.60624,19.93268 1.68101,0.69952 3.3817,1.35981 5.10106,1.98294 6.22165,-5.81377 13.69771,-11.42681 21.74485,-17.64048 -7.17506,6.58525 -13.70071,12.57951 -18.8094,18.66261 2.45206,0.81973 4.94007,1.56797 7.46132,2.25029 3.52701,-4.35034 7.86616,-8.70314 12.71273,-13.34336 4.84656,-4.64021 10.19894,-9.5692 15.73649,-15.02805 -3.21965,-1.17861 -6.37011,-2.47976 -9.4451,-3.91808 -5.84875,4.76217 -11.61145,9.10816 -17.05156,13.27587 2.31114,-2.57621 4.74469,-5.20864 7.25245,-7.9231 2.42807,-2.59933 4.59801,-4.96301 6.40177,-7.0143 C 175.22791,352.1659 172.30836,350.49383 169.47205,348.66571 z m 22.89545,11.07936 c -5.30164,7.59649 -10.156,14.32377 -13.7499,20.4805 -3.12915,3.19757 -5.92796,6.25701 -8.28374,9.28915 2.74309,0.58878 5.5206,1.10944 8.32953,1.56819 2.16997,-2.90336 4.79991,-5.85953 7.77885,-8.98101 7.32726,-5.06462 15.54093,-10.58719 24.12599,-17.24287 -2.44373,-0.53179 -4.85872,-1.11144 -7.24298,-1.74354 -5.99426,4.89263 -10.71437,8.53854 -14.22875,11.43457 0.9003,-0.973 2.15055,-2.44181 3.82782,-4.49253 1.67727,-2.05072 3.78696,-4.68162 6.39206,-8.06375 C 196.9675,361.30095 194.6505,360.553 192.3675,359.74507 Z"
       transform="translate(0,308.26769)"
       id="path3027"
       inkscape:path-effect="#path-effect3219"
       inkscape:original-d="M 370.65625 139.0625 C 364.15945 139.06262 358.17216 140.17756 352.71875 142.40625 C 347.26524 144.58775 342.72899 147.59647 339.125 151.4375 C 335.56836 155.27874 333.07886 159.29576 331.65625 163.46875 C 330.281 167.59451 328.78473 173.79508 327.125 182.09375 L 320.34375 215.75 C 318.06749 227.03634 317.28866 235.48187 318 241.125 C 318.75873 246.72075 321.66081 251.13527 326.6875 254.3125 C 331.76158 257.48974 338.69575 259.0625 347.46875 259.0625 C 355.90972 259.0625 363.37821 257.1838 369.875 253.4375 C 376.4191 249.69121 381.00057 245.32301 383.65625 240.34375 C 386.35919 235.36452 388.9101 226.93407 391.28125 215.03125 L 392.1875 210.5625 L 362.25 210.5625 L 359.34375 225 C 358.06332 231.30708 356.88697 235.29284 355.84375 237 C 354.84785 238.70719 353.22877 239.56252 351 239.5625 C 348.67631 239.56252 347.36316 238.70719 347.03125 237 C 346.69926 235.29284 347.11184 231.65826 348.25 226.0625 L 358.90625 172.5625 C 360.09173 166.72975 361.19159 162.94219 362.1875 161.1875 C 363.23071 159.433 364.97153 158.5626 367.4375 158.5625 C 369.61882 158.5626 370.88673 159.28003 371.21875 160.75 C 371.59805 162.17274 371.18547 165.8235 370 171.65625 L 366.03125 191.71875 L 395.96875 191.71875 L 398.09375 180.75 C 400.27505 169.98542 400.96232 162.07419 400.15625 157 C 399.39741 151.87859 396.48025 147.60195 391.40625 144.1875 C 386.37949 140.77327 379.47657 139.06262 370.65625 139.0625 z M 181.5625 141.46875 L 158.53125 256.65625 L 193.1875 256.65625 C 205.23249 256.65625 213.32685 255.96897 217.5 254.59375 C 221.67302 253.21853 225.01784 250.65255 227.53125 246.90625 C 230.04451 243.15997 232.09126 237.40214 233.65625 229.625 L 235.78125 218.9375 C 237.29865 211.44495 237.19201 205.91658 235.4375 202.3125 C 233.68282 198.6611 229.49776 196.03371 222.90625 194.46875 C 229.40291 193.04617 233.95424 191.03066 236.5625 188.375 C 239.21802 185.71947 241.21844 181.01518 242.59375 174.28125 C 244.58536 164.32284 244.54012 157.11396 242.40625 152.65625 C 240.31962 148.15132 236.98988 145.15768 232.4375 143.6875 C 227.88497 142.21755 220.8743 141.46887 211.4375 141.46875 L 181.5625 141.46875 z M 270.5 141.46875 L 232.21875 256.65625 L 263.25 256.65625 L 269.15625 235.9375 L 279.875 235.9375 L 277.25 256.65625 L 307.90625 256.65625 L 313.8125 141.46875 L 270.5 141.46875 z M 416.875 141.46875 L 393.84375 256.65625 L 423.78125 256.65625 L 433.65625 207.28125 L 435.875 256.65625 L 466.8125 256.65625 L 460.6875 193.46875 L 488.21875 141.46875 L 460.125 141.46875 L 437.875 186.21875 L 446.84375 141.46875 L 416.875 141.46875 z M 513.53125 141.65625 L 486 193.625 L 492.125 256.8125 L 500.125 224.875 L 588.125 224.875 L 588.125 174.875 L 514.125 174.875 L 513.53125 141.65625 z M 207.53125 161.1875 C 210.61358 161.23502 212.66034 161.43322 213.65625 161.8125 C 214.65203 162.19197 215.33932 163.12377 215.71875 164.59375 C 216.09806 166.01648 215.93001 168.55231 215.21875 172.15625 C 213.84347 178.98502 212.62188 183.12376 211.53125 184.59375 C 210.4405 186.01647 208.40883 186.71882 205.46875 186.71875 C 204.75738 186.71875 203.734 186.73385 202.40625 186.78125 L 207.53125 161.1875 z M 288.21875 167.21875 C 285.94247 186.37709 284.2469 202.49041 283.15625 215.53125 L 272.90625 215.53125 C 275.70407 205.33569 280.82095 189.22237 288.21875 167.21875 z M 602.9375 174.875 L 602.9375 224.875 L 629.03125 224.875 L 629.03125 174.875 L 602.9375 174.875 z M 643.875 174.875 L 643.875 224.875 L 669.96875 224.875 L 669.96875 174.875 L 643.875 174.875 z M 684.8125 174.875 L 684.8125 224.875 L 710.90625 224.875 L 710.90625 174.875 L 684.8125 174.875 z M 198.875 204.71875 C 203.28515 204.86107 205.89636 205.45678 206.75 206.5 C 207.60353 207.54332 207.52704 210.53697 206.53125 215.46875 L 204.40625 226.1875 C 203.45777 230.83483 202.26635 233.75199 200.84375 234.9375 C 199.46848 236.12306 196.64289 236.79526 192.375 236.9375 L 198.875 204.71875 z M 190.40625 281.9375 C 188.23834 281.93754 186.27227 282.28795 184.5 283 C 182.72769 283.71212 181.20301 284.73332 179.96875 286.0625 C 178.75028 287.39175 177.91261 288.85474 177.40625 290.46875 C 176.89987 292.06701 176.25955 294.79522 175.5 298.65625 L 174.15625 305.21875 C 173.36505 309.17477 172.90784 311.94886 172.78125 313.53125 C 172.65465 315.11366 172.95959 316.59246 173.6875 317.9375 C 174.4154 319.28255 175.52796 320.28831 177.03125 320.96875 C 178.53453 321.63336 180.31786 321.96875 182.375 321.96875 C 184.54287 321.96875 186.50895 321.61833 188.28125 320.90625 C 190.05353 320.19417 191.56278 319.17297 192.78125 317.84375 C 194.0155 316.51453 194.88443 315.03573 195.375 313.4375 C 195.88134 311.82345 196.50585 309.07983 197.28125 305.21875 L 198.625 298.65625 C 199.41617 294.70027 199.87338 291.92619 200 290.34375 C 200.12656 288.76138 199.82163 287.31383 199.09375 285.96875 C 198.36582 284.62375 197.25325 283.60214 195.75 282.9375 C 194.24669 282.2571 192.46336 281.93754 190.40625 281.9375 z M 328.5 281.9375 C 323.26222 281.9376 318.50066 282.81554 314.21875 284.59375 C 309.93677 286.37215 306.32578 288.93059 303.34375 292.25 C 300.39988 295.56958 298.31714 299.21926 297.09375 303.25 C 295.87032 307.24138 294.33511 314.07644 292.5 323.71875 L 289.28125 340.125 C 287.36965 350.00449 286.27459 356.92324 285.96875 360.875 C 285.66288 364.8268 286.36633 368.48473 288.125 371.84375 C 289.88364 375.20276 292.58672 377.73824 296.21875 379.4375 C 299.85073 381.09726 304.15486 381.93749 309.125 381.9375 C 314.36271 381.93749 319.12426 381.02829 323.40625 379.25 C 327.68815 377.4717 331.30611 374.91325 334.25 371.59375 C 337.23201 368.27426 339.31475 364.64757 340.5 360.65625 C 341.72335 356.62545 343.25158 349.76738 345.125 340.125 L 348.34375 323.71875 C 350.25526 313.83934 351.38156 306.92062 351.6875 302.96875 C 351.99328 299.01704 351.25859 295.3591 349.5 292 C 347.74127 288.64107 345.03819 286.1286 341.40625 284.46875 C 337.77418 282.76958 333.47007 281.9376 328.5 281.9375 z M 640.71875 281.9375 C 633.53115 281.9376 627.32446 283.64752 622.125 287.125 C 616.92546 290.56314 613.44613 294.38196 611.6875 298.53125 C 609.92882 302.6807 608.14062 309.33192 606.34375 318.5 L 600.84375 347 C 599.58209 353.59952 598.87865 358.55553 598.6875 361.875 C 598.49634 365.155 599.0196 368.30915 600.28125 371.3125 C 601.54289 374.31586 603.73999 376.85132 606.875 378.90625 C 610.00998 380.92166 613.60367 381.93749 617.65625 381.9375 C 621.05884 381.93749 624.14655 381.18091 626.9375 379.71875 C 629.72837 378.21707 632.25127 375.99509 634.46875 373.03125 L 635.375 379.90625 L 650.5625 379.90625 L 660.5625 328.40625 L 632.28125 328.40625 L 629.46875 342.96875 L 634.34375 342.96875 L 632.09375 354.34375 C 631.25261 358.80929 630.362 361.83382 629.40625 363.375 C 628.48865 364.91621 627.16487 365.68751 625.40625 365.6875 C 623.80049 365.68751 622.86133 364.99987 622.59375 363.65625 C 622.32609 362.27314 622.59637 359.43248 623.4375 355.125 L 632.34375 309.0625 C 633.2995 304.16236 634.14158 301.12311 634.90625 299.9375 C 635.67084 298.75204 636.82141 298.15633 638.3125 298.15625 C 640.03287 298.15633 640.96504 298.86696 641.15625 300.25 C 641.34736 301.63321 640.91418 305.06958 639.84375 310.5625 L 638.1875 319.28125 L 662.34375 319.28125 L 663.125 315.125 C 664.61595 307.26102 665.04914 301.26619 664.4375 297.15625 C 663.82573 293.00696 661.49697 289.44095 657.40625 286.4375 C 653.35363 283.43424 647.79155 281.9376 640.71875 281.9375 z M 154.84375 282.71875 L 153.3125 290.40625 L 159.21875 290.40625 L 153.0625 321.15625 L 163.0625 321.15625 L 169.21875 290.40625 L 175.125 290.40625 L 176.6875 282.71875 L 154.84375 282.71875 z M 235.71875 283.9375 L 217.125 379.90625 L 241.28125 379.90625 L 249.09375 339.59375 L 256.3125 339.59375 L 248.5 379.90625 L 272.65625 379.90625 L 291.21875 283.9375 L 267.09375 283.9375 L 260.4375 318.25 L 253.21875 318.25 L 259.875 283.9375 L 235.71875 283.9375 z M 365.09375 283.9375 L 346.53125 379.90625 L 367.625 379.90625 L 379.90625 316.59375 L 376.5 379.90625 L 391.46875 379.90625 L 412.46875 315.125 L 399.90625 379.90625 L 421 379.90625 L 439.59375 283.9375 L 408.09375 283.9375 L 393.9375 328.75 L 395.3125 304.34375 C 395.80946 296.5193 396.15254 289.7072 396.34375 283.9375 L 365.09375 283.9375 z M 449.28125 283.9375 L 430.6875 379.90625 L 472.5625 379.90625 L 476.28125 360.6875 L 458.5625 360.6875 L 462.65625 339.59375 L 477.71875 339.59375 L 481.28125 321.34375 L 466.1875 321.34375 L 469.6875 303.15625 L 485.8125 303.15625 L 489.53125 283.9375 L 449.28125 283.9375 z M 498.15625 283.9375 L 479.5625 379.90625 L 503.71875 379.90625 L 511.15625 341.25 L 517.65625 341.25 C 522.93216 341.25004 527.3194 340.50171 530.875 339 C 534.46871 337.49836 537.14753 335.33706 538.90625 332.53125 C 540.66484 329.72553 542.1585 325.28158 543.34375 319.15625 L 544.9375 310.78125 C 546.12261 304.77461 546.67015 300.34537 546.59375 297.5 C 546.51722 294.61529 545.78951 292.17174 544.375 290.15625 C 542.9986 288.14092 540.63859 286.59833 537.3125 285.53125 C 533.98628 284.46436 529.04454 283.93759 522.46875 283.9375 L 498.15625 283.9375 z M 560.875 283.9375 L 530.03125 379.90625 L 555.03125 379.90625 L 559.78125 362.65625 L 568.4375 362.65625 L 566.34375 379.90625 L 591.03125 379.90625 L 595.8125 283.9375 L 560.875 283.9375 z M 678.4375 283.9375 L 659.875 379.90625 L 701.71875 379.90625 L 705.46875 360.6875 L 687.71875 360.6875 L 691.8125 339.59375 L 706.875 339.59375 L 710.4375 321.34375 L 695.375 321.34375 L 698.84375 303.15625 L 714.96875 303.15625 L 718.6875 283.9375 L 678.4375 283.9375 z M 189.15625 288.4375 C 189.77337 288.43754 190.12375 288.68116 190.21875 289.1875 C 190.31367 289.67807 190.19186 290.80566 189.84375 292.59375 L 186.28125 310.25 C 185.82233 312.51284 185.44146 313.9612 185.125 314.5625 C 184.82433 315.16382 184.33667 315.46876 183.65625 315.46875 C 182.99163 315.46876 182.61035 315.2097 182.53125 314.6875 C 182.45212 314.16532 182.65066 312.7937 183.09375 310.5625 L 186.6875 292.59375 C 187.08308 290.61578 187.46436 289.42688 187.8125 289.03125 C 188.17644 288.61986 188.63404 288.43754 189.15625 288.4375 z M 325.46875 298.15625 C 326.95974 298.15633 327.83306 298.79801 328.0625 300.0625 C 328.29185 301.28765 327.96605 304.1283 327.125 308.59375 L 318.59375 352.6875 C 317.48499 358.33859 316.54585 361.93584 315.78125 363.4375 C 315.05482 364.93919 313.86268 365.68751 312.21875 365.6875 C 310.61299 365.68751 309.72237 365.02286 309.53125 363.71875 C 309.34006 362.41469 309.77324 358.97829 310.84375 353.40625 L 319.5625 308.59375 C 320.51825 303.65409 321.40885 300.70677 322.25 299.71875 C 323.12928 298.69136 324.20706 298.15633 325.46875 298.15625 z M 519.0625 300.34375 C 522.19745 300.34382 524.16585 300.85588 524.96875 301.84375 C 525.77157 302.83177 525.8929 304.97009 525.28125 308.25 L 523.71875 316.125 C 523.03053 319.68167 522.16419 322.04154 521.09375 323.1875 C 520.02321 324.29406 518.37364 324.84381 516.15625 324.84375 C 515.65919 324.84385 515.06313 324.82075 514.375 324.78125 L 519.0625 300.34375 z M 575.15625 305.40625 C 573.32108 321.37153 571.97304 334.78888 571.09375 345.65625 L 562.84375 345.65625 C 565.09939 337.15995 569.19206 323.74261 575.15625 305.40625 z M 142.5625 338.71875 L 134.875 377.15625 L 143.59375 377.15625 L 148.6875 351.8125 L 147.28125 377.15625 L 153.46875 377.15625 L 162.15625 351.21875 L 156.96875 377.15625 L 165.6875 377.15625 L 173.375 338.71875 L 160.34375 338.71875 L 154.5 356.6875 L 155.0625 346.90625 C 155.26819 343.77313 155.4209 341.0291 155.5 338.71875 L 142.5625 338.71875 z M 175.125 338.71875 L 177.21875 363.25 L 174.46875 377.15625 L 183.71875 377.15625 L 186.5 363.25 L 198.6875 338.71875 L 189.5 338.71875 C 186.99978 344.70027 185.06418 349.74535 183.6875 353.84375 C 184.03562 351.24863 184.2492 346.20355 184.3125 338.71875 L 175.125 338.71875 z " />
    <path
       style="color:#000000;fill:none;stroke:#ff00ff;stroke-width:2.07708263;stroke-linecap:round;stroke-linejoin:round;stroke-miterlimit:4;stroke-opacity:1;stroke-dashoffset:0;marker:none;visibility:visible;display:inline;overflow:visible;enable-background:accumulate"
       d="m 150.13854,702.50071 349.72292,0 0,199.89308 -349.72292,0 c 66.67671,-67.75164 67.11009,-134.38995 0,-199.89308 z"
       id="rect2988"
       inkscape:connector-curvature="0"
       sodipodi:nodetypes="ccccc" />
  </g>
</svg>
