<?xml version="1.0" encoding="UTF-8" standalone="no"?>
<!-- Created with Inkscape (http://www.inkscape.org/) -->

<svg
   xmlns:dc="http://purl.org/dc/elements/1.1/"
   xmlns:cc="http://creativecommons.org/ns#"
   xmlns:rdf="http://www.w3.org/1999/02/22-rdf-syntax-ns#"
   xmlns:svg="http://www.w3.org/2000/svg"
   xmlns="http://www.w3.org/2000/svg"
   xmlns:sodipodi="http://sodipodi.sourceforge.net/DTD/sodipodi-0.dtd"
   xmlns:inkscape="http://www.inkscape.org/namespaces/inkscape"
   width="1052.3622"
   height="744.09448"
   id="svg2"
   version="1.1"
   inkscape:version="0.48.4 r9939"
   sodipodi:docname="back-to-my-homepage--final.svg">
  <sodipodi:namedview
     id="base"
     pagecolor="#ffffff"
     bordercolor="#666666"
     borderopacity="1.0"
     inkscape:pageopacity="0.0"
     inkscape:pageshadow="2"
     inkscape:zoom="0.83725927"
     inkscape:cx="326.12359"
     inkscape:cy="420.41935"
     inkscape:document-units="px"
     inkscape:current-layer="layer1"
     showgrid="false"
     inkscape:window-width="1439"
     inkscape:window-height="827"
     inkscape:window-x="273"
     inkscape:window-y="115"
     inkscape:window-maximized="0"
     showguides="false"
     inkscape:guide-bbox="true"
     inkscape:snap-global="true">
    <inkscape:grid
       empspacing="5"
       visible="true"
       enabled="true"
       snapvisiblegridlinesonly="false"
       type="xygrid"
       id="grid3073"
       spacingx="10px"
       spacingy="10px" />
    <sodipodi:guide
       orientation="0,1"
       position="601.86424,356.07132"
       id="guide3899" />
    <sodipodi:guide
       orientation="0,1"
       position="558.65171,405.85217"
       id="guide3000" />
  </sodipodi:namedview>
  <defs
     id="defs4" />
  <metadata
     id="metadata7">
    <rdf:RDF>
      <cc:Work
         rdf:about="">
        <dc:format>image/svg+xml</dc:format>
        <dc:type
           rdf:resource="http://purl.org/dc/dcmitype/StillImage" />
        <dc:title />
      </cc:Work>
    </rdf:RDF>
  </metadata>
  <g
     inkscape:label="Layer 1"
     inkscape:groupmode="layer"
     id="layer1"
     transform="translate(0,-308.26769)">
    <path
       inkscape:connector-curvature="0"
       style="font-size:145.6787262px;font-style:italic;font-variant:normal;font-weight:bold;font-stretch:normal;text-align:start;line-height:125%;letter-spacing:0px;word-spacing:0px;writing-mode:lr-tb;text-anchor:start;fill:#000000;fill-opacity:1;stroke:none;font-family:Homa;-inkscape-font-specification:Homa Bold Italic"
       d="m 470.8945,390.51363 c -9.03789,-1.49849 -16.56011,-1.28078 -22.45253,0.70369 -5.97332,1.95267 -9.96412,5.39661 -11.9558,10.37482 -1.98194,5.06924 -2.36344,10.71782 -1.19877,16.9004 1.08386,6.17676 3.29446,15.67022 6.29567,28.60137 3.23655,17.74542 5.5546,35.77107 6.94862,54.04823 0.45713,18.61251 1.37094,32.72312 3.26398,42.24167 1.69323,9.43465 5.79261,16.91841 12.3369,22.31151 6.45016,5.32397 15.02643,7.94724 25.65938,7.97383 10.04005,0.026 18.74404,-2.93673 26.11069,-8.79381 7.24292,-5.75861 12.07053,-12.44046 14.5435,-20.05731 2.3843,-7.55532 3.86004,-20.33547 3.93811,-38.27499 -0.0359,-2.22987 -0.0832,-4.45625 -0.14195,-6.6791 -11.35823,-0.94862 -22.96363,-1.91786 -34.82438,-2.90845 0.28889,7.46542 0.43812,14.96884 0.44663,22.50827 -0.21683,9.9314 -0.91623,16.21685 -1.88615,18.89116 -0.93274,2.68497 -2.74133,3.98488 -5.4055,3.88837 -2.7915,-0.10061 -4.49842,-1.54135 -5.16062,-4.317 -0.68331,-2.77669 -0.84678,-8.62395 -0.65726,-17.56367 -0.83418,-28.17122 -3.68114,-55.76919 -8.50952,-82.6867 -1.97569,-8.63325 -2.93499,-14.12849 -2.7632,-16.56505 0.22073,-2.41487 1.94667,-3.36552 5.2011,-2.87847 2.86305,0.42884 4.98251,1.73544 6.34871,3.9712 1.37929,2.17723 3.06413,7.5204 4.91655,16.02853 1.92662,9.86328 3.59236,19.82977 4.99642,29.89384 12.10924,1.34286 23.95298,2.65629 35.53989,3.94125 -0.57601,-5.32113 -1.21848,-10.61609 -1.92714,-15.88397 -2.35513,-15.32884 -5.5494,-26.58736 -9.3011,-33.97112 -3.90329,-7.40572 -10.18825,-14.01829 -18.90582,-19.8742 -8.93808,-5.88655 -19.41536,-9.82748 -31.45641,-11.8243 0,0 0,0 0,0 M 135.4807,338.60637 c 46.66001,72.32979 69.07429,149.20799 68.47898,229.24961 21.67047,0.14559 42.67349,0.28554 63.03942,0.42203 20.58731,0.13753 34.02974,-1.11174 40.7826,-3.72204 6.66084,-2.57821 11.77618,-7.42576 15.27268,-14.50523 3.31869,-7.02391 5.21269,-17.82422 5.27163,-32.38564 -0.21423,-6.63646 -0.57066,-13.25009 -1.06902,-19.83989 -1.46521,-13.77372 -4.94156,-24.04096 -10.18098,-30.98267 -5.48914,-7.04851 -14.51429,-12.64954 -27.06485,-16.76973 9.99621,-1.44683 16.07324,-4.31602 18.25572,-8.68543 2.1964,-4.3142 1.34169,-12.41665 -2.8374,-24.20221 -7.21705,-17.18292 -15.86062,-29.82427 -25.46592,-38.18043 -10.02484,-8.42454 -20.68808,-14.62512 -31.77307,-18.61335 -11.34276,-4.03734 -26.8019,-7.68533 -46.48498,-10.91595 -21.39432,-3.51082 -43.45859,-7.13253 -66.22481,-10.86897 0,0 0,0 0,0 m 180.86458,29.68386 c 19.80255,62.09403 25.16395,129.31163 15.11778,200.41909 16.04373,0.10738 31.68342,0.21215 46.93408,0.31417 2.36066,-12.47631 4.24748,-24.87367 5.67102,-37.18567 5.15446,0.21839 10.265,0.43493 15.33224,0.64954 0.12219,12.17887 -0.19525,24.40453 -0.95593,36.67028 14.21871,0.0954 28.10194,0.18796 41.66144,0.27893 -4.58302,-65.11591 -21.30008,-128.61416 -51.04134,-189.21145 -23.29882,-3.82389 -47.51998,-7.79915 -72.71929,-11.93495 0,0 0,0 0,0 m 216.35088,35.50808 c 10.29693,52.70662 13.78672,108.45223 10.04841,166.3253 10.74283,0.0723 21.26737,0.14247 31.58024,0.21136 2.46835,-24.11368 3.7511,-47.9511 3.89815,-71.44702 3.97107,23.75384 6.73663,47.62021 8.32535,71.52881 10.19299,0.0684 20.18086,0.13519 29.96979,0.20045 -3.01663,-29.53912 -7.70044,-59.06436 -14.13898,-88.43839 4.39846,-22.50655 8.07136,-44.21883 11.1524,-65.11383 -9.89822,-1.62499 -19.9993,-3.28227 -30.30949,-4.97439 -1.54807,18.46936 -3.65203,37.58686 -6.39476,57.32978 -2.03033,-20.39388 -4.90233,-40.33995 -8.59912,-59.79062 -11.57549,-1.89943 -23.41643,-3.84308 -35.53199,-5.83166 0,0 0,0 0,0 m 106.68365,17.73229 c -3.58783,20.43595 -7.64223,41.61917 -12.28925,63.53533 5.69831,28.55113 9.88972,57.23254 12.64961,85.91939 2.09345,-14.41021 3.84911,-28.71287 5.28278,-42.89477 25.51229,1.55072 49.68254,3.01988 72.6139,4.41372 -1.08888,-20.25513 -2.59514,-40.40354 -4.52304,-60.41039 -20.30312,-2.68561 -41.5693,-5.49859 -63.86872,-8.44827 -2.92545,-14.17943 -6.2111,-28.22385 -9.86528,-42.11501 0,0 0,0 0,0 M 224.7505,384.22016 c 6.16069,0.98445 10.4499,1.94035 12.91214,2.92381 2.44929,0.98104 5.02678,2.8877 7.69199,5.69741 2.56194,2.72417 5.43464,7.3604 8.46639,13.85767 5.21389,12.41672 7.36218,19.9243 6.87365,22.46064 -0.55889,2.45893 -3.57616,3.35577 -8.99128,2.71897 -1.31683,-0.15521 -3.20033,-0.34921 -5.62328,-0.54854 -6.08325,-15.93134 -13.18611,-31.64063 -21.32961,-47.11001 0,0 0,0 0,0 m 148.9666,31.07067 c 11.67041,31.7524 19.11243,59.11493 23.7685,81.62533 -4.91228,-0.37238 -9.86525,-0.74758 -14.85936,-1.12614 -0.82029,-17.60802 -2.97739,-44.77834 -8.90914,-80.49913 0,0 0,0 0,0 m 351.153,58.35809 c 1.66407,19.729 2.96484,39.5834 3.90556,59.53237 6.40905,0.38951 12.72337,0.77342 18.94503,1.15154 -0.69673,-19.42893 -1.65955,-38.78471 -2.89022,-58.04364 -6.55025,-0.86639 -13.20291,-1.74643 -19.96037,-2.64027 0,0 0,0 0,0 m 30.90915,4.08853 c 1.00072,19.00194 1.78402,38.08455 2.35102,57.2281 5.98089,0.36351 11.87632,0.72194 17.68815,1.07516 -0.35363,-18.65929 -0.84183,-37.279 -1.46506,-55.84638 -6.09874,-0.80667 -12.2894,-1.62556 -18.57411,-2.45688 0,0 0,0 0,0 m 28.7755,3.80629 c 0.42268,18.32944 0.75392,36.69518 0.99391,55.0884 5.5942,0.33998 11.11109,0.67541 16.55226,1.0061 -0.0528,-17.94113 -0.12583,-35.87597 -0.2189,-53.80252 -5.69231,-0.75291 -11.46748,-1.51687 -17.32737,-2.29198 0,0 0,0 0,0 M 255.723,465.48785 c 8.02997,1.00871 13.11649,2.59187 15.38377,4.75092 2.24245,2.15494 4.14568,7.94692 5.50434,17.39759 0.81206,6.88066 1.46014,13.78716 1.94399,20.71849 0.33652,9.04886 -0.61725,14.70189 -2.64935,16.93532 -1.97334,2.24734 -6.64725,3.38096 -14.05767,3.36115 -0.48731,-21.28414 -2.53085,-42.34745 -6.12508,-63.16347 0,0 0,0 0,0 m 3.32621,153.72446 c -3.83317,0.14221 -7.43653,0.98138 -10.83062,2.54655 -3.4203,1.57349 -6.52724,3.76722 -9.25253,6.5769 -2.73584,2.81826 -4.86879,5.88615 -6.49974,9.23896 -1.66775,3.32426 -4.20022,8.98261 -7.7243,16.9832 -2.14087,4.53854 -4.3636,9.07957 -6.66918,13.62288 -4.347,8.21874 -7.37374,13.96903 -8.90226,17.22642 -1.57156,3.25602 -2.25687,6.22117 -2.03274,8.83035 0.19914,2.60096 1.43707,4.43184 3.72325,5.52152 2.28982,1.05179 5.41668,1.38152 9.36537,0.98401 4.13674,-0.41646 8.18368,-1.48949 12.15859,-3.23839 3.94022,-1.74006 7.61946,-4.03547 10.97531,-6.87918 3.33804,-2.83789 6.07911,-5.90183 8.17698,-9.13525 2.09325,-3.26504 5.12469,-8.77533 9.00032,-16.5111 2.10698,-4.38192 4.13967,-8.76213 6.0989,-13.14036 3.32618,-7.91029 5.35012,-13.44352 6.22218,-16.58681 0.8368,-3.14352 0.84525,-5.98588 0.0603,-8.59665 -0.80911,-2.61734 -2.40951,-4.57111 -4.81424,-5.79349 -2.41381,-1.25972 -5.43862,-1.78353 -9.05554,-1.64956 0,0 0,0 0,0 m 205.80509,-7.62762 c -6.63745,0.2462 -12.88851,1.94618 -18.76195,5.16119 -5.96706,3.25027 -11.31668,7.82185 -16.1348,13.68856 -4.91231,5.90375 -8.90304,12.33522 -12.00138,19.36024 -3.24884,6.96651 -8.4124,18.84284 -16.04994,35.54081 -4.81758,9.45831 -9.96569,18.90003 -15.45456,28.32113 -10.77372,16.94795 -18.65177,28.69824 -22.90771,35.30241 -4.44429,6.57341 -7.10755,12.37702 -7.82757,17.37507 -0.80163,4.94377 0.83473,8.26541 4.94133,9.97105 4.12961,1.61872 10.26326,1.75737 18.34878,0.41664 8.40551,-1.39381 16.88353,-4.03076 25.33342,-7.83804 8.26767,-3.77411 16.07766,-8.54005 23.36109,-14.27976 7.12033,-5.73258 12.9951,-11.72368 17.69906,-18.08625 4.61045,-6.44579 11.31273,-17.33962 19.61888,-32.68449 4.35626,-8.74003 8.45524,-17.50057 12.30391,-26.27791 6.30618,-15.88425 10.0089,-27.00296 11.5528,-33.32945 1.43394,-6.33392 1.43414,-12.12952 0.0476,-17.39831 -1.45907,-5.29919 -4.28575,-9.20821 -8.44024,-11.71407 -4.19372,-2.59543 -9.4022,-3.75945 -15.62878,-3.52884 0,0 0,0 0,0 M 756.2663,600.78425 c -5.00013,0.18537 -9.4034,2.35037 -13.18824,6.59268 -3.84082,4.23958 -6.50177,8.90239 -7.95881,13.90728 -1.48835,5.01922 -3.17584,13.02989 -5.12056,24.04864 -2.13575,11.42397 -4.42339,22.84905 -6.87083,34.2677 -1.78912,7.923 -2.99115,13.83786 -3.59436,17.7606 -0.61488,3.87007 -0.64332,7.49565 -0.052,10.83931 0.58782,3.33016 2.01562,5.97964 4.28935,7.93444 2.27929,1.89748 5.0762,2.57635 8.37413,2.0295 2.74951,-0.45596 5.32342,-1.72766 7.7231,-3.75633 2.37806,-2.06628 4.59794,-4.90799 6.62669,-8.54501 7.8e-4,2.55939 -7.6e-4,5.11468 -0.008,7.66604 3.93618,-0.64774 7.83581,-1.28805 11.69933,-1.92329 3.7889,-19.61418 7.23072,-39.23667 10.36343,-58.8343 -6.57765,0.7216 -13.26156,1.4548 -20.05435,2.19997 -0.99765,5.68469 -2.02661,11.37078 -3.08778,17.05745 1.20634,-0.15495 2.40928,-0.30969 3.60876,-0.46381 -0.84125,4.42412 -1.70239,8.8481 -2.58383,13.27147 -1.03286,5.20346 -1.99386,8.76296 -2.8747,10.6349 -0.85885,1.86915 -1.9592,2.90715 -3.32094,3.11516 -1.24723,0.18979 -1.90351,-0.48754 -1.9665,-2.00007 -0.0601,-1.55965 0.44626,-4.86127 1.52365,-9.92019 3.58625,-18.04372 6.83449,-36.08802 9.77434,-54.10618 0.88378,-5.74129 1.59408,-9.31144 2.17556,-10.72364 0.57859,-1.41007 1.4064,-2.15242 2.4514,-2.2195 1.20244,-0.077 1.83071,0.70076 1.92048,2.28621 0.0884,1.58472 -0.33316,5.56539 -1.29687,11.95286 -0.51315,3.38143 -1.03574,6.76453 -1.56792,10.14911 5.69553,-0.55119 11.31403,-1.09492 16.85701,-1.63131 0.22332,-1.57638 0.44503,-3.15234 0.66514,-4.72786 1.22854,-8.93465 1.66107,-15.70175 1.33675,-20.30239 -0.33127,-4.65249 -1.82924,-8.59689 -4.5296,-11.87029 -2.69154,-3.30245 -6.45358,-4.86924 -11.31595,-4.68915 0,0 0,0 0,0 m -563.29749,22.52816 c -1.98596,5.48996 -4.0882,10.98583 -6.30803,16.48731 3.86094,-0.19888 7.70067,-0.39535 11.51942,-0.59151 -9.87688,21.84854 -21.70495,43.76035 -35.59977,65.71624 6.88999,-0.68565 13.71377,-1.36444 20.47227,-2.03699 13.33562,-21.59638 24.7015,-43.15605 34.2059,-64.65878 3.69455,-0.19031 7.36931,-0.37833 11.02437,-0.56585 2.06517,-5.31578 4.02383,-10.62651 5.87713,-15.93192 -13.45775,0.51674 -27.18546,1.04362 -41.19129,1.58139 0,0 0,0 0,0 m 140.93233,-3.12953 c -24.76816,60.75437 -64.00462,121.37969 -120.90131,181.04785 16.56852,-2.72461 32.7429,-5.38259 48.53707,-7.97919 23.58545,-23.93622 44.0552,-48.1541 61.69603,-72.57841 3.99751,-0.49714 7.96983,-0.99113 11.91724,-1.48221 -17.1068,24.1624 -36.93816,48.11547 -59.76602,71.78414 15.10894,-2.4846 29.87442,-4.91124 44.30803,-7.28397 44.44582,-54.79049 75.63551,-110.66894 95.75304,-166.80775 -11.15293,0.45125 -22.51976,0.91119 -34.10678,1.38001 -6.5674,20.73907 -14.57215,41.51107 -24.08979,62.28362 -3.72902,0.35531 -7.4807,0.71261 -11.25522,1.07227 9.78944,-20.98922 18.01346,-41.97576 24.7509,-62.92718 -12.03845,0.487 -24.31709,0.98393 -36.84319,1.49069 0,0 0,0 0,0 m 174.96107,-7.07908 c -15.34347,50.90209 -38.38829,101.51029 -70.47461,151.0749 10.15085,-1.6689 20.12423,-3.30861 29.92475,-4.91936 20.27021,-31.70147 36.8122,-63.95444 50.02229,-96.53358 -9.61422,32.1405 -22.16855,63.72404 -37.89173,94.53944 6.70533,-1.10141 13.33002,-2.19141 19.87559,-3.26748 22.00023,-32.03375 40.19339,-64.38866 55.07909,-96.83235 -11.68919,32.05775 -26.3051,63.81223 -44.18654,95.0417 8.91208,-1.46524 17.67806,-2.90645 26.30146,-4.32369 22.98738,-45.36459 39.9162,-91.58256 51.62008,-138.02733 -10.58372,0.4283 -21.39378,0.86572 -32.43751,1.31247 -7.39176,22.64918 -16.13545,45.41371 -26.35002,68.23203 3.35876,-12.19394 6.33314,-24.44451 8.9309,-36.74151 2.21154,-11.8653 3.76408,-22.20999 4.77411,-30.9789 -11.47187,0.46409 -23.19831,0.93866 -35.18786,1.42374 0,0 0,0 0,0 m 89.84045,-3.63502 c -11.29617,45.91576 -27.54667,91.6182 -49.53617,136.49866 16.34487,-2.68738 32.18408,-5.29082 47.54073,-7.81524 4.0142,-8.51385 7.82421,-17.07415 11.43659,-25.67571 -6.11068,0.90435 -12.29789,1.82003 -18.56315,2.74741 4.07034,-9.66273 7.89309,-19.36604 11.47655,-29.10341 5.07238,-0.63082 10.09298,-1.25522 15.06256,-1.87333 2.73379,-8.30874 5.31315,-16.63272 7.74222,-24.96832 -4.81035,0.47987 -9.66884,0.96456 -14.57624,1.45423 2.40369,-8.45657 4.65314,-16.91901 6.75218,-25.38387 5.09817,-0.36767 10.1432,-0.73167 15.13598,-1.09175 1.94571,-8.78043 3.74613,-17.55529 5.40495,-26.32103 -12.2995,0.49768 -24.92062,1.00829 -37.8762,1.53249 0,0 0,0 0,0 m 45.61883,-1.84577 c -9.43342,43.4015 -22.60225,86.67059 -40.08782,129.29185 8.51772,-1.40086 16.88946,-2.77661 25.11891,-4.12942 6.72951,-16.65646 12.80074,-33.45412 18.2534,-50.35756 1.99741,-0.25244 3.98638,-0.50392 5.96693,-0.75431 4.78793,-0.60529 8.88021,-2.05565 12.33394,-4.35787 3.44554,-2.29177 6.16652,-5.30699 8.15977,-9.03155 1.95795,-3.71696 3.89165,-9.4724 5.72026,-17.32599 0.79289,-3.57959 1.56559,-7.15947 2.31826,-10.73937 1.58771,-7.70423 2.43271,-13.36467 2.60029,-16.97933 0.15339,-3.66822 -0.27301,-6.74864 -1.30098,-9.26048 -1.00563,-2.52212 -2.85715,-4.41013 -5.54555,-5.66182 -2.7048,-1.26107 -6.81207,-1.77539 -12.37421,-1.55045 -6.94831,0.28106 -14.00191,0.56655 -21.1632,0.85625 0,0 0,0 0,0 m 52.72943,-2.13349 c -10.81703,40.82008 -24.5138,81.97648 -41.75529,123.03112 7.92649,-1.30335 15.71958,-2.58412 23.38266,-3.844 2.78285,-7.14914 5.45765,-14.31464 8.02812,-21.49363 2.5108,-0.3764 5.00767,-0.75072 7.49073,-1.12299 -1.69508,7.00353 -3.46735,13.98418 -5.31853,20.93974 7.27773,-1.19678 14.43876,-2.37364 21.48591,-3.53207 6.13174,-37.90784 10.62529,-76.3496 13.58477,-115.06654 -8.78414,0.35537 -17.74841,0.71818 -26.89837,1.08834 0,0 0,0 0,0 m 84.48894,-3.41851 c -4.62406,35.91165 -9.99589,72.09295 -16.3372,108.38173 10.28729,-1.6915 20.32099,-3.34064 30.1103,-4.94988 0.97582,-7.05805 1.92621,-14.10824 2.85276,-21.14942 -3.97557,0.58839 -7.99128,1.18261 -12.04775,1.78304 1.13297,-7.82383 2.2315,-15.6384 3.2979,-23.44218 3.3266,-0.41371 6.62569,-0.82398 9.89754,-1.23096 0.81572,-6.655 1.61629,-13.29804 2.40302,-19.92852 -3.19196,0.3184 -6.40989,0.63953 -9.6541,0.96316 0.82318,-6.68536 1.62967,-13.3589 2.42077,-20.02003 3.40364,-0.24542 6.77828,-0.48895 10.12425,-0.73026 0.7734,-6.91724 1.53902,-13.81832 2.29838,-20.70295 -8.27646,0.33488 -16.72983,0.67691 -25.36587,1.02633 0,0 0,0 0,0 m -526.9586,30.32055 c 1.09707,-0.053 1.6231,0.40721 1.5894,1.41666 -0.0309,0.97733 -0.71888,3.2536 -2.12488,6.87851 -5.05294,11.94797 -10.65605,23.91264 -16.82605,35.88999 -2.53134,4.60797 -4.36008,7.57239 -5.4263,8.83003 -1.04421,1.25582 -2.20563,1.95028 -3.48428,2.06681 -1.25126,0.11387 -1.75852,-0.34136 -1.48413,-1.37827 0.27025,-1.03746 1.72384,-3.83164 4.24488,-8.39631 6.36385,-12.24838 12.13168,-24.48358 17.32142,-36.70142 1.58966,-4.03024 2.77271,-6.46425 3.55676,-7.29317 0.81518,-0.86127 1.70341,-1.26807 2.63318,-1.31283 0,0 0,0 0,0 m 202.84138,6.24685 c 1.91367,-0.12271 2.84997,0.86379 2.77681,2.92797 -0.0728,1.99695 -1.38567,6.69898 -4.00767,14.11867 -9.94947,24.40161 -21.87776,48.707 -35.94186,72.84057 -6.03691,9.21931 -10.41148,15.1181 -12.84135,17.66028 -2.40645,2.53337 -4.87453,3.98755 -7.37036,4.36879 -2.44805,0.3731 -3.20345,-0.47223 -2.31696,-2.49988 0.87133,-2.03257 4.50445,-7.61836 10.66454,-16.79293 14.87933,-24.77349 27.45822,-49.72644 37.9112,-74.77861 3.00757,-8.29294 5.11801,-13.26975 6.51224,-14.98405 1.44287,-1.77976 2.98893,-2.75656 4.61341,-2.86081 0,0 0,0 0,0 M 661.24216,628.4274 c 2.70537,-0.18277 4.345,0.36977 4.93344,1.60797 0.58603,1.23574 0.4621,4.00512 -0.43614,8.30232 -0.76815,3.44154 -1.55644,6.88315 -2.36511,10.32467 -1.11338,4.66083 -2.23356,7.78888 -3.35806,9.36729 -1.12622,1.53004 -2.68164,2.39518 -4.65792,2.6021 -0.4442,0.0465 -0.97342,0.0723 -1.5829,0.0855 2.69466,-10.75939 5.18118,-21.52504 7.46669,-32.28994 0,0 0,0 0,0 m 45.77737,3.11911 c -2.87923,19.75675 -5.52491,36.30144 -7.75553,49.62984 -2.2873,0.30132 -4.58637,0.6042 -6.89735,0.90861 3.16024,-10.65698 8.19916,-27.53073 14.65288,-50.5384 0,0 0,0 0,0 M 118.02578,744.50384 c -26.552131,27.80751 -57.603177,55.56362 -93.70595,83.21933 7.752923,-1.2598 15.429392,-2.50462 23.030584,-3.73951 23.430605,-17.91077 44.684718,-35.88188 63.926436,-53.8975 -16.306519,17.58244 -34.395765,35.03835 -54.388585,52.34889 5.283445,-0.85716 10.530613,-1.71094 15.741825,-2.55638 25.645888,-18.41531 48.91146,-36.82434 69.99853,-55.21272 -18.41092,17.99451 -38.77064,35.9306 -61.236429,53.79008 7.19914,-1.16985 14.329826,-2.32612 21.393129,-3.47365 31.23358,-26.06625 58.22191,-52.29708 81.40002,-78.63483 -8.96421,1.10516 -18.04354,2.22425 -27.2402,3.35796 -12.62697,12.81473 -26.18052,25.65051 -40.71349,38.50328 6.05212,-6.71953 11.85958,-13.45608 17.42777,-20.20873 5.18625,-6.51052 9.49353,-12.21539 12.88932,-17.01297 -9.38401,1.15679 -18.89083,2.32871 -28.52296,3.51608 0,0 0,0 0,0 m 69.73902,-8.59686 c -9.37608,16.11767 -19.94513,32.06901 -31.75396,47.83745 -10.2096,9.30647 -20.96325,18.58703 -32.28394,27.83844 7.21394,-1.17153 14.35718,-2.3316 21.43083,-3.47963 10.86585,-9.10077 21.19278,-18.23215 31.00222,-27.39088 21.10548,-16.92533 40.41815,-33.77361 58.08296,-50.53489 -5.86592,0.72309 -11.7828,1.45244 -17.75138,2.18816 -12.28528,12.31915 -22.95214,22.68644 -31.66336,31.06129 4.48123,-5.15399 11.85924,-15.07176 21.43355,-29.80024 -6.11114,0.7533 -12.27656,1.5133 -18.49692,2.28007 0,0 0,0 0,0"
       id="path3027" />
  </g>
</svg>
