<?xml version="1.0" encoding="UTF-8" standalone="no"?>
<!-- Created with Inkscape (http://www.inkscape.org/) -->

<svg
   xmlns:dc="http://purl.org/dc/elements/1.1/"
   xmlns:cc="http://creativecommons.org/ns#"
   xmlns:rdf="http://www.w3.org/1999/02/22-rdf-syntax-ns#"
   xmlns:svg="http://www.w3.org/2000/svg"
   xmlns="http://www.w3.org/2000/svg"
   xmlns:sodipodi="http://sodipodi.sourceforge.net/DTD/sodipodi-0.dtd"
   xmlns:inkscape="http://www.inkscape.org/namespaces/inkscape"
   width="777.36652"
   height="242.85614"
   id="svg2"
   version="1.1"
   inkscape:version="0.48.4 r9939"
   sodipodi:docname="back-to-my-homepage-slanted-path.svg">
  <defs
     id="defs4" />
  <sodipodi:namedview
     id="base"
     pagecolor="#ffffff"
     bordercolor="#666666"
     borderopacity="1.0"
     inkscape:pageopacity="0.0"
     inkscape:pageshadow="2"
     inkscape:zoom="0.83860318"
     inkscape:cx="389.68137"
     inkscape:cy="173.24155"
     inkscape:document-units="px"
     inkscape:current-layer="layer1"
     showgrid="true"
     inkscape:window-width="1439"
     inkscape:window-height="827"
     inkscape:window-x="273"
     inkscape:window-y="115"
     inkscape:window-maximized="0"
     showguides="true"
     inkscape:guide-bbox="true"
     inkscape:snap-global="false"
     fit-margin-top="0"
     fit-margin-left="0"
     fit-margin-right="0"
     fit-margin-bottom="0">
    <inkscape:grid
       empspacing="5"
       visible="true"
       enabled="true"
       snapvisiblegridlinesonly="false"
       type="xygrid"
       id="grid3073"
       spacingx="10px"
       spacingy="10px"
       originx="-136.49972px"
       originy="-198.80569px" />
    <sodipodi:guide
       orientation="0,1"
       position="465.36452,157.26563"
       id="guide3899" />
    <sodipodi:guide
       orientation="0,1"
       position="422.15199,207.04648"
       id="guide3000" />
  </sodipodi:namedview>
  <metadata
     id="metadata7">
    <rdf:RDF>
      <cc:Work
         rdf:about="">
        <dc:format>image/svg+xml</dc:format>
        <dc:type
           rdf:resource="http://purl.org/dc/dcmitype/StillImage" />
        <dc:title />
      </cc:Work>
    </rdf:RDF>
  </metadata>
  <g
     inkscape:label="Layer 1"
     inkscape:groupmode="layer"
     id="layer1"
     transform="translate(-136.49972,-610.70035)">
    <g
       id="logo"
       inkscape:label="#g3032"
       transform="matrix(1.3165792,0,-0.09329278,1,36.558391,0)">
      <g
         style="font-size:145.6787262px;font-style:italic;font-variant:normal;font-weight:bold;font-stretch:normal;text-align:start;line-height:125%;letter-spacing:0px;word-spacing:0px;writing-mode:lr-tb;text-anchor:start;fill:#000000;fill-opacity:1;stroke:none;font-family:Homa;-inkscape-font-specification:Homa Bold Italic"
         id="text3004">
        <path
           d="m 182.76983,613.11884 29.87552,0 c 9.4368,1.2e-4 16.43146,0.73515 20.98399,2.2051 4.55238,1.47018 7.87188,4.45773 9.95851,8.96266 2.13387,4.45771 2.20501,11.66577 0.2134,21.62418 -1.37531,6.73393 -3.39072,11.42865 -6.04624,14.08418 -2.60826,2.65566 -7.16072,4.69479 -13.65738,6.11737 6.59151,1.56496 10.76459,4.17314 12.51927,7.82454 1.75451,3.60408 1.87306,9.15238 0.35566,16.64493 l -2.13397,10.66983 c -1.56499,7.77714 -3.60411,13.53884 -6.11737,17.28512 -2.51341,3.7463 -5.85662,6.30706 -10.02964,7.68228 -4.17315,1.37522 -12.28221,2.06283 -24.3272,2.06283 l -34.64138,0 23.04683,-115.16302 m 25.96325,19.70362 -5.12152,25.60759 c 1.32775,-0.0474 2.34731,-0.0711 3.05868,-0.0711 2.94008,7e-5 4.95549,-0.71125 6.04624,-2.13397 1.09063,-1.46999 2.32359,-5.61936 3.69887,-12.44813 0.71126,-3.60394 0.87724,-6.11728 0.49793,-7.54001 -0.37943,-1.46998 -1.06705,-2.39469 -2.06283,-2.77416 -0.99591,-0.37928 -3.03504,-0.59267 -6.11737,-0.64019 m -8.67813,43.5329 -6.47303,32.22288 c 4.26789,-0.14224 7.08946,-0.80614 8.46473,-1.9917 1.4226,-1.18551 2.60813,-4.10193 3.55661,-8.74926 l 2.13397,-10.74096 c 0.99579,-4.93178 1.06692,-7.91933 0.21339,-8.96265 -0.85364,-1.04322 -3.48552,-1.63599 -7.89567,-1.77831"
           id="path3048"
           inkscape:connector-curvature="0" />
        <path
           d="m 315.00457,613.11884 -5.90397,115.16302 -30.65798,0 2.63189,-20.69947 -10.74096,0 -5.90397,20.69947 -31.01364,0 38.26912,-115.16302 43.31951,0 m -30.65798,74.04861 c 1.09065,-13.04084 2.77411,-29.14041 5.05039,-48.29875 -7.3978,22.00362 -12.4956,38.10319 -15.29342,48.29875 l 10.24303,0"
           id="path3050"
           inkscape:connector-curvature="0" />
        <path
           d="m 397.16225,663.33817 -29.94665,0 3.9834,-20.05928 c 1.18547,-5.83275 1.58855,-9.46048 1.20925,-10.88322 -0.33202,-1.46997 -1.58869,-2.205 -3.77001,-2.2051 -2.46597,10e-5 -4.22057,0.87739 -5.26378,2.63189 -0.99591,1.75469 -2.0866,5.5484 -3.27208,11.38115 l -10.66983,53.49141 c -1.13816,5.59576 -1.54124,9.2472 -1.20925,10.95436 0.33191,1.70719 1.65971,2.56077 3.9834,2.56075 2.22877,2e-5 3.84109,-0.85356 4.83699,-2.56075 1.04322,-1.70716 2.20505,-5.71426 3.48548,-12.02134 l 2.91642,-14.43984 29.94665,0 -0.92472,4.48133 c -2.37115,11.90282 -4.9082,20.34383 -7.61114,25.32306 -2.65568,4.97926 -7.25555,9.34203 -13.79965,13.08832 -6.49679,3.7463 -13.96567,5.61944 -22.40664,5.61944 -8.773,0 -15.69652,-1.58861 -20.7706,-4.76585 -5.02669,-3.17723 -7.91939,-7.56371 -8.67812,-13.15946 -0.71134,-5.64313 0.0711,-14.10785 2.34736,-25.39419 l 6.75756,-33.64553 c 1.65973,-8.29867 3.17721,-14.51087 4.55246,-18.63663 1.42261,-4.17299 3.91224,-8.1801 7.46888,-12.02134 3.60399,-3.84103 8.13274,-6.85229 13.58625,-9.03379 5.45341,-2.22869 11.42851,-3.34309 17.92531,-3.34321 8.82032,1.2e-4 15.74384,1.70729 20.7706,5.12152 5.074,3.41445 7.99042,7.68238 8.74926,12.80379 0.80607,5.07419 0.11846,12.99357 -2.06284,23.75815 l -2.13396,10.95436"
           id="path3052"
           inkscape:connector-curvature="0" />
        <path
           d="m 489.4207,613.11884 -27.52816,51.99764 6.11737,63.16538 -30.9425,0 -2.2051,-49.36574 -9.88738,49.36574 -29.94665,0 23.04683,-115.16302 29.94665,0 -8.96265,44.74215 22.26437,-44.74215 28.09722,0"
           id="path3054"
           inkscape:connector-curvature="0" />
      </g>
      <g
         style="font-size:48.61144257px;font-style:italic;font-variant:normal;font-weight:bold;font-stretch:normal;text-align:start;line-height:125%;letter-spacing:0px;word-spacing:0px;writing-mode:lr-tb;text-anchor:start;fill:#000000;fill-opacity:1;stroke:none;font-family:Homa;-inkscape-font-specification:Homa Bold Italic"
         id="text3032">
        <path
           d="m 174.57886,810.3635 -7.69048,38.42868 -8.73487,0 5.1982,-25.94351 -8.6874,25.94351 -6.19511,0 1.40043,-25.35011 -5.07952,25.35011 -8.73486,0 7.69048,-38.42868 12.93615,0 c -0.0791,2.31035 -0.22156,5.03208 -0.42725,8.1652 l -0.56967,9.77926 5.86281,-17.94446 13.03109,0"
           id="path3057"
           inkscape:connector-curvature="0" />
        <path
           d="m 199.8815,810.3635 -12.20033,24.51935 -2.77712,13.90933 -9.25706,0 2.77712,-13.90933 -2.11251,-24.51935 9.18585,0 c -0.0633,7.4848 -0.26902,12.52475 -0.61714,15.11987 1.37668,-4.0984 3.31512,-9.13835 5.81534,-15.11987 l 9.18585,0"
           id="path3059"
           inkscape:connector-curvature="0" />
      </g>
      <g
         transform="scale(0.98359162,1.0166821)"
         style="font-size:119.40697479px;font-style:italic;font-variant:normal;font-weight:bold;font-stretch:normal;text-align:start;line-height:125%;letter-spacing:0px;word-spacing:0px;writing-mode:lr-tb;text-anchor:start;fill:#000000;fill-opacity:1;stroke:none;font-family:Homa;-inkscape-font-specification:Homa Bold Italic"
         id="text3044">
        <path
           d="m 297.30374,743.17419 -18.89056,94.39447 -24.54606,0 7.92937,-39.64684 -7.34633,0 -7.92937,39.64684 -24.54606,0 18.89056,-94.39447 24.54606,0 -6.76329,33.75812 7.34633,0 6.76329,-33.75812 24.54606,0"
           id="path3062"
           inkscape:connector-curvature="0" />
        <path
           d="m 352.10968,798.44656 c -1.90467,9.48417 -3.47888,16.20858 -4.72264,20.17324 -1.20502,3.92583 -3.3234,7.52126 -6.35516,10.78628 -2.993,3.26504 -6.66616,5.77212 -11.01949,7.52124 -4.35342,1.74912 -9.19266,2.62368 -14.51774,2.62369 -5.05306,-10e-6 -9.42587,-0.81626 -13.11844,-2.44878 -3.69262,-1.67138 -6.43291,-4.15903 -8.22089,-7.46293 -1.78801,-3.3039 -2.52653,-6.89932 -2.21556,-10.78628 0.31094,-3.88692 1.43816,-10.68907 3.38164,-20.40646 l 3.26503,-16.15026 c 1.86572,-9.48409 3.4205,-16.18906 4.66434,-20.11495 1.2438,-3.9646 3.36218,-7.57946 6.35516,-10.84458 3.03178,-3.26494 6.72438,-5.77202 11.07779,-7.52124 4.35334,-1.74903 9.19258,-2.62359 14.51774,-2.62369 5.05298,1e-4 9.42579,0.83579 13.11845,2.50708 3.69253,1.63261 6.43282,4.10082 8.22089,7.40464 1.78792,3.30398 2.52644,6.8994 2.21556,10.78627 -0.31104,3.88702 -1.43825,10.68917 -3.38165,20.40647 l -3.26503,16.15026 m -18.30752,-31.01783 c 0.85508,-4.39218 1.16604,-7.19077 0.93287,-8.39581 -0.23327,-1.24374 -1.10783,-1.86565 -2.62369,-1.86573 -1.28274,8e-5 -2.37108,0.50538 -3.26503,1.51591 -0.85518,0.97181 -1.76861,3.88702 -2.7403,8.74563 l -8.86224,44.07796 c -1.08837,5.48062 -1.53537,8.86226 -1.34099,10.14493 0.19431,1.28271 1.10774,1.92405 2.74029,1.92404 1.67135,10e-6 2.87631,-0.73851 3.61486,-2.21556 0.77735,-1.47702 1.72965,-4.9947 2.85691,-10.55306 l 8.68732,-43.37831"
           id="path3064"
           inkscape:connector-curvature="0" />
        <path
           d="m 448.13667,743.17419 -18.89056,94.39447 -21.45594,0 12.76862,-63.72647 -21.33934,63.72647 -15.21739,0 3.43995,-62.26887 -12.4771,62.26887 -21.45594,0 18.89056,-94.39447 31.77578,0 c -0.1944,5.67503 -0.54423,12.36057 -1.04948,20.05664 l -1.3993,24.02132 14.40114,-44.07796 32.009,0"
           id="path3066"
           inkscape:connector-curvature="0" />
        <path
           d="m 457.99007,743.17419 40.92954,0 -3.78977,18.89055 -16.38348,0 -3.55655,17.89939 15.334,0 -3.61486,17.95769 -15.334,0 -4.1396,20.75629 18.016,0 -3.78978,18.89055 -42.56205,0 18.89055,-94.39447"
           id="path3068"
           inkscape:connector-curvature="0" />
        <path
           d="m 507.66524,743.17419 24.72098,0 c 6.68549,9e-5 11.71908,0.52483 15.10078,1.57421 3.38158,1.04957 5.77205,2.56547 7.17142,4.54773 1.4381,1.98242 2.19605,4.39233 2.27386,7.22971 0.0777,2.79868 -0.48594,7.15206 -1.69082,13.06014 l -1.63252,8.22089 c -1.20502,6.02482 -2.70149,10.41707 -4.48942,13.17675 -1.78806,2.75977 -4.50892,4.87816 -8.16258,6.35516 -3.61492,1.47707 -8.10434,2.21559 -13.46827,2.21555 l -6.58838,0 -7.57954,38.01433 -24.54606,0 18.89055,-94.39447 m 21.28103,16.15026 -4.78094,24.02132 c 0.69961,0.0389 1.30208,0.0584 1.80743,0.0583 2.25438,6e-5 3.92577,-0.54411 5.01416,-1.63251 1.0883,-1.12716 1.98229,-3.43989 2.68199,-6.9382 l 1.57421,-7.75446 c 0.62186,-3.22609 0.52469,-5.32504 -0.29152,-6.29685 -0.8163,-0.97166 -2.81808,-1.45753 -6.00533,-1.4576"
           id="path3070"
           inkscape:connector-curvature="0" />
        <path
           d="m 606.95727,743.17419 -4.83925,94.39447 -25.12911,0 2.15726,-16.96651 -8.80393,0 -4.83925,16.96651 -25.42063,0 31.36766,-94.39447 35.50725,0 m -25.12911,60.69465 c 0.89396,-10.68905 2.27382,-23.88522 4.1396,-39.58854 -6.06368,18.03549 -10.24214,31.23165 -12.5354,39.58854 l 8.3958,0"
           id="path3072"
           inkscape:connector-curvature="0" />
        <path
           d="m 674.59012,777.92348 -24.54606,0 1.69082,-8.57071 c 1.08829,-5.40279 1.53529,-8.78442 1.341,-10.14493 -0.1944,-1.36035 -1.16614,-2.04057 -2.91521,-2.04065 -1.51596,8e-5 -2.66261,0.58312 -3.43995,1.74913 -0.77743,1.16616 -1.652,4.1591 -2.62369,8.97884 l -9.03715,45.30235 c -0.85516,4.2368 -1.14668,7.03539 -0.87456,8.39581 0.27205,1.32157 1.22435,1.98235 2.8569,1.98234 1.78796,10e-6 3.14839,-0.75794 4.0813,-2.27386 0.97169,-1.51589 1.88512,-4.46997 2.74029,-8.86224 l 2.27387,-11.1944 -4.95586,0 2.85691,-14.34283 28.74396,0 -10.14493,50.66633 -15.45061,0 -0.93286,-6.76328 c -2.25448,2.91521 -4.80042,5.11133 -7.63785,6.58837 -2.83751,1.43817 -5.98593,2.15725 -9.44528,2.15726 -4.12019,-10e-6 -7.77391,-0.99118 -10.96119,-2.97352 -3.18731,-2.02121 -5.4223,-4.50885 -6.70498,-7.46293 -1.2827,-2.95407 -1.82687,-6.04419 -1.63252,-9.27037 0.19434,-3.26501 0.93286,-8.14312 2.21556,-14.63435 l 5.5972,-28.04431 c 1.82685,-9.01765 3.63428,-15.56715 5.42229,-19.64851 1.78797,-4.08121 5.32509,-7.81268 10.61137,-11.19441 5.2862,-3.42042 11.58305,-5.13067 18.89055,-5.13077 7.19079,1e-4 12.84629,1.47714 16.96652,4.43112 4.15896,2.95417 6.54943,6.47185 7.17141,10.55306 0.62184,4.0425 0.17484,9.93122 -1.34099,17.66617 l -0.81626,4.08129"
           id="path3074"
           inkscape:connector-curvature="0" />
        <path
           d="m 690.97362,743.17419 40.92954,0 -3.78977,18.89055 -16.38347,0 -3.55656,17.89939 15.334,0 -3.61486,17.95769 -15.334,0 -4.1396,20.75629 18.016,0 -3.78978,18.89055 -42.56205,0 18.89055,-94.39447"
           id="path3076"
           inkscape:connector-curvature="0" />
      </g>
      <g
         transform="translate(10.000001,0)"
         id="text3060"
         style="font-size:145.6787262px;font-style:italic;font-variant:normal;font-weight:bold;font-stretch:normal;text-align:start;line-height:125%;letter-spacing:0px;word-spacing:0px;writing-mode:lr-tb;text-anchor:start;fill:#000000;fill-opacity:1;stroke:none;font-family:Homa;-inkscape-font-specification:Homa Bold Italic">
        <path
           inkscape:label="#path3071"
           sodipodi:nodetypes="ccccccc"
           inkscape:connector-curvature="0"
           id="K-arrow"
           d="m 504.7293,613.27587 -27.52816,51.99764 6.11737,63.16538 7.99009,-31.91969 88,-3e-5 0,-49.99997 -74,0" />
      </g>
      <path
         inkscape:label="#path3071-6"
         sodipodi:nodetypes="cccc"
         inkscape:connector-curvature="0"
         id="K-arrow-rect-1"
         d="m 604.14166,696.51917 26.09606,0 0,-50.0003 -26.09606,0"
         style="font-size:145.6787262px;font-style:italic;font-variant:normal;font-weight:bold;font-stretch:normal;text-align:start;line-height:125%;letter-spacing:0px;word-spacing:0px;writing-mode:lr-tb;text-anchor:start;fill:#000000;fill-opacity:1;stroke:none;font-family:Homa;-inkscape-font-specification:Homa Bold Italic" />
      <path
         style="font-size:145.6787262px;font-style:italic;font-variant:normal;font-weight:bold;font-stretch:normal;text-align:start;line-height:125%;letter-spacing:0px;word-spacing:0px;writing-mode:lr-tb;text-anchor:start;fill:#000000;fill-opacity:1;stroke:none;font-family:Homa;-inkscape-font-specification:Homa Bold Italic"
         d="m 645.0708,696.51917 26.09606,0 0,-50.0003 -26.09606,0"
         id="path3002"
         inkscape:connector-curvature="0"
         sodipodi:nodetypes="cccc"
         inkscape:label="#path3071-6" />
      <path
         inkscape:label="#path3071-6"
         sodipodi:nodetypes="cccc"
         inkscape:connector-curvature="0"
         id="path3004"
         d="m 685.99994,696.51917 26.09606,0 0,-50.0003 -26.09606,0"
         style="font-size:145.6787262px;font-style:italic;font-variant:normal;font-weight:bold;font-stretch:normal;text-align:start;line-height:125%;letter-spacing:0px;word-spacing:0px;writing-mode:lr-tb;text-anchor:start;fill:#000000;fill-opacity:1;stroke:none;font-family:Homa;-inkscape-font-specification:Homa Bold Italic" />
      <g
         style="font-size:48.61144257px;font-style:italic;font-variant:normal;font-weight:bold;font-stretch:normal;text-align:start;line-height:125%;letter-spacing:0px;word-spacing:0px;writing-mode:lr-tb;text-anchor:start;fill:#000000;fill-opacity:1;stroke:none;font-family:Homa;-inkscape-font-specification:Homa Bold Italic"
         id="text2997">
        <path
           d="m 177.8739,754.3635 -1.54284,7.69048 -5.93401,0 -6.14764,30.7382 -9.99288,0 6.14764,-30.7382 -5.91028,0 1.54284,-7.69048 21.83717,0"
           id="path3079"
           inkscape:connector-curvature="0" />
        <path
           d="m 198.4768,776.86528 c -0.7754,3.86108 -1.41628,6.59863 -1.92262,8.21268 -0.49057,1.59823 -1.35298,3.06195 -2.58723,4.39117 -1.21847,1.32922 -2.71384,2.34987 -4.48612,3.06195 -1.7723,0.71208 -3.7424,1.06812 -5.91027,1.06812 -2.05714,0 -3.83734,-0.3323 -5.34062,-0.99691 -1.50329,-0.68044 -2.61888,-1.69317 -3.34678,-3.03822 -0.72791,-1.34504 -1.02857,-2.80876 -0.90197,-4.39117 0.12659,-1.58239 0.58549,-4.3516 1.37669,-8.30762 l 1.32922,-6.57489 c 0.75955,-3.86103 1.39251,-6.59068 1.89889,-8.18894 0.50636,-1.61401 1.36876,-3.08565 2.58723,-4.4149 1.23426,-1.32918 2.73754,-2.34983 4.50985,-3.06195 1.77227,-0.71205 3.74236,-1.06809 5.91027,-1.06813 2.05711,4e-5 3.83731,0.34026 5.34062,1.02066 1.50325,0.66464 2.61885,1.66947 3.34678,3.01447 0.72788,1.34508 1.02853,2.8088 0.90197,4.39117 -0.12662,1.58244 -0.58552,4.35164 -1.37669,8.30762 l -1.32922,6.57489 m -7.45312,-12.62758 c 0.34811,-1.78809 0.4747,-2.92742 0.37978,-3.41799 -0.095,-0.50634 -0.45101,-0.75952 -1.06813,-0.75956 -0.52221,4e-5 -0.96528,0.20575 -1.32922,0.61714 -0.34814,0.39563 -0.72001,1.58244 -1.11559,3.56041 l -3.60788,17.94446 c -0.44309,2.2312 -0.62506,3.60789 -0.54593,4.13007 0.0791,0.5222 0.45097,0.7833 1.11559,0.78329 0.68042,1e-5 1.17097,-0.30065 1.47164,-0.90197 0.31646,-0.6013 0.70415,-2.03338 1.16307,-4.29622 l 3.53667,-17.65963"
           id="path3081"
           inkscape:connector-curvature="0" />
      </g>
    </g>
  </g>
</svg>
