<?xml version="1.0" encoding="UTF-8" standalone="no"?>
<!-- Created with Inkscape (http://www.inkscape.org/) -->

<svg
   xmlns:dc="http://purl.org/dc/elements/1.1/"
   xmlns:cc="http://creativecommons.org/ns#"
   xmlns:rdf="http://www.w3.org/1999/02/22-rdf-syntax-ns#"
   xmlns:svg="http://www.w3.org/2000/svg"
   xmlns="http://www.w3.org/2000/svg"
   xmlns:sodipodi="http://sodipodi.sourceforge.net/DTD/sodipodi-0.dtd"
   xmlns:inkscape="http://www.inkscape.org/namespaces/inkscape"
   sodipodi:docname="foobar.svg"
   inkscape:version="0.48.4 r9939"
   version="1.1"
   id="svg2"
   height="744.09448"
   width="1052.3622">
  <sodipodi:namedview
     id="base"
     pagecolor="#ffffff"
     bordercolor="#666666"
     borderopacity="1.0"
     inkscape:pageopacity="0.0"
     inkscape:pageshadow="2"
     inkscape:zoom="0.80231747"
     inkscape:cx="526.18109"
     inkscape:cy="372.04724"
     inkscape:document-units="px"
     inkscape:current-layer="layer1"
     showgrid="false"
     inkscape:window-width="1444"
     inkscape:window-height="800"
     inkscape:window-x="416"
     inkscape:window-y="0"
     inkscape:window-maximized="0" />
  <defs
     id="defs4" />
  <metadata
     id="metadata7">
    <rdf:RDF>
      <cc:Work
         rdf:about="">
        <dc:format>image/svg+xml</dc:format>
        <dc:type
           rdf:resource="http://purl.org/dc/dcmitype/StillImage" />
        <dc:title></dc:title>
      </cc:Work>
    </rdf:RDF>
  </metadata>
  <g
     inkscape:label="Layer 1"
     inkscape:groupmode="layer"
     id="layer1"
     transform="translate(0,-308.2677)">
    <path
       id="path3121"
       d="M102.20393 923.98407C380.31465 707.48408 651.66548 752.36686 919.83539 920.2449C919.83539 920.2449 918.589 921.49129 918.589 921.49129"
       style="fill:none;stroke:#000000;stroke-width:1px;stroke-linecap:butt;stroke-linejoin:miter;stroke-opacity:1" />
    <path
       inkscape:connector-curvature="0"
       style="font-size:145.6787262px;font-style:italic;font-variant:normal;font-weight:bold;font-stretch:normal;text-align:start;line-height:125%;letter-spacing:0px;word-spacing:0px;writing-mode:lr-tb;text-anchor:start;fill:#000000;fill-opacity:1;stroke:none;font-family:Homa;-inkscape-font-specification:Homa Bold Italic"
       d="m 397.56074,436.10808 c -6.4968,1.2e-4 -12.48409,1.11506 -17.9375,3.34375 -5.45351,2.1815 -9.98976,5.19022 -13.59374,9.03125 -3.55664,3.84124 -6.04614,7.85826 -7.46875,12.03125 -1.37525,4.12576 -2.87152,10.32633 -4.53125,18.625 l -6.78125,33.65625 c -2.27626,11.28634 -3.05509,19.73187 -2.34375,25.375 0.75873,5.59575 3.66081,10.01027 8.6875,13.1875 5.07408,3.17724 12.00825,4.75 20.78124,4.75 8.44097,0 15.90946,-1.8787 22.40625,-5.625 6.5441,-3.74629 11.12557,-8.11449 13.78125,-13.09375 2.70294,-4.97923 5.25385,-13.40968 7.625,-25.3125 l 0.90625,-4.46875 -29.9375,0 -2.90625,14.4375 c -1.28043,6.30708 -2.45678,10.29284 -3.5,12 -0.9959,1.70719 -2.61498,2.56252 -4.84375,2.5625 -2.32369,2e-5 -3.63684,-0.85531 -3.96875,-2.5625 -0.33199,-1.70716 0.0806,-5.34174 1.21875,-10.9375 l 10.65625,-53.5 c 1.18548,-5.83275 2.28534,-9.62031 3.28125,-11.375 1.04321,-1.7545 2.78403,-2.6249 5.25,-2.625 2.18132,1e-4 3.44923,0.71753 3.78125,2.1875 0.3793,1.42274 -0.0333,5.0735 -1.21875,10.90625 l -3.96875,20.0625 29.9375,0 2.125,-10.96875 c 2.1813,-10.76458 2.86857,-18.67581 2.0625,-23.75 -0.75884,-5.12141 -3.676,-9.39805 -8.75,-12.8125 -5.02676,-3.41423 -11.92968,-5.12488 -20.75,-5.125 z m -189.09374,2.40625 -23.03125,115.1875 34.65625,0 c 12.04499,0 20.13935,-0.68728 24.3125,-2.0625 4.17302,-1.37522 7.51784,-3.9412 10.03125,-7.6875 2.51326,-3.74628 4.56001,-9.50411 6.125,-17.28125 l 2.125,-10.6875 c 1.5174,-7.49255 1.41076,-13.02092 -0.34375,-16.625 -1.75468,-3.6514 -5.93974,-6.27879 -12.53125,-7.84375 6.49666,-1.42258 11.04799,-3.43809 13.65625,-6.09375 2.65552,-2.65553 4.65594,-7.35982 6.03125,-14.09375 1.99161,-9.95841 1.94637,-17.16729 -0.1875,-21.625 -2.08663,-4.50493 -5.41637,-7.49857 -9.96875,-8.96875 -4.55253,-1.46995 -11.5632,-2.21863 -21,-2.21875 l -29.875,0 z m 88.9375,0 -38.28125,115.1875 31.03125,0 5.90625,-20.71875 10.71875,0 -2.625,20.71875 30.65625,0 5.90625,-115.1875 -43.3125,0 z m 146.37499,0 -23.03125,115.1875 29.9375,0 9.875,-49.375 2.21875,49.375 30.9375,0 -6.125,-63.1875 27.53125,-52 -28.09375,0 -22.25,44.75 8.96875,-44.75 -29.96875,0 z m 96.65625,0.1875 -27.53125,51.96875 6.125,63.1875 8,-31.9375 88,0 0,-50 -74,0 -0.59375,-33.21875 z m -305.99999,19.53125 c 3.08233,0.0475 5.12909,0.24572 6.125,0.625 0.99578,0.37947 1.68307,1.31127 2.0625,2.78125 0.37931,1.42273 0.21126,3.95856 -0.5,7.5625 -1.37528,6.82877 -2.59687,10.96751 -3.6875,12.4375 -1.09075,1.42272 -3.12242,2.12507 -6.0625,2.125 -0.71137,0 -1.73475,0.0151 -3.0625,0.0625 l 5.125,-25.59375 z m 80.6875,6.03125 c -2.27628,19.15834 -3.97185,35.27166 -5.0625,48.3125 l -10.25,0 c 2.79782,-10.19556 7.9147,-26.30888 15.3125,-48.3125 z m 314.71874,7.65625 0,50 26.09375,0 0,-50 -26.09375,0 z m 40.9375,0 0,50 26.09375,0 0,-50 -26.09375,0 z m 40.9375,0 0,50 26.09375,0 0,-50 -26.09375,0 z M 225.7795,501.76433 c 4.41015,0.14232 7.02136,0.73803 7.875,1.78125 0.85353,1.04332 0.77704,4.03697 -0.21875,8.96875 l -2.125,10.71875 c -0.94848,4.64733 -2.1399,7.56449 -3.5625,8.75 -1.37527,1.18556 -4.20086,1.85776 -8.46875,2 l 6.5,-32.21875 z m -8.46875,77.21875 c -2.16791,4e-5 -4.13398,0.35045 -5.90625,1.0625 -1.77231,0.71212 -3.29699,1.73332 -4.53125,3.0625 -1.21847,1.32925 -2.05614,2.79224 -2.5625,4.40625 -0.50638,1.59826 -1.1467,4.32647 -1.90625,8.1875 l -1.34375,6.5625 c -0.7912,3.95602 -1.24841,6.73011 -1.375,8.3125 -0.1266,1.58241 0.17834,3.06121 0.90625,4.40625 0.7279,1.34505 1.84046,2.35081 3.34375,3.03125 1.50328,0.66461 3.28661,1 5.34375,1 2.16787,0 4.13395,-0.35042 5.90625,-1.0625 1.77228,-0.71208 3.28153,-1.73328 4.5,-3.0625 1.23425,-1.32922 2.10318,-2.80802 2.59375,-4.40625 0.50634,-1.61405 1.13085,-4.35767 1.90625,-8.21875 l 1.34375,-6.5625 c 0.79117,-3.95598 1.24838,-6.73006 1.375,-8.3125 0.12656,-1.58237 -0.17837,-3.02992 -0.90625,-4.375 -0.72793,-1.345 -1.8405,-2.36661 -3.34375,-3.03125 -1.50331,-0.6804 -3.28664,-0.99996 -5.34375,-1 z m 138.09375,0 c -5.23778,10e-5 -9.99934,0.87804 -14.28125,2.65625 -4.28198,1.7784 -7.89297,4.33684 -10.875,7.65625 -2.94387,3.31958 -5.02661,6.96926 -6.25,11 -1.22343,3.99138 -2.75864,10.82644 -4.59375,20.46875 l -3.21875,16.40625 c -1.9116,9.87949 -3.00666,16.79824 -3.3125,20.75 -0.30587,3.9518 0.39758,7.60973 2.15625,10.96875 1.75864,3.35901 4.46172,5.89449 8.09375,7.59375 3.63198,1.65976 7.93611,2.49999 12.90625,2.5 5.23771,-10e-6 9.99926,-0.90921 14.28125,-2.6875 4.2819,-1.7783 7.89986,-4.33675 10.84375,-7.65625 2.98201,-3.31949 5.06475,-6.94618 6.25,-10.9375 1.22335,-4.0308 2.75157,-10.88887 4.62499,-20.53125 l 3.21875,-16.40625 c 1.91151,-9.87941 3.03781,-16.79813 3.34375,-20.75 0.30578,-3.95171 -0.42891,-7.60965 -2.1875,-10.96875 -1.75873,-3.35893 -4.46181,-5.8714 -8.09374,-7.53125 -3.63207,-1.69917 -7.93618,-2.53115 -12.90625,-2.53125 z m 312.21874,0 c -7.1876,10e-5 -13.39429,1.71002 -18.59375,5.1875 -5.19954,3.43814 -8.67887,7.25696 -10.4375,11.40625 -1.75868,4.14945 -3.54688,10.80067 -5.34375,19.96875 l -5.5,28.5 c -1.26166,6.59952 -1.9651,11.55553 -2.15625,14.875 -0.19116,3.28 0.3321,6.43415 1.59375,9.4375 1.26164,3.00336 3.45874,5.53882 6.59375,7.59375 3.13498,2.01541 6.72867,3.03124 10.78125,3.03125 3.40259,-10e-6 6.4903,-0.75659 9.28125,-2.21875 2.79087,-1.50168 5.31377,-3.72366 7.53125,-6.6875 l 0.90625,6.875 15.1875,0 10,-51.5 -28.28125,0 -2.8125,14.5625 4.875,0 -2.25,11.375 c -0.84114,4.46554 -1.73175,7.49007 -2.6875,9.03125 -0.9176,1.54121 -2.24138,2.31251 -4,2.3125 -1.60576,10e-6 -2.54492,-0.68763 -2.8125,-2.03125 -0.26766,-1.38311 0.003,-4.22377 0.84375,-8.53125 l 8.90625,-46.0625 c 0.95575,-4.90014 1.79783,-7.93939 2.5625,-9.125 0.76459,-1.18546 1.91516,-1.78117 3.40625,-1.78125 1.72037,8e-5 2.65254,0.71071 2.84375,2.09375 0.19111,1.38321 -0.24207,4.81958 -1.3125,10.3125 l -1.65625,8.71875 24.15625,0 0.78125,-4.15625 c 1.49095,-7.86398 1.92414,-13.85881 1.3125,-17.96875 -0.61177,-4.14929 -2.94053,-7.7153 -7.03125,-10.71875 -4.05262,-3.00326 -9.6147,-4.4999 -16.6875,-4.5 z m -485.87499,0.78125 -1.53125,7.6875 5.90625,0 -6.15625,30.75 10,0 6.15625,-30.75 5.90625,0 1.5625,-7.6875 -21.84375,0 z m 80.875,1.21875 -18.59375,95.96875 24.15625,0 7.8125,-40.3125 7.21875,0 -7.8125,40.3125 24.15625,0 18.5625,-95.96875 -24.125,0 -6.65625,34.3125 -7.21875,0 6.65625,-34.3125 -24.15625,0 z m 129.37499,0 -18.5625,95.96875 21.09375,0 12.28125,-63.3125 -3.40625,63.3125 14.96875,0 21,-64.78125 -12.5625,64.78125 21.09375,0 18.59375,-95.96875 -31.5,0 -14.15625,44.8125 1.375,-24.40625 c 0.49696,-7.82445 0.84004,-14.63655 1.03125,-20.40625 l -31.25,0 z m 84.1875,0 -18.59375,95.96875 41.875,0 3.71875,-19.21875 -17.71875,0 4.09375,-21.09375 15.0625,0 3.5625,-18.25 -15.09375,0 3.5,-18.1875 16.125,0 3.71875,-19.21875 -40.25,0 z m 48.875,0 -18.59375,95.96875 24.15625,0 7.4375,-38.65625 6.5,0 c 5.27591,4e-5 9.66315,-0.74829 13.21875,-2.25 3.59371,-1.50164 6.27253,-3.66294 8.03125,-6.46875 1.75859,-2.80572 3.25225,-7.24967 4.4375,-13.375 l 1.59375,-8.375 c 1.18511,-6.00664 1.73265,-10.43588 1.65625,-13.28125 -0.0765,-2.88471 -0.80424,-5.32826 -2.21875,-7.34375 -1.3764,-2.01533 -3.73641,-3.55792 -7.0625,-4.625 -3.32622,-1.06689 -8.26796,-1.59366 -14.84375,-1.59375 l -24.3125,0 z m 62.71875,0 -30.84375,95.96875 25,0 4.75,-17.25 8.65625,0 -2.09375,17.25 24.6875,0 4.78125,-95.96875 -34.9375,0 z m 117.5625,0 -18.5625,95.96875 41.84375,0 3.75,-19.21875 -17.75,0 4.09375,-21.09375 15.0625,0 3.5625,-18.25 -15.0625,0 3.46875,-18.1875 16.125,0 3.71875,-19.21875 -40.25,0 z m -489.28124,4.5 c 0.61712,4e-5 0.9675,0.24366 1.0625,0.75 0.0949,0.49057 -0.0269,1.61816 -0.375,3.40625 l -3.5625,17.65625 c -0.45892,2.26284 -0.83979,3.7112 -1.15625,4.3125 -0.30067,0.60132 -0.78833,0.90626 -1.46875,0.90625 -0.66462,10e-6 -1.0459,-0.25905 -1.125,-0.78125 -0.0791,-0.52218 0.11941,-1.8938 0.5625,-4.125 l 3.59375,-17.96875 c 0.39558,-1.97797 0.77686,-3.16687 1.125,-3.5625 0.36394,-0.41139 0.82154,-0.59371 1.34375,-0.59375 z m 136.3125,9.71875 c 1.49099,8e-5 2.36431,0.64176 2.59375,1.90625 0.22935,1.22515 -0.0965,4.0658 -0.9375,8.53125 l -8.53125,44.09375 c -1.10876,5.65109 -2.0479,9.24834 -2.8125,10.75 -0.72643,1.50169 -1.91857,2.25001 -3.5625,2.25 -1.60576,10e-6 -2.49638,-0.66464 -2.6875,-1.96875 -0.19119,-1.30406 0.24199,-4.74046 1.3125,-10.3125 l 8.71875,-44.8125 c 0.95575,-4.93966 1.84635,-7.88698 2.6875,-8.875 0.87928,-1.02739 1.95706,-1.56242 3.21875,-1.5625 z m 193.59374,2.1875 c 3.13495,7e-5 5.10335,0.51213 5.90625,1.5 0.80282,0.98802 0.92415,3.12634 0.3125,6.40625 l -1.5625,7.875 c -0.68822,3.55667 -1.55456,5.91654 -2.625,7.0625 -1.07054,1.10656 -2.72011,1.65631 -4.9375,1.65625 -0.49706,10e-5 -1.09312,-0.023 -1.78125,-0.0625 l 4.6875,-24.4375 z m 56.09375,5.0625 c -1.83517,15.96528 -3.18321,29.38263 -4.0625,40.25 l -8.25,0 c 2.25564,-8.4963 6.34831,-21.91364 12.3125,-40.25 z m -432.59374,33.3125 -7.68751,38.4375 8.71876,0 5.09375,-25.34375 -1.40625,25.34375 6.1875,0 8.6875,-25.9375 -5.1875,25.9375 8.71875,0 7.6875,-38.4375 -13.03125,0 -5.84375,17.96875 0.5625,-9.78125 c 0.20569,-3.13312 0.3584,-5.87715 0.4375,-8.1875 l -12.9375,0 z m 32.5625,0 2.09375,24.53125 -2.75,13.90625 9.25,0 2.78125,-13.90625 12.1875,-24.53125 -9.1875,0 c -2.50022,5.98152 -4.43582,11.0266 -5.8125,15.125 0.34812,-2.59512 0.5617,-7.6402 0.625,-15.125 l -9.1875,0 z"
       id="path3027" />
    <path
       style="font-size:145.6787262px;font-style:italic;font-variant:normal;font-weight:bold;font-stretch:normal;text-align:start;line-height:125%;letter-spacing:0px;word-spacing:0px;writing-mode:lr-tb;text-anchor:start;fill:#000000;fill-opacity:1;stroke:none;font-family:Homa;-inkscape-font-specification:Homa Bold Italic"
       d="M408.365309029 661.416431354C398.624960274 662.722402875 384.241943274 665.917226568 376.524993699 669.586681908C368.799447262 673.209737771 360.01257809 677.993667523 355.449141196 682.856603317C350.955880456 687.705280481 345.795891664 693.030503258 344.637191813 697.580372234C343.537680017 702.068115229 340.754840986 709.069280775 340.37604022 717.730951996C340.37604022 717.730951996 338.766463871 752.878120894 338.766463871 752.878120894C338.223445121 764.665260907 338.627954672 773.355690548 341.187275345 778.498762621C343.802831163 783.576864155 349.453776323 786.668818801 357.607252896 787.865361741C365.830187397 789.044173541 376.539558374 788.153182419 389.595793846 785.777395913C402.157906869 783.491522725 413.148944629 779.950520801 422.391507542 774.931674625C431.705001574 769.90332908 438.740793583 764.966689139 442.311105772 759.657976611C445.952640105 754.343095411 449.839463414 745.577845824 452.66055208 733.470936571C452.66055208 733.470936571 453.743896415 728.924018641 453.743896415 728.924018641C453.743896415 728.924018641 404.111034107 734.150872994 404.111034107 734.150872994C404.111034107 734.150872994 402.020484614 749.097044873 402.020484614 749.097044873C401.091048425 755.628893795 399.955063922 759.843329055 398.662599432 761.77569282C397.440843063 763.696921592 394.677112361 765.033034512 391.360184227 765.636581201C387.902000371 766.265872237 385.794607141 765.779989944 384.995024158 764.190302504C384.195327487 762.600666242 384.158687623 758.913154481 384.850754637 753.09970414C384.850754637 753.09970414 393.188030018 697.405730204 393.188030018 697.405730204C394.04957815 691.364797679 395.102188266 687.364179152 396.316550925 685.396030441C397.601616777 683.416909494 402.433521046 681.88580157 406.130627438 681.390044088C409.400997259 680.951699293 413.73460611 681.113017585 414.395168203 682.518938596C415.121632589 683.870065169 412.714562905 687.833158676 411.712292454 693.85233053C411.712292454 693.85233053 408.427910822 714.534192183 408.427910822 714.534192183C408.427910822 714.534192183 458.251424064 709.754526938 458.251424064 709.754526938C458.251424064 709.754526938 462.587158021 698.558378604 462.587158021 698.558378604C465.444337729 687.668247099 466.159966598 679.721328506 464.734421354 674.701284155C463.378331337 669.631142218 456.212669242 665.679040555 448.335423547 662.760647444C440.529505213 659.837920781 421.589240373 659.643671686 408.365309029 661.416431354C408.365309029 661.416431354 408.365309029 661.416431354 408.365309029 661.416431354M94.7033581239 783.16907832C94.7033581239 783.16907832 128.666397446 899.451707615 128.666397446 899.451707615C128.666397446 899.451707615 172.434683203 870.210926276 172.434683203 870.210926276C187.898161598 860.574721924 198.419994043 853.979548206 203.229231195 849.665424785C208.038297369 845.351398508 211.613617195 840.567146123 213.282538084 835.497241404C214.951266311 830.427458198 215.072830658 823.891234982 213.623166953 815.892215539C213.623166953 815.892215539 211.596514726 804.91753466 211.596514726 804.91753466C210.212919112 797.204532217 207.542274803 792.361454363 203.53428684 790.36930218C199.504438855 788.33518211 191.435699941 789.464329245 181.921288788 792.832148964C189.888019399 786.904966193 196.381508597 781.361137789 198.676600004 777.195637275C201.035332915 772.997572109 203.161348755 766.793860204 202.082297473 759.829109529C200.429091978 749.557347194 197.210263217 743.106784324 192.356115474 740.513200828C187.545526749 737.845870437 179.495723852 738.463502395 172.699038061 740.303923277C165.902255606 742.144652441 151.784346066 748.787967512 139.372875671 755.83964239C139.372875671 755.83964239 94.7033581239 783.16907832 94.7033581239 783.16907832C94.7033581239 783.16907832 94.7033581239 783.16907832 94.7033581239 783.16907832M233.429448621 709.969353585C233.429448621 709.969353585 224.045949876 840.927287906 224.045949876 840.927287906C224.045949876 840.927287906 266.740589635 820.851480949 266.740589635 820.851480949C266.740589635 820.851480949 267.239055836 798.202088544 267.239055836 798.202088544C267.239055836 798.202088544 282.833281919 792.048292456 282.833281919 792.048292456C282.833281919 792.048292456 286.519171459 812.819175026 286.519171459 812.819175026C286.519171459 812.819175026 330.616974711 797.683114561 330.616974711 797.683114561C330.616974711 797.683114561 308.188046986 684.253883702 308.188046986 684.253883702C308.188046986 684.253883702 233.429448621 709.969353585 233.429448621 709.969353585C233.429448621 709.969353585 233.429448621 709.969353585 233.429448621 709.969353585M494.766652268 658.570224365C494.766652268 658.570224365 459.181041142 774.763461748 459.181041142 774.763461748C459.181041142 774.763461748 504.791689943 773.861839577 504.791689943 773.861839577C504.791689943 773.861839577 522.210473788 725.055828804 522.210473788 725.055828804C522.210473788 725.055828804 523.15690491 774.534730085 523.15690491 774.534730085C523.15690491 774.534730085 570.07376169 778.826287677 570.07376169 778.826287677C570.07376169 778.826287677 567.935694404 714.908029715 567.935694404 714.908029715C567.935694404 714.908029715 622.241310097 670.431407965 622.241310097 670.431407965C622.241310097 670.431407965 572.963978352 663.145680847 572.963978352 663.145680847C572.963978352 663.145680847 529.610766773 704.329721877 529.610766773 704.329721877C529.610766773 704.329721877 547.914062844 660.711282542 547.914062844 660.711282542C547.914062844 660.711282542 494.766652268 658.570224365 494.766652268 658.570224365C494.766652268 658.570224365 494.766652268 658.570224365 494.766652268 658.570224365M666.436280267 679.996083091C666.436280267 679.996083091 609.868232173 721.208914918 609.868232173 721.208914918C609.868232173 721.208914918 608.065451363 785.12572997 608.065451363 785.12572997C608.065451363 785.12572997 626.780604311 756.322041076 626.780604311 756.322041076C626.780604311 756.322041076 759.680724857 797.363259143 759.680724857 797.363259143C759.680724857 797.363259143 778.539945652 751.056876093 778.539945652 751.056876093C778.539945652 751.056876093 659.638465359 712.52374864 659.638465359 712.52374864C659.638465359 712.52374864 666.436280267 679.996083091 666.436280267 679.996083091C666.436280267 679.996083091 666.436280267 679.996083091 666.436280267 679.996083091M142.221649332 776.928795657C146.251895566 774.583812555 150.843464944 772.283885217 152.340661053 771.869441154C153.837780043 771.455259429 155.202015406 771.751822184 156.427205736 772.746355981C157.628897107 773.69989813 158.660555715 776.030242854 159.505414985 779.695172634C161.06998684 786.660115811 161.507840013 791.171376412 160.799591846 793.264441554C160.067834841 795.31649766 156.426099836 798.184894916 152.604997464 800.460523039C151.68046748 801.011139471 150.358160985 801.816231928 148.656808206 802.884664345C148.656808206 802.884664345 142.221649332 776.928795657 142.221649332 776.928795657C142.221649332 776.928795657 142.221649332 776.928795657 142.221649332 776.928795657M272.135289267 722.772994347C275.322617247 741.975159451 277.072718968 758.444552573 280.186233552 771.214992788C280.186233552 771.214992788 264.781357218 777.165574631 264.781357218 777.165574631C264.847822018 766.126911451 268.980010376 747.255814655 272.135289267 722.772994347C272.135289267 722.772994347 272.135289267 722.772994347 272.135289267 722.772994347M800.415678617 760.170200096C800.415678617 760.170200096 780.859870302 806.186763899 780.859870302 806.186763899C780.859870302 806.186763899 818.163469593 823.196548967 818.163469593 823.196548967C818.163469593 823.196548967 839.677006381 778.061990453 839.677006381 778.061990453C839.677006381 778.061990453 800.415678617 760.170200096 800.415678617 760.170200096C800.415678617 760.170200096 800.415678617 760.170200096 800.415678617 760.170200096M861.865828105 789.011645936C861.865828105 789.011645936 839.152868547 833.554728734 839.152868547 833.554728734C839.152868547 833.554728734 875.221120373 852.63120133 875.221120373 852.63120133C875.221120373 852.63120133 899.58420708 808.968742801 899.58420708 808.968742801C899.58420708 808.968742801 861.865828105 789.011645936 861.865828105 789.011645936C861.865828105 789.011645936 861.865828105 789.011645936 861.865828105 789.011645936M920.016893044 820.499491139C920.016893044 820.499491139 895.141464433 863.872120783 895.141464433 863.872120783C895.141464433 863.872120783 930.068023081 884.683934041 930.068023081 884.683934041C930.068023081 884.683934041 956.374636681 842.164073082 956.374636681 842.164073082C956.374636681 842.164073082 920.016893044 820.499491139 920.016893044 820.499491139C920.016893044 820.499491139 920.016893044 820.499491139 920.016893044 820.499491139M153.245717605 821.029027676C159.050178948 817.737747025 162.748644382 816.228418898 164.391871622 816.463970149C166.03500707 816.699692457 167.467392623 819.330907365 168.696717986 824.338835659C168.696717986 824.338835659 171.419554761 835.192703259 171.419554761 835.192703259C172.564818604 839.919625852 172.509050052 843.348104959 171.266775666 845.467766525C170.086039162 847.550836561 166.366943314 850.590814183 160.963009442 854.125918487C160.963009442 854.125918487 153.245717605 821.029027676 153.245717605 821.029027676C153.245717605 821.029027676 153.245717605 821.029027676 153.245717605 821.029027676M182.234482449 893.891811902C179.451319105 895.62621207 177.496856297 897.2979796 175.638525314 899.357276271C173.78018181 901.416664616 172.4043856 903.530727184 171.564783336 905.663229972C170.745236929 907.782760845 170.481407975 909.700122116 170.719982805 911.4706368C170.949940001 913.227968469 172.198256254 915.700377349 173.416452112 919.540063898C173.416452112 919.540063898 175.420960511 926.111117762 175.420960511 926.111117762C176.652903229 930.056284114 177.638933246 932.739828588 178.369345184 934.156531754C179.09975584 935.573259962 180.312035066 936.537592559 181.978522182 937.031867775C183.645002401 937.526159761 185.602298617 937.412907415 187.865854392 936.698510729C190.120505848 935.97102609 191.595714805 935.466891051 194.203640711 933.769251511C196.951943856 931.980232859 198.216935092 930.686275542 200.11563656 928.664072148C202.014312351 926.641884755 203.411824519 924.56778026 204.273129088 922.464892707C205.154692178 920.349380876 205.488146016 918.399185072 205.272695033 916.650325398C205.069123072 914.875423238 204.419867671 912.047333033 203.37333966 908.150155791C203.37333966 908.150155791 200.986894287 901.929423595 200.986894287 901.929423595C199.990934014 897.918239429 199.165700043 895.180983354 198.520555963 893.723415085C197.875369722 892.265953397 196.738383649 891.258306009 195.10414383 890.666069096C193.469879964 890.073939617 191.905101038 889.826847435 189.623708127 890.465403441C187.333903257 891.090632161 184.875441955 892.246121583 182.234482449 893.891811902C182.234482449 893.891811902 182.234482449 893.891811902 182.234482449 893.891811902M366.618572276 814.087112234C358.898392914 815.868463724 353.169960166 818.436364089 347.413273412 821.896923423C341.656535987 825.357694282 337.758982267 829.24724154 334.414651851 833.739569629C331.125576417 838.215196911 330.061068751 842.461239165 329.570006011 846.869150072C329.066524501 851.239712358 330.145673049 858.001119044 330.767416091 868.015572727C330.767416091 868.015572727 331.688031806 885.103936223 331.688031806 885.103936223C332.280397295 895.380642351 333.04243307 902.453846319 333.933112854 906.331532986C334.823763318 910.209272564 337.05395504 913.297703107 340.68739933 915.568770804C344.320797515 917.839844314 346.49094847 919.728033079 352.240687815 919.615784817C357.977950061 919.46605977 361.788862512 919.154128469 368.979068962 916.957770374C376.556357812 914.643150587 377.881598469 913.467932991 383.717259143 910.142002449C389.552785437 906.816095911 391.656943902 903.726360703 395.249804571 899.490759838C398.898854287 895.242204942 398.795109025 891.609260283 399.744865457 887.338156151C400.743092361 883.016745559 401.621920054 875.83325345 402.449774228 865.817430917C402.449774228 865.817430917 402.472874713 849.150676837 402.472874713 849.150676837C403.549013268 838.913446415 403.986606054 831.801648069 403.734444527 827.830861005C403.482073527 823.860274683 401.733834079 820.460472218 398.515293812 817.631954319C395.296575626 814.803641582 391.414799687 812.961731845 385.698869726 812.445834211C379.974790376 811.891470694 373.944206672 812.396997918 366.618572276 814.087112234C366.618572276 814.087112234 366.618572276 814.087112234 366.618572276 814.087112234M809.228386795 882.352720457C799.477970943 877.541960049 790.880180407 875.183265599 782.281461434 875.057970785C773.699062902 874.896881171 767.765490583 876.364809068 763.653891171 879.082906365C759.542157854 881.801119377 754.377365993 886.78909121 748.182252814 894.073382523C748.182252814 894.073382523 730.179913971 917.343468813 730.179913971 917.343468813C725.842266557 922.670761383 722.924569898 926.815747159 721.360154699 929.757666693C719.811162934 932.663254835 719.306000395 935.875700756 719.887796187 939.386223871C720.469574146 942.896750272 720.971275091 945.841063044 724.47663589 949.639024556C727.997945079 953.400827336 730.970859892 955.82081306 736.540883503 958.381170833C741.217543254 960.530858198 744.239532443 961.1131989 748.679710984 961.609871432C753.136784584 962.07081754 756.124101857 961.033695932 760.443645532 959.860016502C760.443645532 959.860016502 758.631040073 966.631920734 758.631040073 966.631920734C758.631040073 966.631920734 776.379108288 975.560455912 776.379108288 975.560455912C776.379108288 975.560455912 812.993104224 936.642793079 812.993104224 936.642793079C812.993104224 936.642793079 777.221417756 918.377286569 777.221417756 918.377286569C777.221417756 918.377286569 767.94859297 930.083490897 767.94859297 930.083490897C767.94859297 930.083490897 773.575838394 932.817056202 773.575838394 932.817056202C773.575838394 932.817056202 765.490491414 941.511886048 765.490491414 941.511886048C762.373570462 944.95347293 761.051242027 947.694214505 759.083036758 948.463353085C757.166912565 949.257349516 755.027417627 949.091983763 752.626018974 947.947338064C750.433342685 946.902202727 749.446787151 945.670203141 749.659525909 944.283168877C749.889146818 942.86043527 751.480987047 940.472361609 754.482417272 937.131258155C754.482417272 937.131258155 785.865236503 901.072130589 785.865236503 901.072130589C789.329929749 897.317516842 791.817034955 895.155620155 793.3789487 894.604208684C794.940687551 894.052878183 796.765082497 894.288767246 798.787862844 895.286721334C801.121603227 896.438282051 801.619850533 897.471722058 801.249268338 898.835211133C800.878474158 900.198782938 799.258240809 903.227794923 795.375690365 907.437240531C795.375690365 907.437240531 789.271109287 914.147424652 789.271109287 914.147424652C789.271109287 914.147424652 819.711195517 929.905428423 819.711195517 929.905428423C819.711195517 929.905428423 822.731157259 926.815014122 822.731157259 926.815014122C828.462148778 920.976885298 831.895609592 916.019236849 833.041231636 911.965228452C834.205436778 907.876534177 833.141861694 903.204119164 829.064218695 897.664729966C825.037491177 892.152346033 818.822981689 887.086821555 809.228386795 882.352720457C809.228386795 882.352720457 809.228386795 882.352720457 809.228386795 882.352720457M139.52172565 923.744619392C139.52172565 923.744619392 142.210683193 931.309716909 142.210683193 931.309716909C142.210683193 931.309716909 149.001392474 926.407194072 149.001392474 926.407194072C149.001392474 926.407194072 160.125542241 956.304444598 160.125542241 956.304444598C160.125542241 956.304444598 171.502531271 948.156679244 171.502531271 948.156679244C171.502531271 948.156679244 160.921472915 918.051830638 160.921472915 918.051830638C160.921472915 918.051830638 168.313070938 913.033322638 168.313070938 913.033322638C168.313070938 913.033322638 165.950406334 905.345664924 165.950406334 905.345664924C165.950406334 905.345664924 139.52172565 923.744619392 139.52172565 923.744619392C139.52172565 923.744619392 139.52172565 923.744619392 139.52172565 923.744619392M241.225767799 862.770425892C241.225767799 862.770425892 264.639427127 958.898090125 264.639427127 958.898090125C264.639427127 958.898090125 290.356053331 945.548488578 290.356053331 945.548488578C290.356053331 945.548488578 281.810516788 904.947902685 281.810516788 904.947902685C281.810516788 904.947902685 290.148688855 901.104438849 290.148688855 901.104438849C290.148688855 901.104438849 297.859851259 941.937882 297.859851259 941.937882C297.859851259 941.937882 326.534362007 929.496549005 326.534362007 929.496549005C326.534362007 929.496549005 315.588537889 831.193874491 315.588537889 831.193874491C315.588537889 831.193874491 282.485482687 843.822087313 282.485482687 843.822087313C282.485482687 843.822087313 287.370949004 879.041889796 287.370949004 879.041889796C287.370949004 879.041889796 278.548615552 882.951712523 278.548615552 882.951712523C278.548615552 882.951712523 272.923854878 847.90822345 272.923854878 847.90822345C272.923854878 847.90822345 241.225767799 862.770425892 241.225767799 862.770425892C241.225767799 862.770425892 241.225767799 862.770425892 241.225767799 862.770425892M419.275855579 806.121559449C419.275855579 806.121559449 409.834243897 904.920009378 409.834243897 904.920009378C409.834243897 904.920009378 435.822622117 900.728372919 435.822622117 900.728372919C435.822622117 900.728372919 443.271199805 836.110962747 443.271199805 836.110962747C443.271199805 836.110962747 446.392778577 899.468876043 446.392778577 899.468876043C446.392778577 899.468876043 463.448655299 897.989221882 463.448655299 897.989221882C463.448655299 897.989221882 488.568491362 832.220134153 488.568491362 832.220134153C488.568491362 832.220134153 473.460686855 897.432142846 473.460686855 897.432142846C473.460686855 897.432142846 499.957888724 897.027865944 499.957888724 897.027865944C499.957888724 897.027865944 526.935234021 802.050286877 526.935234021 802.050286877C526.935234021 802.050286877 481.38632989 801.15838445 481.38632989 801.15838445C481.38632989 801.15838445 463.916038008 846.700099823 463.916038008 846.700099823C463.916038008 846.700099823 464.436682706 822.211453074 464.436682706 822.211453074C464.688354946 814.355175857 464.772232608 807.524000646 464.693264624 801.74772199C464.693264624 801.74772199 419.275855579 806.121559449 419.275855579 806.121559449C419.275855579 806.121559449 419.275855579 806.121559449 419.275855579 806.121559449M541.045675178 803.105351022C541.045675178 803.105351022 509.313803907 897.253507122 509.313803907 897.253507122C509.313803907 897.253507122 562.220498564 902.130788896 562.220498564 902.130788896C562.220498564 902.130788896 568.313663936 883.649437135 568.313663936 883.649437135C568.313663936 883.649437135 545.853450644 880.690379572 545.853450644 880.690379572C545.853450644 880.690379572 554.389001359 860.43151652 554.389001359 860.43151652C554.389001359 860.43151652 573.709883998 863.142363165 573.709883998 863.142363165C573.709883998 863.142363165 580.633680303 845.739341659 580.633680303 845.739341659C580.633680303 845.739341659 560.490944236 842.805868624 560.490944236 842.805868624C560.490944236 842.805868624 568.168678279 825.489515464 568.168678279 825.489515464C568.168678279 825.489515464 590.545708363 829.020860939 590.545708363 829.020860939C590.545708363 829.020860939 599.426698247 811.07316572 599.426698247 811.07316572C599.426698247 811.07316572 541.045675178 803.105351022 541.045675178 803.105351022C541.045675178 803.105351022 541.045675178 803.105351022 541.045675178 803.105351022M611.772537051 813.502392804C611.772537051 813.502392804 570.258960613 903.402905006 570.258960613 903.402905006C570.258960613 903.402905006 599.169838824 908.969164735 599.169838824 908.969164735C599.169838824 908.969164735 616.845699371 873.361449704 616.845699371 873.361449704C616.845699371 873.361449704 624.934892218 875.327250557 624.934892218 875.327250557C632.664145501 877.3150649 637.843344529 877.948325913 643.427529871 877.935635775C649.067256395 877.938389535 652.231517033 876.677130684 655.579032397 874.742145738C658.926333652 872.807191256 661.267875871 868.868653717 664.81930276 863.565765267C664.81930276 863.565765267 669.636393907 856.3030751 669.636393907 856.3030751C673.151937045 851.113320937 675.273439441 847.138033097 676.018620122 844.389580635C676.775483316 841.603563044 676.460171767 838.94213147 675.025364333 836.37663431C673.64549038 833.828620806 671.132627202 831.44398415 666.61130623 828.992352969C662.089742759 826.540848135 655.893484358 824.112513554 646.259905754 821.634902146C646.259905754 821.634902146 611.772537051 813.502392804 611.772537051 813.502392804C611.772537051 813.502392804 611.772537051 813.502392804 611.772537051 813.502392804M699.853163424 837.992116078C699.853163424 837.992116078 631.286744772 917.018957802 631.286744772 917.018957802C631.286744772 917.018957802 661.44148428 926.302258071 661.44148428 926.302258071C661.44148428 926.302258071 672.107083421 911.676536365 672.107083421 911.676536365C672.107083421 911.676536365 682.889604369 915.472697426 682.889604369 915.472697426C682.889604369 915.472697426 675.730520071 931.246204262 675.730520071 931.246204262C675.730520071 931.246204262 705.276883616 942.600201978 705.276883616 942.600201978C705.276883616 942.600201978 747.840229179 856.328374727 747.840229179 856.328374727C747.840229179 856.328374727 699.853163424 837.992116078 699.853163424 837.992116078C699.853163424 837.992116078 699.853163424 837.992116078 699.853163424 837.992116078M857.62916482 910.449648533C857.62916482 910.449648533 787.531660277 981.420164947 787.531660277 981.420164947C787.531660277 981.420164947 837.729397715 1009.96518113 837.729397715 1009.96518113C837.729397715 1009.96518113 852.520103477 996.445928356 852.520103477 996.445928356C852.520103477 996.445928356 831.387158807 983.870220412 831.387158807 983.870220412C831.387158807 983.870220412 846.441475813 968.250137685 846.441475813 968.250137685C846.441475813 968.250137685 865.245127914 979.488903111 865.245127914 979.488903111C865.245127914 979.488903111 878.70970097 966.347621008 878.70970097 966.347621008C878.70970097 966.347621008 860.345192034 955.258342785 860.345192034 955.258342785C860.345192034 955.258342785 873.681192481 942.017510152 873.681192481 942.017510152C873.681192481 942.017510152 894.107726814 954.487362705 894.107726814 954.487362705C894.107726814 954.487362705 902.016184816 904.918474816 902.016184816 904.918474816C902.016184816 904.918474816 857.62916482 910.449648533 857.62916482 910.449648533C857.62916482 910.449648533 857.62916482 910.449648533 857.62916482 910.449648533M184.067349536 900.408291308C184.859635507 899.914618376 185.438299204 899.841065021 185.828047207 900.194786888C186.20932661 900.535204983 186.649302665 901.589616694 187.148068572 903.385629332C187.148068572 903.385629332 192.762699369 920.724576655 192.762699369 920.724576655C193.415379643 922.999703366 193.722674657 924.527832935 193.649518648 925.292917524C193.596391219 926.044988293 193.144520839 926.702985551 192.281917338 927.264488733C191.439355095 927.812969844 190.814661864 927.91050929 190.42950158 927.53814858C190.044352206 927.165804631 189.547736338 925.852479387 188.892248617 923.616932635C188.892248617 923.616932635 183.645503042 905.592241559 183.645503042 905.592241559C183.067932301 903.608125212 182.418533794 902.601505842 182.656244112 901.987222162C182.905903697 901.346922915 183.39695228 900.826102462 184.067349536 900.408291308C184.067349536 900.408291308 184.067349536 900.408291308 184.067349536 900.408291308M366.67131852 830.800533711C368.856554331 830.242447075 369.426030213 830.742437457 370.048488235 831.896501451C370.66196939 833.012264013 371.809263404 835.651812043 371.681774334 840.293090679C371.681774334 840.293090679 372.165980567 885.67506522 372.165980567 885.67506522C372.076442598 891.56898816 371.67956916 895.416097156 370.971256804 897.174183983C370.318547813 898.916714052 368.784168085 900.124016027 366.389752779 900.795258869C364.05093814 901.450935325 364.901925523 900.517399744 364.244460701 899.354667144C363.586909218 898.192013295 361.016817999 895.333803544 361.071982027 889.531612767C361.071982027 889.531612767 360.598067468 843.124173621 360.598067468 843.124173621C360.77638009 837.980489239 361.352264602 834.791514059 362.340554534 833.519359173C363.374985196 832.194785576 364.822187625 831.27293506 366.67131852 830.800533711C366.67131852 830.800533711 366.67131852 830.800533711 366.67131852 830.800533711M637.183458939 836.240534963C641.776175992 837.421740632 643.82035609 838.466933753 644.727399837 839.742952182C645.634286945 841.019082898 645.24082941 843.128861019 643.474284096 846.043117278C643.474284096 846.043117278 640.074325676 853.278536838 640.074325676 853.278536838C638.180227165 856.463773796 636.323264345 858.422834671 634.46963778 859.129360572C632.625677953 859.797691017 630.07211611 859.70860885 626.823631548 858.873116902C626.095408551 858.685939186 626.390042012 858.741454293 625.386383188 858.462624055C625.386383188 858.462624055 637.183458939 836.240534963 637.183458939 836.240534963C637.183458939 836.240534963 637.183458939 836.240534963 637.183458939 836.240534963M712.338397148 865.33733531C704.180603676 879.338816251 697.600207845 891.208019207 692.57185722 900.933347883C692.57185722 900.933347883 682.130907002 897.185938539 682.130907002 897.185938539C688.174957437 890.308642706 697.499966584 879.388367116 712.338397148 865.33733531C712.338397148 865.33733531 712.338397148 865.33733531 712.338397148 865.33733531M158.934009624 979.074286063C158.934009624 979.074286063 173.031050267 1016.67618303 173.031050267 1016.67618303C173.031050267 1016.67618303 183.510617119 1008.66862427 183.510617119 1008.66862427C183.510617119 1008.66862427 172.958301848 984.920819193 172.958301848 984.920819193C172.958301848 984.920819193 186.260978234 1006.59687034 186.260978234 1006.59687034C186.260978234 1006.59687034 193.800806518 1001.05111954 193.800806518 1001.05111954C193.800806518 1001.05111954 187.740104757 973.493364189 187.740104757 973.493364189C187.740104757 973.493364189 196.308384059 999.201232484 196.308384059 999.201232484C196.308384059 999.201232484 207.076739223 991.586506981 207.076739223 991.586506981C207.076739223 991.586506981 193.26038229 954.490107517 193.26038229 954.490107517C193.26038229 954.490107517 178.284530327 964.870453437 178.284530327 964.870453437C178.284530327 964.870453437 182.929627933 983.638229869 182.929627933 983.638229869C182.929627933 983.638229869 177.819636935 975.254786534 177.819636935 975.254786534C176.213895961 972.546545841 174.774133167 970.1992216 173.501629453 968.267223592C173.501629453 968.267223592 158.934009624 979.074286063 158.934009624 979.074286063C158.934009624 979.074286063 158.934009624 979.074286063 158.934009624 979.074286063M195.450485408 953.003142184C195.450485408 953.003142184 211.850134286 971.519248542 211.850134286 971.519248542C211.850134286 971.519248542 216.219765819 985.360804663 216.219765819 985.360804663C216.219765819 985.360804663 226.014242667 978.911028772 226.014242667 978.911028772C226.014242667 978.911028772 221.95371783 964.961485244 221.95371783 964.961485244C221.95371783 964.961485244 221.567365552 936.300951821 221.567365552 936.300951821C221.567365552 936.300951821 211.100707147 942.806265567 211.100707147 942.806265567C211.05432283 949.882916427 212.766119294 954.828614275 213.256689434 959.39943371C212.282270647 956.937271732 209.800734791 952.532912838 205.797713927 946.207928132C205.797713927 946.207928132 195.450485408 953.003142184 195.450485408 953.003142184C195.450485408 953.003142184 195.450485408 953.003142184 195.450485408 953.003142184"
       id="path0684" />
  </g>
</svg>
