<?xml version="1.0" encoding="UTF-8" standalone="no"?>
<!-- Created with Inkscape (http://www.inkscape.org/) -->

<svg
   xmlns:dc="http://purl.org/dc/elements/1.1/"
   xmlns:cc="http://creativecommons.org/ns#"
   xmlns:rdf="http://www.w3.org/1999/02/22-rdf-syntax-ns#"
   xmlns:svg="http://www.w3.org/2000/svg"
   xmlns="http://www.w3.org/2000/svg"
   xmlns:sodipodi="http://sodipodi.sourceforge.net/DTD/sodipodi-0.dtd"
   xmlns:inkscape="http://www.inkscape.org/namespaces/inkscape"
   width="1052.3622"
   height="744.09448"
   id="svg2"
   version="1.1"
   inkscape:version="0.48+devel 12335"
   sodipodi:docname="back-to-my-homepage--perspective--2.svg">
  <defs
     id="defs4" />
  <sodipodi:namedview
     id="base"
     pagecolor="#ffffff"
     bordercolor="#666666"
     borderopacity="1.0"
     inkscape:pageopacity="0.0"
     inkscape:pageshadow="2"
     inkscape:zoom="0.85338625"
     inkscape:cx="526.18109"
     inkscape:cy="372.04724"
     inkscape:document-units="px"
     inkscape:current-layer="layer1"
     showgrid="true"
     inkscape:window-width="1439"
     inkscape:window-height="827"
     inkscape:window-x="273"
     inkscape:window-y="115"
     inkscape:window-maximized="0"
     showguides="true"
     inkscape:guide-bbox="true"
     inkscape:snap-global="true">
    <inkscape:grid
       empspacing="5"
       visible="true"
       enabled="true"
       snapvisiblegridlinesonly="false"
       type="xygrid"
       id="grid3073"
       spacingx="10px"
       spacingy="10px" />
    <sodipodi:guide
       orientation="0,1"
       position="601.86424,356.07132"
       id="guide3899" />
    <sodipodi:guide
       orientation="0,1"
       position="558.65171,405.85217"
       id="guide3000" />
  </sodipodi:namedview>
  <metadata
     id="metadata7">
    <rdf:RDF>
      <cc:Work
         rdf:about="">
        <dc:format>image/svg+xml</dc:format>
        <dc:type
           rdf:resource="http://purl.org/dc/dcmitype/StillImage" />
        <dc:title></dc:title>
      </cc:Work>
    </rdf:RDF>
  </metadata>
  <g
     inkscape:label="Layer 1"
     inkscape:groupmode="layer"
     id="layer1"
     transform="translate(0,-308.26769)">
    <path
       style="font-size:145.6787262px;font-style:italic;font-variant:normal;font-weight:bold;font-stretch:normal;text-align:start;line-height:125%;letter-spacing:0px;word-spacing:0px;writing-mode:lr-tb;text-anchor:start;fill:#000000;fill-opacity:1;stroke:none;font-family:Homa;-inkscape-font-specification:Homa Bold Italic"
       d="M 370.65625 139.0625 C 364.15945 139.06262 358.17216 140.17756 352.71875 142.40625 C 347.26524 144.58775 342.72899 147.59647 339.125 151.4375 C 335.56836 155.27874 333.07886 159.29576 331.65625 163.46875 C 330.281 167.59451 328.78473 173.79508 327.125 182.09375 L 320.34375 215.75 C 318.06749 227.03634 317.28866 235.48187 318 241.125 C 318.75873 246.72075 321.66081 251.13527 326.6875 254.3125 C 331.76158 257.48974 338.69575 259.0625 347.46875 259.0625 C 355.90972 259.0625 363.37821 257.1838 369.875 253.4375 C 376.4191 249.69121 381.00057 245.32301 383.65625 240.34375 C 386.35919 235.36452 388.9101 226.93407 391.28125 215.03125 L 392.1875 210.5625 L 362.25 210.5625 L 359.34375 225 C 358.06332 231.30708 356.88697 235.29284 355.84375 237 C 354.84785 238.70719 353.22877 239.56252 351 239.5625 C 348.67631 239.56252 347.36316 238.70719 347.03125 237 C 346.69926 235.29284 347.11184 231.65826 348.25 226.0625 L 358.90625 172.5625 C 360.09173 166.72975 361.19159 162.94219 362.1875 161.1875 C 363.23071 159.433 364.97153 158.5626 367.4375 158.5625 C 369.61882 158.5626 370.88673 159.28003 371.21875 160.75 C 371.59805 162.17274 371.18547 165.8235 370 171.65625 L 366.03125 191.71875 L 395.96875 191.71875 L 398.09375 180.75 C 400.27505 169.98542 400.96232 162.07419 400.15625 157 C 399.39741 151.87859 396.48025 147.60195 391.40625 144.1875 C 386.37949 140.77327 379.47657 139.06262 370.65625 139.0625 z M 181.5625 141.46875 L 158.53125 256.65625 L 193.1875 256.65625 C 205.23249 256.65625 213.32685 255.96897 217.5 254.59375 C 221.67302 253.21853 225.01784 250.65255 227.53125 246.90625 C 230.04451 243.15997 232.09126 237.40214 233.65625 229.625 L 235.78125 218.9375 C 237.29865 211.44495 237.19201 205.91658 235.4375 202.3125 C 233.68282 198.6611 229.49776 196.03371 222.90625 194.46875 C 229.40291 193.04617 233.95424 191.03066 236.5625 188.375 C 239.21802 185.71947 241.21844 181.01518 242.59375 174.28125 C 244.58536 164.32284 244.54012 157.11396 242.40625 152.65625 C 240.31962 148.15132 236.98988 145.15768 232.4375 143.6875 C 227.88497 142.21755 220.8743 141.46887 211.4375 141.46875 L 181.5625 141.46875 z M 270.5 141.46875 L 232.21875 256.65625 L 263.25 256.65625 L 269.15625 235.9375 L 279.875 235.9375 L 277.25 256.65625 L 307.90625 256.65625 L 313.8125 141.46875 L 270.5 141.46875 z M 416.875 141.46875 L 393.84375 256.65625 L 423.78125 256.65625 L 433.65625 207.28125 L 435.875 256.65625 L 466.8125 256.65625 L 460.6875 193.46875 L 488.21875 141.46875 L 460.125 141.46875 L 437.875 186.21875 L 446.84375 141.46875 L 416.875 141.46875 z M 513.53125 141.65625 L 486 193.625 L 492.125 256.8125 L 500.125 224.875 L 588.125 224.875 L 588.125 174.875 L 514.125 174.875 L 513.53125 141.65625 z M 207.53125 161.1875 C 210.61358 161.23502 212.66034 161.43322 213.65625 161.8125 C 214.65203 162.19197 215.33932 163.12377 215.71875 164.59375 C 216.09806 166.01648 215.93001 168.55231 215.21875 172.15625 C 213.84347 178.98502 212.62188 183.12376 211.53125 184.59375 C 210.4405 186.01647 208.40883 186.71882 205.46875 186.71875 C 204.75738 186.71875 203.734 186.73385 202.40625 186.78125 L 207.53125 161.1875 z M 288.21875 167.21875 C 285.94247 186.37709 284.2469 202.49041 283.15625 215.53125 L 272.90625 215.53125 C 275.70407 205.33569 280.82095 189.22237 288.21875 167.21875 z M 602.9375 174.875 L 602.9375 224.875 L 629.03125 224.875 L 629.03125 174.875 L 602.9375 174.875 z M 643.875 174.875 L 643.875 224.875 L 669.96875 224.875 L 669.96875 174.875 L 643.875 174.875 z M 684.8125 174.875 L 684.8125 224.875 L 710.90625 224.875 L 710.90625 174.875 L 684.8125 174.875 z M 198.875 204.71875 C 203.28515 204.86107 205.89636 205.45678 206.75 206.5 C 207.60353 207.54332 207.52704 210.53697 206.53125 215.46875 L 204.40625 226.1875 C 203.45777 230.83483 202.26635 233.75199 200.84375 234.9375 C 199.46848 236.12306 196.64289 236.79526 192.375 236.9375 L 198.875 204.71875 z M 190.40625 281.9375 C 188.23834 281.93754 186.27227 282.28795 184.5 283 C 182.72769 283.71212 181.20301 284.73332 179.96875 286.0625 C 178.75028 287.39175 177.91261 288.85474 177.40625 290.46875 C 176.89987 292.06701 176.25955 294.79522 175.5 298.65625 L 174.15625 305.21875 C 173.36505 309.17477 172.90784 311.94886 172.78125 313.53125 C 172.65465 315.11366 172.95959 316.59246 173.6875 317.9375 C 174.4154 319.28255 175.52796 320.28831 177.03125 320.96875 C 178.53453 321.63336 180.31786 321.96875 182.375 321.96875 C 184.54287 321.96875 186.50895 321.61833 188.28125 320.90625 C 190.05353 320.19417 191.56278 319.17297 192.78125 317.84375 C 194.0155 316.51453 194.88443 315.03573 195.375 313.4375 C 195.88134 311.82345 196.50585 309.07983 197.28125 305.21875 L 198.625 298.65625 C 199.41617 294.70027 199.87338 291.92619 200 290.34375 C 200.12656 288.76138 199.82163 287.31383 199.09375 285.96875 C 198.36582 284.62375 197.25325 283.60214 195.75 282.9375 C 194.24669 282.2571 192.46336 281.93754 190.40625 281.9375 z M 328.5 281.9375 C 323.26222 281.9376 318.50066 282.81554 314.21875 284.59375 C 309.93677 286.37215 306.32578 288.93059 303.34375 292.25 C 300.39988 295.56958 298.31714 299.21926 297.09375 303.25 C 295.87032 307.24138 294.33511 314.07644 292.5 323.71875 L 289.28125 340.125 C 287.36965 350.00449 286.27459 356.92324 285.96875 360.875 C 285.66288 364.8268 286.36633 368.48473 288.125 371.84375 C 289.88364 375.20276 292.58672 377.73824 296.21875 379.4375 C 299.85073 381.09726 304.15486 381.93749 309.125 381.9375 C 314.36271 381.93749 319.12426 381.02829 323.40625 379.25 C 327.68815 377.4717 331.30611 374.91325 334.25 371.59375 C 337.23201 368.27426 339.31475 364.64757 340.5 360.65625 C 341.72335 356.62545 343.25158 349.76738 345.125 340.125 L 348.34375 323.71875 C 350.25526 313.83934 351.38156 306.92062 351.6875 302.96875 C 351.99328 299.01704 351.25859 295.3591 349.5 292 C 347.74127 288.64107 345.03819 286.1286 341.40625 284.46875 C 337.77418 282.76958 333.47007 281.9376 328.5 281.9375 z M 640.71875 281.9375 C 633.53115 281.9376 627.32446 283.64752 622.125 287.125 C 616.92546 290.56314 613.44613 294.38196 611.6875 298.53125 C 609.92882 302.6807 608.14062 309.33192 606.34375 318.5 L 600.84375 347 C 599.58209 353.59952 598.87865 358.55553 598.6875 361.875 C 598.49634 365.155 599.0196 368.30915 600.28125 371.3125 C 601.54289 374.31586 603.73999 376.85132 606.875 378.90625 C 610.00998 380.92166 613.60367 381.93749 617.65625 381.9375 C 621.05884 381.93749 624.14655 381.18091 626.9375 379.71875 C 629.72837 378.21707 632.25127 375.99509 634.46875 373.03125 L 635.375 379.90625 L 650.5625 379.90625 L 660.5625 328.40625 L 632.28125 328.40625 L 629.46875 342.96875 L 634.34375 342.96875 L 632.09375 354.34375 C 631.25261 358.80929 630.362 361.83382 629.40625 363.375 C 628.48865 364.91621 627.16487 365.68751 625.40625 365.6875 C 623.80049 365.68751 622.86133 364.99987 622.59375 363.65625 C 622.32609 362.27314 622.59637 359.43248 623.4375 355.125 L 632.34375 309.0625 C 633.2995 304.16236 634.14158 301.12311 634.90625 299.9375 C 635.67084 298.75204 636.82141 298.15633 638.3125 298.15625 C 640.03287 298.15633 640.96504 298.86696 641.15625 300.25 C 641.34736 301.63321 640.91418 305.06958 639.84375 310.5625 L 638.1875 319.28125 L 662.34375 319.28125 L 663.125 315.125 C 664.61595 307.26102 665.04914 301.26619 664.4375 297.15625 C 663.82573 293.00696 661.49697 289.44095 657.40625 286.4375 C 653.35363 283.43424 647.79155 281.9376 640.71875 281.9375 z M 154.84375 282.71875 L 153.3125 290.40625 L 159.21875 290.40625 L 153.0625 321.15625 L 163.0625 321.15625 L 169.21875 290.40625 L 175.125 290.40625 L 176.6875 282.71875 L 154.84375 282.71875 z M 235.71875 283.9375 L 217.125 379.90625 L 241.28125 379.90625 L 249.09375 339.59375 L 256.3125 339.59375 L 248.5 379.90625 L 272.65625 379.90625 L 291.21875 283.9375 L 267.09375 283.9375 L 260.4375 318.25 L 253.21875 318.25 L 259.875 283.9375 L 235.71875 283.9375 z M 365.09375 283.9375 L 346.53125 379.90625 L 367.625 379.90625 L 379.90625 316.59375 L 376.5 379.90625 L 391.46875 379.90625 L 412.46875 315.125 L 399.90625 379.90625 L 421 379.90625 L 439.59375 283.9375 L 408.09375 283.9375 L 393.9375 328.75 L 395.3125 304.34375 C 395.80946 296.5193 396.15254 289.7072 396.34375 283.9375 L 365.09375 283.9375 z M 449.28125 283.9375 L 430.6875 379.90625 L 472.5625 379.90625 L 476.28125 360.6875 L 458.5625 360.6875 L 462.65625 339.59375 L 477.71875 339.59375 L 481.28125 321.34375 L 466.1875 321.34375 L 469.6875 303.15625 L 485.8125 303.15625 L 489.53125 283.9375 L 449.28125 283.9375 z M 498.15625 283.9375 L 479.5625 379.90625 L 503.71875 379.90625 L 511.15625 341.25 L 517.65625 341.25 C 522.93216 341.25004 527.3194 340.50171 530.875 339 C 534.46871 337.49836 537.14753 335.33706 538.90625 332.53125 C 540.66484 329.72553 542.1585 325.28158 543.34375 319.15625 L 544.9375 310.78125 C 546.12261 304.77461 546.67015 300.34537 546.59375 297.5 C 546.51722 294.61529 545.78951 292.17174 544.375 290.15625 C 542.9986 288.14092 540.63859 286.59833 537.3125 285.53125 C 533.98628 284.46436 529.04454 283.93759 522.46875 283.9375 L 498.15625 283.9375 z M 560.875 283.9375 L 530.03125 379.90625 L 555.03125 379.90625 L 559.78125 362.65625 L 568.4375 362.65625 L 566.34375 379.90625 L 591.03125 379.90625 L 595.8125 283.9375 L 560.875 283.9375 z M 678.4375 283.9375 L 659.875 379.90625 L 701.71875 379.90625 L 705.46875 360.6875 L 687.71875 360.6875 L 691.8125 339.59375 L 706.875 339.59375 L 710.4375 321.34375 L 695.375 321.34375 L 698.84375 303.15625 L 714.96875 303.15625 L 718.6875 283.9375 L 678.4375 283.9375 z M 189.15625 288.4375 C 189.77337 288.43754 190.12375 288.68116 190.21875 289.1875 C 190.31367 289.67807 190.19186 290.80566 189.84375 292.59375 L 186.28125 310.25 C 185.82233 312.51284 185.44146 313.9612 185.125 314.5625 C 184.82433 315.16382 184.33667 315.46876 183.65625 315.46875 C 182.99163 315.46876 182.61035 315.2097 182.53125 314.6875 C 182.45212 314.16532 182.65066 312.7937 183.09375 310.5625 L 186.6875 292.59375 C 187.08308 290.61578 187.46436 289.42688 187.8125 289.03125 C 188.17644 288.61986 188.63404 288.43754 189.15625 288.4375 z M 325.46875 298.15625 C 326.95974 298.15633 327.83306 298.79801 328.0625 300.0625 C 328.29185 301.28765 327.96605 304.1283 327.125 308.59375 L 318.59375 352.6875 C 317.48499 358.33859 316.54585 361.93584 315.78125 363.4375 C 315.05482 364.93919 313.86268 365.68751 312.21875 365.6875 C 310.61299 365.68751 309.72237 365.02286 309.53125 363.71875 C 309.34006 362.41469 309.77324 358.97829 310.84375 353.40625 L 319.5625 308.59375 C 320.51825 303.65409 321.40885 300.70677 322.25 299.71875 C 323.12928 298.69136 324.20706 298.15633 325.46875 298.15625 z M 519.0625 300.34375 C 522.19745 300.34382 524.16585 300.85588 524.96875 301.84375 C 525.77157 302.83177 525.8929 304.97009 525.28125 308.25 L 523.71875 316.125 C 523.03053 319.68167 522.16419 322.04154 521.09375 323.1875 C 520.02321 324.29406 518.37364 324.84381 516.15625 324.84375 C 515.65919 324.84385 515.06313 324.82075 514.375 324.78125 L 519.0625 300.34375 z M 575.15625 305.40625 C 573.32108 321.37153 571.97304 334.78888 571.09375 345.65625 L 562.84375 345.65625 C 565.09939 337.15995 569.19206 323.74261 575.15625 305.40625 z M 142.5625 338.71875 L 134.875 377.15625 L 143.59375 377.15625 L 148.6875 351.8125 L 147.28125 377.15625 L 153.46875 377.15625 L 162.15625 351.21875 L 156.96875 377.15625 L 165.6875 377.15625 L 173.375 338.71875 L 160.34375 338.71875 L 154.5 356.6875 L 155.0625 346.90625 C 155.26819 343.77313 155.4209 341.0291 155.5 338.71875 L 142.5625 338.71875 z M 175.125 338.71875 L 177.21875 363.25 L 174.46875 377.15625 L 183.71875 377.15625 L 186.5 363.25 L 198.6875 338.71875 L 189.5 338.71875 C 186.99978 344.70027 185.06418 349.74535 183.6875 353.84375 C 184.03562 351.24863 184.2492 346.20355 184.3125 338.71875 L 175.125 338.71875 z "
       transform="translate(0,308.26769)"
       id="path3027" />
    <path
       style="color:#000000;fill:none;stroke:#ff00ff;stroke-width:4.8833847;stroke-linecap:round;stroke-linejoin:round;stroke-miterlimit:4;stroke-opacity:1;stroke-dashoffset:0;marker:none;visibility:visible;display:inline;overflow:visible;enable-background:accumulate"
       d="m 151.54169,703.90385 542.59831,54.25983 0,162.77949 L 151.54169,975.203 Z"
       id="rect45"
       inkscape:connector-curvature="0"
       sodipodi:nodetypes="ccccc" />
  </g>
</svg>
