<?xml version="1.0" encoding="UTF-8" standalone="no"?>
<!-- Created with Inkscape (http://www.inkscape.org/) -->

<svg
   xmlns:dc="http://purl.org/dc/elements/1.1/"
   xmlns:cc="http://creativecommons.org/ns#"
   xmlns:rdf="http://www.w3.org/1999/02/22-rdf-syntax-ns#"
   xmlns:svg="http://www.w3.org/2000/svg"
   xmlns="http://www.w3.org/2000/svg"
   xmlns:sodipodi="http://sodipodi.sourceforge.net/DTD/sodipodi-0.dtd"
   xmlns:inkscape="http://www.inkscape.org/namespaces/inkscape"
   sodipodi:docname="trying-slant.svg"
   inkscape:version="0.48.4 r9939"
   version="1.1"
   id="svg2"
   height="744.09448"
   width="1052.3622">
  <sodipodi:namedview
     id="base"
     pagecolor="#ffffff"
     bordercolor="#666666"
     borderopacity="1.0"
     inkscape:pageopacity="0.0"
     inkscape:pageshadow="2"
     inkscape:zoom="1.3549845"
     inkscape:cx="426.98761"
     inkscape:cy="11.032079"
     inkscape:document-units="px"
     inkscape:current-layer="layer1"
     showgrid="true"
     inkscape:window-width="1439"
     inkscape:window-height="827"
     inkscape:window-x="273"
     inkscape:window-y="115"
     inkscape:window-maximized="0"
     showguides="true"
     inkscape:guide-bbox="true"
     inkscape:snap-global="false">
    <inkscape:grid
       spacingy="10px"
       spacingx="10px"
       id="grid3073"
       type="xygrid"
       snapvisiblegridlinesonly="false"
       enabled="true"
       visible="true"
       empspacing="5" />
    <sodipodi:guide
       id="guide3899"
       position="601.86424,356.07132"
       orientation="0,1" />
    <sodipodi:guide
       id="guide3000"
       position="558.65171,405.85217"
       orientation="0,1" />
  </sodipodi:namedview>
  <defs
     id="defs4" />
  <metadata
     id="metadata7">
    <rdf:RDF>
      <cc:Work
         rdf:about="">
        <dc:format>image/svg+xml</dc:format>
        <dc:type
           rdf:resource="http://purl.org/dc/dcmitype/StillImage" />
        <dc:title />
      </cc:Work>
    </rdf:RDF>
  </metadata>
  <g
     transform="translate(0,-308.26769)"
     id="layer1"
     inkscape:groupmode="layer"
     inkscape:label="Layer 1">
    <path
       id="path3027"
       transform="translate(0,308.26769)"
       d="M342.318809549 700.0C335.641943329 700.000083814 330.16586645 700.778409479 325.926688304 702.339622002C321.673771262 703.874852102 318.856966517 706.012554354 317.458501235 708.77869259C316.071638659 711.582080814 315.805245314 714.559636872 316.619095219 717.703775562C317.377967439 720.856778985 318.930139571 725.679227314 321.047033444 732.278404056C323.342323286 741.436007418 324.994245424 750.833160312 325.990903858 760.433628398C326.318266474 770.259517647 326.973449345 777.702920409 328.334051394 782.711360645C329.554900665 787.694115979 332.525724602 791.636795459 337.313245698 794.478249975C342.086693728 797.315910913 348.519448042 798.719968237 356.634200224 798.722191439C364.441834981 798.7243305 371.327841945 797.061622237 377.243058046 793.751375759C383.138630738 790.452195014 387.112880949 786.612719713 389.16275045 782.244121574C391.148199143 777.892030108 392.381560957 770.55695131 392.446905081 760.30113831C392.416820622 759.028014104 392.377208981 757.757422251 392.328098183 756.48943339C382.924394701 756.416428365 373.520691219 756.34342334 364.116987737 756.270418316C364.34360215 760.390040219 364.460707632 764.537417304 364.467366026 768.709894348C364.297225382 774.211642928 363.748872404 777.704004194 362.989582945 779.201392009C362.260649866 780.701322207 360.850800826 781.449633851 358.782478789 781.441633172C356.626074375 781.433327809 355.312879505 780.673489573 354.804505208 779.166246086C354.280591705 777.660677362 354.155337751 774.466784152 354.300553025 769.573458099C353.661795811 754.201825073 351.489050789 739.277138416 347.829553802 724.933065217C346.341308461 720.389404627 345.620592316 717.483587285 345.749573202 716.151843357C345.91530557 714.827701561 347.213842599 714.179975905 349.673280402 714.192991393C351.848916275 714.204646675 353.466769928 714.7538072 354.512944782 715.871161679C355.571750947 716.958246814 356.868725562 719.761946883 358.299319337 724.301443254C359.792325384 729.597413075 361.087414903 734.984462129 362.182113987 740.456070359C371.741397248 740.538265427 381.300680509 740.620460495 390.859963769 740.702655564C390.37979491 737.700684666 389.844856674 734.721019735 389.255545005 731.764637224C387.302742102 723.205640619 384.66794543 717.057763267 381.593463093 713.180616753C378.417613727 709.331081289 373.352242876 706.161673155 366.423272303 703.665728724C359.433482443 701.212513587 351.383761436 700.000084463 342.318809549 700.0C342.318809549 700.0 342.318809549 700.0 342.318809549 700.0M150.14795758 701.539175022C171.39618244 729.268793321 182.112372063 761.600294623 181.823279389 796.455552722C192.509620312 796.463373751 203.195961236 796.471194781 213.882302159 796.479015811C225.024610074 796.48717055 232.492086955 795.865678156 236.302523955 794.615711302C240.100574213 793.368154971 243.04440246 791.039443011 245.070301086 787.643541267C247.003552446 784.257571424 248.111426136 779.069684191 248.145936753 772.105729552C248.020477276 768.937580362 247.811766664 765.785290244 247.520180815 762.650358809C246.664202298 756.120545692 244.641205079 751.354624167 241.613147713 748.26490092C238.467407142 745.160817848 233.353539955 742.920718086 226.360170687 741.559901591C231.919186987 740.430216184 235.341019469 738.799932318 236.577836226 736.639032098C237.826807396 734.496072991 237.340271492 730.722042263 234.970679333 725.412396419C230.914650356 717.804361308 226.116166465 712.486291218 220.858103546 709.280018738C215.452013348 706.119040141 209.791065515 704.060513354 204.001655974 703.060250375C198.175836663 702.073138144 190.391339949 701.571625413 180.730838226 701.563775666C170.536544677 701.555575451 160.342251129 701.547375237 150.14795758 701.539175022C150.14795758 701.539175022 150.14795758 701.539175022 150.14795758 701.539175022M241.192809379 701.61241083C252.757164665 729.935322398 255.951246879 762.115956316 249.988451339 796.505440877C259.557014492 796.512443837 269.125577645 796.519446797 278.694140798 796.526449756C280.196833492 790.294957298 281.402137568 784.084810148 282.313979463 777.906413313C285.63378725 777.921253459 288.953595037 777.936093606 292.273402824 777.950933753C292.353825829 784.12080538 292.144921685 790.319227627 291.644945308 796.535928083C301.097876278 796.542846415 310.550807248 796.549764747 320.003738218 796.556683078C316.78385599 762.540787359 305.25268537 730.36537855 285.531588225 701.648076616C270.751995276 701.636188021 255.972402328 701.624299425 241.192809379 701.61241083C241.192809379 701.61241083 241.192809379 701.61241083 241.192809379 701.61241083M391.036128363 701.73294369C399.712280386 731.139214668 402.69160799 763.140733349 399.500864114 796.614864769C408.732166733 796.621620898 417.963469353 796.628377026 427.194771972 796.635133154C429.432128236 782.267202103 430.599155193 768.031462508 430.733135858 754.01517351C434.365842101 768.055196182 436.912733085 782.295255337 438.382185689 796.643320905C447.921840796 796.650302708 457.461495904 796.657284511 467.001151011 796.664266314C464.04094508 778.422359174 459.480833683 760.368913924 453.282943955 742.681718677C457.508197247 728.613540427 461.065569421 714.971518751 464.07035066 701.79169188C454.483875869 701.783980591 444.897401078 701.776269301 435.310926287 701.768558011C433.888456062 712.97126697 431.962189013 724.568382382 429.463120897 736.530020584C427.621867834 724.5363218 425.029882695 712.928203871 421.714980392 701.757621533C411.488696383 701.749395585 401.262412373 701.741169638 391.036128363 701.73294369C391.036128363 701.73294369 391.036128363 701.73294369 391.036128363 701.73294369M490.046392636 701.954200668C486.356680862 715.245538233 482.220399766 728.942658219 477.522397692 743.018957639C483.289558492 760.676970657 487.575643673 778.663013141 490.4185261 796.81629401C492.585978613 787.639010499 494.411096521 778.497332794 495.906517043 769.409245302C523.297959613 769.577635776 550.689402183 769.746026251 578.080844753 769.914416725C576.74759766 755.958894975 574.908854038 742.139416745 572.564613888 728.49934252C548.488740717 728.312091017 524.412867547 728.124839514 500.336994377 727.937588011C497.262962226 719.094779644 493.833099873 710.426822129 490.046392636 701.954200668C490.046392636 701.954200668 490.046392636 701.954200668 490.046392636 701.954200668M192.069229388 715.254964985C195.16552162 715.307691078 197.337856761 715.465097163 198.591127298 715.749844339C199.842348311 716.035375903 201.16396663 716.728439705 202.535898554 717.823929004C203.859807034 718.891570163 205.350329882 720.806066727 206.930343596 723.559864133C209.664406086 728.888513065 210.797170224 732.18201745 210.53926257 733.358043672C210.244423338 734.501555104 208.656985836 735.055819784 205.825970734 735.031634629C205.140998528 735.025796669 204.163590068 735.029685591 202.910284039 735.057362858C199.783455013 728.230694575 196.168037124 721.623039623 192.069229388 715.254964985C192.069229388 715.254964985 192.069229388 715.254964985 192.069229388 715.254964985M275.732261874 720.283383977C283.161042822 735.413641205 287.973899659 748.801453246 291.015603408 759.990007374C287.807192174 759.966632718 284.598780941 759.943258062 281.390369707 759.919883407C280.865929987 751.154453588 279.490193922 737.698097224 275.732261874 720.283383977C275.732261874 720.283383977 275.732261874 720.283383977 275.732261874 720.283383977M587.022338401 728.611788312C589.100621196 742.26143861 590.730756757 756.070139275 591.912745085 769.999449131C600.034852523 770.049380255 608.156959962 770.09931138 616.2790674 770.149242504C615.363537024 756.26610761 614.100886126 742.47639274 612.491114706 728.8098732C604.001522605 728.743844904 595.511930503 728.677816608 587.022338401 728.611788312C587.022338401 728.611788312 587.022338401 728.611788312 587.022338401 728.611788312M626.979340748 728.92255622C628.322593721 742.598672036 629.376196457 756.377586603 630.140148956 770.234454303C638.262256395 770.284385428 646.384363833 770.334316552 654.506471271 770.384247676C654.008976724 756.573554938 653.322858651 742.813626165 652.448117054 729.120641108C643.958524952 729.054612812 635.46893285 728.988584516 626.979340748 728.92255622C626.979340748 728.92255622 626.979340748 728.92255622 626.979340748 728.92255622M666.936343096 729.233324128C667.544566246 742.935905461 668.021636157 756.685033931 668.367552827 770.469459475C676.489660266 770.5193906 684.611767704 770.569321724 692.733875142 770.619252848C692.654416423 756.881002266 692.544831176 743.150859591 692.405119401 729.431409016C683.915527299 729.36538072 675.425935198 729.299352424 666.936343096 729.233324128C666.936343096 729.233324128 666.936343096 729.233324128 666.936343096 729.233324128M207.925232205 750.03222136C212.157009214 750.188406923 214.864220872 750.719496753 216.077671485 751.622357228C217.28194987 752.527333568 218.30726716 755.116348622 219.041035526 759.411002343C219.48033892 762.548435459 219.831313425 765.705919257 220.09358094 768.881851744C220.276089257 773.03763746 219.75903948 775.65655238 218.659908681 776.719573511C217.595818531 777.784685232 215.08816153 778.381162464 211.148504681 778.492834388C210.890962353 768.83624807 209.813055069 759.334595649 207.925232205 750.03222136C207.925232205 750.03222136 207.925232205 750.03222136 207.925232205 750.03222136M209.671936792 819.587636073C207.659769106 819.59561111 205.778746629 819.921130223 204.016215957 820.57444361C202.24906949 821.227782691 200.651598662 822.160414593 199.256421806 823.370341187C197.86148061 824.579016175 196.777848881 825.905351875 195.951556457 827.364210768C195.108664618 828.806104914 193.832702843 831.25934724 192.064985365 834.713976731C190.995562701 836.661974833 189.888779921 838.602675412 188.744547401 840.53565098C186.59758789 844.01023528 185.110695787 846.42871791 184.362289724 847.800453169C183.594517466 849.167035907 183.260282463 850.43603364 183.369545187 851.582489582C183.466618975 852.724778139 184.071066755 853.571609226 185.190106536 854.137112806C186.314652327 854.688039625 187.856321861 854.95737106 189.813251018 854.940788562C191.875516111 854.923313476 193.905138523 854.611154243 195.910442907 853.993942188C197.909854598 853.375679552 199.787367576 852.495427245 201.508823807 851.352316244C203.229680852 850.205449324 204.649175202 848.929267058 205.739528657 847.548576167C206.83088748 846.149106853 208.417459711 843.760830653 210.456400195 840.378046787C211.56987405 838.450536416 212.647440507 836.515638642 213.689189186 834.573763592C215.46486629 831.045686662 216.549728148 828.560639231 217.018188874 827.139813755C217.468309279 825.716328777 217.472847295 824.413761178 217.050592881 823.203312998C216.615870375 821.990920228 215.757603798 821.070934301 214.471880438 820.474708983C213.186013872 819.863501155 211.581252028 819.580139409 209.671936792 819.587636073C209.671936792 819.587636073 209.671936792 819.587636073 209.671936792 819.587636073M337.844649677 819.081948159C332.98315447 819.101217144 328.456548471 819.897523896 324.248497351 821.49101503C320.017413219 823.084831576 316.261314642 825.365445631 312.908049126 828.311267928C309.517824352 831.249372192 306.784582824 834.462110641 304.675403961 837.987198102C302.47568783 841.458330241 299.004541081 847.34681576 293.925570051 855.521665607C290.755366426 860.080944278 287.395825124 864.577340346 283.845604413 869.00534145C276.970456707 876.813179171 272.019913812 882.118132514 269.371956037 885.08176853C266.626374706 887.996329544 264.990543385 890.644701622 264.549519327 893.034841854C264.059095538 895.389345061 265.060852079 897.140645822 267.586642485 898.302339206C270.143654811 899.430900722 273.973527624 899.999993227 279.081468793 900.0C284.464412796 899.999993191 289.970579008 899.377963027 295.536884734 898.149184508C301.060475793 896.90473276 306.350077267 895.093619366 311.3471417 892.71039811C316.293238427 890.288062938 320.420273999 887.604736613 323.75534886 884.611144043C327.050882156 881.542086575 331.889452733 876.224934698 337.965967189 868.558411558C341.18889374 864.119467987 344.244419272 859.621013847 347.133885516 855.06790631C351.911858526 846.719707539 354.742745347 840.792891069 355.928763836 837.383622096C357.033283312 833.957301492 357.033417733 830.777559959 355.965421607 827.851721022C354.844395235 824.914957964 352.681034013 822.717544633 349.521483373 821.269796179C346.356005153 819.783631412 342.457644585 819.063836677 337.844649677 819.081948159C337.844649677 819.081948159 337.844649677 819.081948159 337.844649677 819.081948159M627.632740745 817.938628868C620.961515273 817.965032974 615.152189896 819.420585552 610.207035263 822.35636459C605.233789231 825.262393746 601.814552703 828.480491645 599.951325973 831.964658126C598.054629695 835.44574591 595.912093116 841.009441095 593.453377058 848.647970884C590.765969536 856.523157462 587.902165709 864.348860264 584.855047074 872.115427985C582.638448307 877.470543206 581.154302865 881.46651927 580.411066869 884.129307917C579.654519176 886.750762355 579.619571884 889.259379027 580.346925326 891.637746044C581.07108524 894.009633433 582.834161081 896.005078337 585.653766496 897.618938278C588.495234094 899.201929778 592.002488879 899.999992136 596.167433894 900.0C599.664369921 899.99999211 602.958384483 899.401959326 606.047443148 898.24275722C609.125893373 897.047740398 612.015249674 895.274655136 614.669118394 892.902089605C614.670489163 894.733128056 614.667933161 896.560947192 614.661516722 898.38551429C619.847125984 898.381978642 625.032735245 898.378442994 630.218344506 898.374907346C635.350791881 884.531201929 640.054023823 870.524327934 644.369115011 856.396992209C635.346543162 856.474567538 626.323971314 856.552142866 617.301399465 856.629718195C615.988494206 860.634185339 614.637673134 864.627784378 613.248012562 868.609437385C614.828083787 868.596706225 616.408155012 868.583975066 617.988226236 868.571243906C616.87956882 871.673946291 615.747021901 874.768562521 614.590134618 877.854553818C613.237643087 881.476941663 611.982202331 883.924486016 610.833960419 885.171592928C609.716720362 886.416376961 608.288585971 887.04250833 606.526339827 887.050645005C604.917266253 887.058089796 604.07246095 886.510550767 603.991445939 885.4325602C603.914365994 884.321658545 604.565671067 882.031496228 605.954491649 878.545001474C610.602821951 866.017247037 614.847198118 853.361050755 618.716885222 840.61077242C619.885539925 836.526954518 620.826546226 833.989653015 621.598047005 832.996672132C622.366828179 832.003702135 623.468584565 831.500084921 624.862513413 831.491070365C626.470774842 831.480813292 627.312939121 832.067276775 627.433385918 833.218040658C627.551957497 834.368460552 626.986554165 837.230495008 625.696021409 841.802564513C625.010045989 844.218529262 624.312354572 846.632188465 623.602752178 849.043347217C631.244454114 848.979448871 638.886156051 848.915550525 646.527857988 848.851652178C646.837910445 847.704442888 647.145885289 846.556832339 647.451803423 845.408837306C649.162310976 838.885940784 649.76573383 833.91177279 649.313213228 830.503949967C648.851346414 827.0603729 646.767534476 824.107220472 643.030318421 821.626185008C639.329657282 819.140393971 634.197409104 817.912812339 627.632740745 817.938628868C627.632740745 817.938628868 627.632740745 817.938628868 627.632740745 817.938628868M176.530325863 820.43133553C175.582776918 822.769709641 174.582673087 825.101899467 173.529874225 827.427204705C175.363149591 827.417453359 177.196424957 827.407702013 179.029700323 827.397950666C174.308558931 836.608308994 168.741599626 845.653658266 162.319807399 854.488440552C165.488456784 854.461686034 168.65710617 854.434931515 171.825755555 854.408176997C178.168213018 845.580097582 183.670481229 836.545250114 188.341575199 827.348420018C190.174850565 827.338668671 192.008125931 827.328917325 193.841401297 827.319165979C194.881588754 825.002024185 195.871058132 822.678286859 196.809952434 820.34862834C190.05007691 820.376197403 183.290201386 820.403766467 176.530325863 820.43133553C176.530325863 820.43133553 176.530325863 820.43133553 176.530325863 820.43133553M251.426978807 821.221496701C237.070040687 849.426993744 215.429638339 875.663527547 186.240563912 898.677619927C194.488456832 898.671996355 202.736349752 898.666372783 210.984242672 898.660749212C223.672690903 889.37801744 235.062812815 879.427572029 245.174270476 868.901871253C247.504847515 868.882550126 249.835424555 868.863228998 252.166001595 868.843907871C242.170564038 879.378178427 230.914629983 889.345845622 218.37853736 898.655707639C226.626430279 898.650084068 234.874323199 898.644460496 243.122216119 898.638836924C269.740647227 875.251224562 289.603127425 848.997528491 302.974418836 821.00069523C295.505457931 821.032688236 288.036497026 821.064681242 280.567536121 821.096674248C276.397484468 831.27878533 271.375313522 841.319032395 265.488886768 851.1660529C263.207288588 851.18501266 260.925690407 851.203972419 258.644092227 851.222932178C264.59039592 841.369403956 269.659281666 831.319511905 273.862885982 821.125393358C266.384250257 821.157427806 258.905614532 821.189462253 251.426978807 821.221496701C251.426978807 821.221496701 251.426978807 821.221496701 251.426978807 821.221496701M371.588241036 820.706790569C359.515803563 848.425982689 342.005877064 874.702621791 318.793699416 898.587242653C325.995934501 898.58233203 333.198169587 898.577421408 340.400404672 898.572510786C355.703495931 883.021788636 368.615923031 866.350992875 379.213925678 848.827125555C371.475112418 866.326999101 361.574594262 882.98643748 349.491225847 898.566312489C354.602145263 898.562827766 359.713064679 898.559343043 364.823984095 898.55585832C382.461742812 882.485230883 397.606195709 865.314804902 410.393825501 847.334466868C400.32149476 865.291898249 388.039656962 882.451158189 373.466666197 898.549965574C380.668901283 898.545054951 387.871136368 898.540144329 395.073371453 898.535233707C414.862108498 874.14953242 430.010099539 847.849682065 440.782552425 820.410399405C431.030334041 820.452172656 421.278115658 820.493945908 411.525897274 820.535719159C405.1142712 833.520981309 397.64662606 846.329600968 389.078936152 858.875238095C391.877866392 852.097370912 394.371392242 845.227290051 396.560782124 838.277878319C398.433186321 831.530867492 399.752365518 825.616068515 400.612700511 820.582465416C390.937880686 820.623907134 381.263060861 820.665348852 371.588241036 820.706790569C371.588241036 820.706790569 371.588241036 820.706790569 371.588241036 820.706790569M449.780134862 820.371858608C439.178005462 847.774733165 424.338513426 874.077592125 404.996450904 898.528467961C419.294221296 898.518719466 433.591991688 898.508970971 447.889762079 898.499222477C451.700385124 893.706407258 455.345914799 888.827644194 458.828478296 883.86874218C452.952312562 883.902060356 447.076146827 883.935378532 441.199981093 883.968696708C445.00911852 878.460327087 448.615034369 872.86386872 452.020549545 867.187058476C456.883485186 867.146743397 461.746420827 867.106428318 466.609356468 867.066113238C469.305727396 862.092728525 471.863715447 857.072648167 474.285158178 852.010396596C469.501679234 852.050820651 464.718200291 852.091244705 459.934721347 852.13166876C462.271728723 847.044193767 464.469182588 841.921383333 466.528875915 836.767722979C471.568664236 836.732286201 476.608452557 836.696849424 481.648240878 836.661412647C483.626521994 831.199287672 485.464278859 825.714486478 487.163638667 820.211727811C474.702470732 820.265104743 462.241302797 820.318481676 449.780134862 820.371858608C449.780134862 820.371858608 449.780134862 820.371858608 449.780134862 820.371858608M495.174389482 820.177414069C485.43156954 847.396603879 472.14850474 873.714641729 455.059987231 898.49433368C463.307880151 898.488710108 471.555773071 898.483086536 479.803665991 898.477462964C486.654106929 888.636779718 492.917949093 878.511645788 498.612404278 868.143347091C500.714929998 868.126139182 502.817455717 868.108931273 504.919981437 868.091723363C510.039697148 868.049853983 514.457491491 867.406717532 518.216394689 866.155530101C521.99452107 864.901227675 524.998166499 863.11165465 527.209847459 860.795404675C529.391752773 858.471819189 531.555834773 854.788112066 533.610734209 849.691904535C534.504341067 847.360200259 535.376649366 845.023226995 536.227832227 842.681305691C538.027923425 837.626776837 538.988508614 833.889784072 539.179233655 831.486794695C539.353864317 829.046746322 538.868560626 826.980504481 537.70047004 825.278082488C536.560308991 823.57328878 534.467702982 822.272608311 531.444396329 821.378912855C528.420555183 820.483917093 523.86289339 820.05460473 517.755418954 820.0806891C510.22840913 820.112930757 502.701399306 820.145172413 495.174389482 820.177414069C495.174389482 820.177414069 495.174389482 820.177414069 495.174389482 820.177414069M553.426479649 819.927893488C540.922045285 846.942961561 525.511873135 873.309532774 506.756030177 898.459086324C515.2920125 898.453266328 523.827994824 898.447446331 532.363977147 898.441626334C535.499454911 893.995259837 538.53140042 889.499971446 541.462002601 884.959208655C544.340732544 884.944015552 547.219462487 884.928822448 550.09819243 884.913629345C548.131273024 889.461770525 546.08272155 893.969340446 543.951573151 898.433725688C552.380855695 898.427978442 560.81013824 898.422231195 569.239420784 898.416483948C576.684459745 872.921055177 582.20719583 846.605449743 585.875825343 819.788897967C575.059376778 819.835229807 564.242928214 819.881561647 553.426479649 819.927893488C553.426479649 819.927893488 553.426479649 819.927893488 553.426479649 819.927893488M662.616496196 819.460182263C656.053199348 846.001748445 648.521722908 872.375701322 639.757304753 898.3684035C654.044405167 898.35866228 668.33150558 898.348921061 682.618605994 898.339179841C684.06209882 893.093987874 685.471375616 887.839047626 686.848581452 882.575855921C680.962052109 882.609232859 675.075522767 882.642609798 669.188993424 882.675986736C670.82709693 876.91137657 672.419884993 871.134385035 673.970178519 865.347034758C678.83311416 865.306719679 683.696049801 865.2664046 688.558985442 865.22608952C689.777655065 860.209138808 690.976141724 855.189907401 692.156282975 850.169219014C687.382707714 850.209559374 682.609132454 850.249899735 677.835557194 850.290240096C679.04310208 845.281104552 680.228592276 840.269725561 681.393804745 835.256921307C686.433593066 835.221484529 691.473381387 835.186047752 696.513169708 835.150610975C697.684180071 829.865179549 698.84574777 824.581527425 700.0 819.300051467C687.538832065 819.353428399 675.07766413 819.406805331 662.616496196 819.460182263C662.616496196 819.460182263 662.616496196 819.460182263 662.616496196 819.460182263M207.327378741 825.475945057C207.901535159 825.473102245 208.177166051 825.691148393 208.159513473 826.147075702C208.143326044 826.588509811 207.782897029 827.603795461 207.047467526 829.211676559C204.417205032 834.476714121 201.523650439 839.693468705 198.365083815 844.853818305C197.077556936 846.821157174 196.150384742 848.075812494 195.610960112 848.596675249C195.083485552 849.11671291 194.497771781 849.382737004 193.854090483 849.38797168C193.225347974 849.393101799 192.970802869 849.173206394 193.108468562 848.724206652C193.244122451 848.274650205 193.974671185 847.088043363 195.245386809 845.148977252C198.474162152 839.898299491 201.426908826 834.588534066 204.105423811 829.228288906C204.930023087 827.448518929 205.544972246 826.375987492 205.953117845 826.017710404C206.377975012 825.645014866 206.841509509 825.47841727 207.327378741 825.475945057C207.327378741 825.475945057 207.327378741 825.475945057 207.327378741 825.475945057M332.404745828 833.36840925C333.798561307 833.359531802 334.4822155 833.913940024 334.428763755 835.014048491C334.375577532 836.078129442 333.417497367 838.544137438 331.510741142 842.403207593C324.354890057 854.906021209 315.938312176 867.027752035 306.235319726 878.668969184C302.14161087 882.99551627 299.201328711 885.703322256 297.577550413 886.82409434C295.976003449 887.937528722 294.340146515 888.493505981 292.692831535 888.501112182C291.083753369 888.508556283 290.588553158 888.024628739 291.169725729 887.06405812C291.741817724 886.098475286 294.136259326 883.524689694 298.229791494 879.275842654C308.295816062 867.476757731 317.008137036 855.168466253 324.393869582 842.457276186C326.544019539 838.182996287 328.059574246 835.616594238 329.063882868 834.750779255C330.105839895 833.84949516 331.225255356 833.376050341 332.404745828 833.36840925C332.404745828 833.36840925 332.404745828 833.36840925 332.404745828 833.36840925M513.147405921 834.061481526C516.081767925 834.041888674 517.868554233 834.46303185 518.511353742 835.293716488C519.152340345 836.123785324 519.016696153 837.928657648 518.034827919 840.697163322C517.196692294 842.908268278 516.338011655 845.114777409 515.458635935 847.316398831C514.250450459 850.29096124 513.037798915 852.262287253 511.823400196 853.223169069C510.610107798 854.15029007 508.939206903 854.619628368 506.824255351 854.637671896C506.350137785 854.641810676 505.785829144 854.627521131 505.136732947 854.600382525C508.012943407 847.803668701 510.681722647 840.954370808 513.147405921 834.061481526C513.147405921 834.061481526 513.147405921 834.061481526 513.147405921 834.061481526M565.223001693 837.959916035C561.788930526 851.293945389 558.653024339 862.377102123 556.023622897 871.249841081C553.341022604 871.270826943 550.658422311 871.291812804 547.975822017 871.312798666C551.647751055 864.37573985 557.556555871 853.29316514 565.223001693 837.959916035C565.223001693 837.959916035 565.223001693 837.959916035 565.223001693 837.959916035M142.545931615 869.059719307C131.321092575 879.03024074 118.688859505 888.372351075 104.63164284 896.989723941C107.595418518 896.985109611 110.559194196 896.980495282 113.522969874 896.975880952C122.845467571 891.359832788 131.554328947 885.419123731 139.654620865 879.181227641C132.776503194 885.412094156 125.319915663 891.350170706 117.283459444 896.970026212C119.386784118 896.966751526 121.490108793 896.963476841 123.593433468 896.960202155C134.15866919 891.180366468 144.062650445 885.062679319 153.314428528 878.637973457C145.222039387 885.05592441 136.506602023 891.17108351 127.162711704 896.954645114C130.126487382 896.950030784 133.09026306 896.945416455 136.054038738 896.940802125C149.504600609 888.220726731 161.60068015 878.813593312 172.359866927 868.811079254C168.156888217 868.846130945 163.953909507 868.881182636 159.750930796 868.916234327C154.067385374 873.661616581 148.076290089 878.283747716 141.774722895 882.772664871C144.383777311 880.35218399 146.907682516 877.891573244 149.346521852 875.392273819C151.634899018 872.955242396 153.54791993 870.793815548 155.064155975 868.955320745C150.891414522 868.990120266 146.718673068 869.024919786 142.545931615 869.059719307C142.545931615 869.059719307 142.545931615 869.059719307 142.545931615 869.059719307M174.053153314 868.796957709C169.635958768 875.228059511 164.726578492 881.435251043 159.326963785 887.398162715C154.729775796 890.667637764 149.957430026 893.845318016 145.009102883 896.926859904C148.153467043 896.921964415 151.297831203 896.917068925 154.442195363 896.912173436C159.332736211 893.818052478 164.04991829 890.629365647 168.594574552 887.350395594C178.589715831 881.343117364 188.005086551 875.086617996 196.852045024 868.606821198C193.888793847 868.631533901 190.92554267 868.656246604 187.962291493 868.680959308C181.943306962 873.434834513 176.803174096 877.352459764 172.663322486 880.46833162C174.786523975 878.506021192 178.311954592 874.627626219 182.942906846 868.7228196C179.979655669 868.747532303 177.016404492 868.772245006 174.053153314 868.796957709C174.053153314 868.796957709 174.053153314 868.796957709 174.053153314 868.796957709"
       style="font-size:145.6787262px;font-style:italic;font-variant:normal;font-weight:bold;font-stretch:normal;text-align:start;line-height:125%;letter-spacing:0px;word-spacing:0px;writing-mode:lr-tb;text-anchor:start;fill:#000000;fill-opacity:1;stroke:none;font-family:Homa;-inkscape-font-specification:Homa Bold Italic" />
    <path
       sodipodi:nodetypes="ccccc"
       inkscape:connector-curvature="0"
       id="path2986"
       d="m 100,700 600,0 0,200 -600,0 c 80,-50 80,-150 0,-200 z"
       style="fill:none;stroke:#000000;stroke-width:1.98674405px;stroke-linecap:butt;stroke-linejoin:miter;stroke-opacity:1" />
  </g>
</svg>
